Nunito-500.ufo
<glyph name="exclam" format="1">
  <advance width="790"/>
  <unicode hex="0021"/>
  <outline>
    <contour>
      <point x="357" y="465" type="line"/>
      <point x="362" y="386"/>
      <point x="458" y="384"/>
      <point x="466" y="465" type="curve" smooth="yes"/>
      <point x="523" y="1389" type="line" smooth="yes"/>
      <point x="533" y="1528"/>
      <point x="291" y="1528"/>
      <point x="301" y="1389" type="curve" smooth="yes"/>
    </contour>
    <component base="period" xOffset="117" yOffset="-2"/>
  </outline>
</glyph>
<glyph name="quotedbl" format="1">
  <advance width="682"/>
  <unicode hex="0022"/>
  <outline>
    <contour>
      <point x="194" y="982" type="curve" smooth="yes"/>
      <point x="222" y="982"/>
      <point x="251" y="1001"/>
      <point x="255" y="1053" type="curve" smooth="yes"/>
      <point x="283" y="1407" type="line"/>
      <point x="285" y="1455"/>
      <point x="240" y="1479"/>
      <point x="195" y="1479" type="curve" smooth="yes"/>
      <point x="150" y="1479"/>
      <point x="103" y="1456"/>
      <point x="106" y="1403" type="curve" smooth="yes"/>
      <point x="106" y="1402"/>
      <point x="123" y="1185"/>
      <point x="134" y="1053" type="curve" smooth="yes"/>
      <point x="138" y="1001"/>
      <point x="167" y="982"/>
    </contour>
    <contour>
      <point x="480" y="982" type="curve" smooth="yes"/>
      <point x="507" y="982"/>
      <point x="537" y="1000"/>
      <point x="541" y="1053" type="curve" smooth="yes"/>
      <point x="569" y="1407" type="line"/>
      <point x="571" y="1454"/>
      <point x="526" y="1479"/>
      <point x="481" y="1479" type="curve" smooth="yes"/>
      <point x="436" y="1479"/>
      <point x="390" y="1454"/>
      <point x="392" y="1407" type="curve" smooth="yes"/>
      <point x="392" y="1406"/>
      <point x="409" y="1185"/>
      <point x="420" y="1053" type="curve" smooth="yes"/>
      <point x="425" y="1002"/>
      <point x="451" y="982"/>
    </contour>
  </outline>
</glyph>
<glyph name="numbersign" format="1">
  <advance width="1192"/>
  <unicode hex="0023"/>
  <outline>
    <contour>
      <point x="300" y="-47" type="curve" smooth="yes"/>
      <point x="332" y="-47"/>
      <point x="366" y="-26"/>
      <point x="373" y="18" type="curve" smooth="yes"/>
      <point x="438" y="454" type="line"/>
      <point x="692" y="454" type="line"/>
      <point x="670" y="303"/>
      <point x="631" y="30"/>
      <point x="631" y="27" type="curve" smooth="yes"/>
      <point x="627" y="-25"/>
      <point x="666" y="-47"/>
      <point x="703" y="-47" type="curve" smooth="yes"/>
      <point x="736" y="-47"/>
      <point x="769" y="-26"/>
      <point x="776" y="18" type="curve" smooth="yes"/>
      <point x="840" y="454" type="line"/>
      <point x="981" y="454" type="line" smooth="yes"/>
      <point x="1028" y="454"/>
      <point x="1051" y="488"/>
      <point x="1051" y="523" type="curve" smooth="yes"/>
      <point x="1051" y="558"/>
      <point x="1027" y="593"/>
      <point x="981" y="593" type="curve" smooth="yes"/>
      <point x="861" y="593" type="line"/>
      <point x="899" y="861" type="line"/>
      <point x="1038" y="861" type="line" smooth="yes"/>
      <point x="1085" y="861"/>
      <point x="1108" y="895"/>
      <point x="1108" y="931" type="curve" smooth="yes"/>
      <point x="1108" y="966"/>
      <point x="1084" y="1001"/>
      <point x="1038" y="1001" type="curve" smooth="yes"/>
      <point x="920" y="1001" type="line"/>
      <point x="940" y="1139"/>
      <point x="977" y="1390"/>
      <point x="977" y="1392" type="curve" smooth="yes"/>
      <point x="980" y="1438"/>
      <point x="942" y="1462"/>
      <point x="905" y="1462" type="curve" smooth="yes"/>
      <point x="870" y="1462"/>
      <point x="836" y="1440"/>
      <point x="829" y="1396" type="curve" smooth="yes"/>
      <point x="771" y="1001" type="line"/>
      <point x="517" y="1001" type="line"/>
      <point x="537" y="1139"/>
      <point x="574" y="1390"/>
      <point x="574" y="1392" type="curve" smooth="yes"/>
      <point x="578" y="1439"/>
      <point x="539" y="1462"/>
      <point x="502" y="1462" type="curve" smooth="yes"/>
      <point x="467" y="1462"/>
      <point x="433" y="1440"/>
      <point x="426" y="1396" type="curve" smooth="yes"/>
      <point x="368" y="1001" type="line"/>
      <point x="209" y="1001" type="line" smooth="yes"/>
      <point x="163" y="1001"/>
      <point x="140" y="967"/>
      <point x="140" y="932" type="curve" smooth="yes"/>
      <point x="140" y="896"/>
      <point x="163" y="861"/>
      <point x="209" y="861" type="curve" smooth="yes"/>
      <point x="348" y="861" type="line"/>
      <point x="309" y="593" type="line"/>
      <point x="153" y="593" type="line" smooth="yes"/>
      <point x="106" y="593"/>
      <point x="83" y="559"/>
      <point x="83" y="524" type="curve" smooth="yes"/>
      <point x="83" y="489"/>
      <point x="107" y="454"/>
      <point x="153" y="454" type="curve" smooth="yes"/>
      <point x="290" y="454" type="line"/>
      <point x="268" y="303"/>
      <point x="228" y="30"/>
      <point x="228" y="28" type="curve" smooth="yes"/>
      <point x="223" y="-24"/>
      <point x="263" y="-47"/>
    </contour>
    <contour>
      <point x="458" y="593" type="line"/>
      <point x="497" y="861" type="line"/>
      <point x="751" y="861" type="line"/>
      <point x="712" y="593" type="line"/>
    </contour>
  </outline>
</glyph>
<glyph name="dollar" format="1">
  <advance width="1235"/>
  <unicode hex="0024"/>
  <outline>
    <contour>
      <point x="567" y="0" type="line"/>
      <point x="567" y="-87"/>
      <point x="693" y="-81"/>
      <point x="693" y="0" type="curve" smooth="yes"/>
      <point x="693" y="261" type="line"/>
      <point x="567" y="261" type="line"/>
    </contour>
    <contour>
      <point x="560" y="1195" type="line"/>
      <point x="686" y="1195" type="line"/>
      <point x="686" y="1438" type="line" smooth="yes"/>
      <point x="686" y="1519"/>
      <point x="560" y="1525"/>
      <point x="560" y="1438" type="curve" smooth="yes"/>
    </contour>
    <component base="s" xOffset="108" yOffset="220"/>
  </outline>
</glyph>
<glyph name="percent" format="1">
  <advance width="2069"/>
  <unicode hex="0025"/>
  <outline>
    <contour>
      <point x="612" y="-69" type="curve" smooth="yes"/>
      <point x="635" y="-69"/>
      <point x="654" y="-54"/>
      <point x="669" y="-28" type="curve" smooth="yes"/>
      <point x="1442" y="1341" type="line" smooth="yes"/>
      <point x="1450" y="1356"/>
      <point x="1457" y="1371"/>
      <point x="1457" y="1386" type="curve" smooth="yes"/>
      <point x="1457" y="1419"/>
      <point x="1430" y="1446"/>
      <point x="1399" y="1446" type="curve" smooth="yes"/>
      <point x="1379" y="1446"/>
      <point x="1356" y="1434"/>
      <point x="1341" y="1406" type="curve" smooth="yes"/>
      <point x="562" y="26" type="line" smooth="yes"/>
      <point x="555" y="14"/>
      <point x="549" y="-1"/>
      <point x="549" y="-11" type="curve" smooth="yes"/>
      <point x="549" y="-44"/>
      <point x="579" y="-69"/>
    </contour>
    <contour>
      <point x="549" y="744" type="curve" smooth="yes"/>
      <point x="411" y="744"/>
      <point x="362" y="876"/>
      <point x="362" y="1021" type="curve" smooth="yes"/>
      <point x="362" y="1165"/>
      <point x="412" y="1297"/>
      <point x="549" y="1297" type="curve" smooth="yes"/>
      <point x="688" y="1297"/>
      <point x="738" y="1165"/>
      <point x="738" y="1021" type="curve" smooth="yes"/>
      <point x="738" y="876"/>
      <point x="688" y="744"/>
    </contour>
    <contour>
      <point x="549" y="628" type="curve" smooth="yes"/>
      <point x="763" y="628"/>
      <point x="893" y="803"/>
      <point x="893" y="1021" type="curve" smooth="yes"/>
      <point x="893" y="1213"/>
      <point x="790" y="1413"/>
      <point x="549" y="1413" type="curve" smooth="yes"/>
      <point x="334" y="1413"/>
      <point x="207" y="1238"/>
      <point x="207" y="1021" type="curve" smooth="yes"/>
      <point x="207" y="795"/>
      <point x="333" y="628"/>
    </contour>
    <contour>
      <point x="1519" y="85" type="curve" smooth="yes"/>
      <point x="1379" y="85"/>
      <point x="1332" y="217"/>
      <point x="1332" y="362" type="curve" smooth="yes"/>
      <point x="1332" y="506"/>
      <point x="1379" y="638"/>
      <point x="1519" y="638" type="curve" smooth="yes"/>
      <point x="1659" y="638"/>
      <point x="1707" y="504"/>
      <point x="1707" y="362" type="curve" smooth="yes"/>
      <point x="1707" y="215"/>
      <point x="1656" y="85"/>
    </contour>
    <contour>
      <point x="1519" y="-32" type="curve" smooth="yes"/>
      <point x="1735" y="-32"/>
      <point x="1862" y="146"/>
      <point x="1862" y="362" type="curve" smooth="yes"/>
      <point x="1862" y="553"/>
      <point x="1761" y="753"/>
      <point x="1519" y="753" type="curve" smooth="yes"/>
      <point x="1305" y="753"/>
      <point x="1176" y="578"/>
      <point x="1176" y="362" type="curve" smooth="yes"/>
      <point x="1176" y="138"/>
      <point x="1302" y="-32"/>
    </contour>
  </outline>
</glyph>
<glyph name="ampersand" format="1">
  <advance width="1526"/>
  <unicode hex="0026"/>
  <outline>
    <contour>
      <point x="650" y="-28" type="curve" smooth="yes"/>
      <point x="849" y="-28"/>
      <point x="987" y="50"/>
      <point x="1103" y="180" type="curve"/>
      <point x="1251" y="19" type="line"/>
      <point x="1270" y="-2"/>
      <point x="1290" y="-11"/>
      <point x="1311" y="-11" type="curve" smooth="yes"/>
      <point x="1360" y="-11"/>
      <point x="1413" y="40"/>
      <point x="1413" y="90" type="curve" smooth="yes"/>
      <point x="1413" y="109"/>
      <point x="1405" y="124"/>
      <point x="1388" y="143" type="curve"/>
      <point x="1234" y="308" type="line"/>
      <point x="1352" y="504"/>
      <point x="1393" y="747"/>
      <point x="1395" y="853" type="curve" smooth="yes"/>
      <point x="1396" y="904"/>
      <point x="1352" y="933"/>
      <point x="1309" y="933" type="curve" smooth="yes"/>
      <point x="1270" y="933"/>
      <point x="1231" y="914"/>
      <point x="1225" y="867" type="curve"/>
      <point x="1221" y="721"/>
      <point x="1174" y="562"/>
      <point x="1111" y="432" type="curve"/>
      <point x="726" y="842" type="line"/>
      <point x="866" y="944"/>
      <point x="992" y="1063"/>
      <point x="992" y="1233" type="curve" smooth="yes"/>
      <point x="992" y="1421"/>
      <point x="862" y="1506"/>
      <point x="654" y="1507" type="curve" smooth="yes"/>
      <point x="450" y="1508"/>
      <point x="265" y="1415"/>
      <point x="265" y="1226" type="curve" smooth="yes"/>
      <point x="265" y="1082"/>
      <point x="361" y="967"/>
      <point x="460" y="863" type="curve"/>
      <point x="271" y="761"/>
      <point x="96" y="633"/>
      <point x="96" y="404" type="curve" smooth="yes"/>
      <point x="96" y="129"/>
      <point x="321" y="-28"/>
    </contour>
    <contour>
      <point x="647" y="128" type="curve" smooth="yes"/>
      <point x="469" y="128"/>
      <point x="299" y="236"/>
      <point x="299" y="430" type="curve" smooth="yes"/>
      <point x="299" y="550"/>
      <point x="415" y="653"/>
      <point x="576" y="739" type="curve"/>
      <point x="995" y="289" type="line"/>
      <point x="905" y="193"/>
      <point x="795" y="128"/>
    </contour>
    <contour>
      <point x="612" y="955" type="curve"/>
      <point x="542" y="1025"/>
      <point x="457" y="1131"/>
      <point x="457" y="1226" type="curve" smooth="yes"/>
      <point x="457" y="1326"/>
      <point x="544" y="1366"/>
      <point x="634" y="1366" type="curve" smooth="yes"/>
      <point x="720" y="1366"/>
      <point x="806" y="1320"/>
      <point x="806" y="1226" type="curve" smooth="yes"/>
      <point x="806" y="1112"/>
      <point x="695" y="1032"/>
    </contour>
  </outline>
</glyph>
<glyph name="quotesingle" format="1">
  <advance width="596"/>
  <unicode hex="0027"/>
  <outline>
    <contour>
      <point x="297" y="982" type="curve" smooth="yes"/>
      <point x="325" y="982"/>
      <point x="354" y="996"/>
      <point x="358" y="1043" type="curve" smooth="yes"/>
      <point x="387" y="1407" type="line"/>
      <point x="387" y="1455"/>
      <point x="343" y="1479"/>
      <point x="298" y="1479" type="curve" smooth="yes"/>
      <point x="253" y="1479"/>
      <point x="208" y="1454"/>
      <point x="208" y="1407" type="curve" smooth="yes"/>
      <point x="208" y="1406"/>
      <point x="226" y="1175"/>
      <point x="238" y="1043" type="curve" smooth="yes"/>
      <point x="241" y="996"/>
      <point x="269" y="982"/>
    </contour>
  </outline>
</glyph>
<glyph name="parenleft" format="1">
  <advance width="610"/>
  <unicode hex="0028"/>
  <outline>
    <contour>
      <point x="432" y="-227" type="curve" smooth="yes"/>
      <point x="470" y="-227"/>
      <point x="504" y="-198"/>
      <point x="504" y="-156" type="curve" smooth="yes"/>
      <point x="504" y="-142"/>
      <point x="501" y="-128"/>
      <point x="496" y="-117" type="curve" smooth="yes"/>
      <point x="405" y="136"/>
      <point x="352" y="387"/>
      <point x="352" y="628" type="curve" smooth="yes"/>
      <point x="352" y="873"/>
      <point x="406" y="1128"/>
      <point x="498" y="1381" type="curve" smooth="yes"/>
      <point x="503" y="1394"/>
      <point x="506" y="1407"/>
      <point x="506" y="1419" type="curve" smooth="yes"/>
      <point x="506" y="1463"/>
      <point x="471" y="1492"/>
      <point x="432" y="1492" type="curve" smooth="yes"/>
      <point x="399" y="1492"/>
      <point x="368" y="1467"/>
      <point x="351" y="1423" type="curve" smooth="yes"/>
      <point x="245" y="1164"/>
      <point x="154" y="898"/>
      <point x="154" y="627" type="curve" smooth="yes"/>
      <point x="154" y="354"/>
      <point x="246" y="87"/>
      <point x="357" y="-174" type="curve"/>
      <point x="374" y="-213"/>
      <point x="404" y="-227"/>
    </contour>
  </outline>
</glyph>
<glyph name="parenright" format="1">
  <advance width="610"/>
  <unicode hex="0029"/>
  <outline>
    <contour>
      <point x="180" y="-228" type="curve" smooth="yes"/>
      <point x="208" y="-228"/>
      <point x="239" y="-213"/>
      <point x="256" y="-174" type="curve"/>
      <point x="367" y="86"/>
      <point x="460" y="353"/>
      <point x="460" y="627" type="curve" smooth="yes"/>
      <point x="460" y="897"/>
      <point x="368" y="1164"/>
      <point x="262" y="1423" type="curve"/>
      <point x="243" y="1467"/>
      <point x="214" y="1492"/>
      <point x="182" y="1492" type="curve" smooth="yes"/>
      <point x="143" y="1492"/>
      <point x="107" y="1461"/>
      <point x="107" y="1419" type="curve" smooth="yes"/>
      <point x="107" y="1406"/>
      <point x="110" y="1394"/>
      <point x="115" y="1381" type="curve" smooth="yes"/>
      <point x="207" y="1127"/>
      <point x="262" y="872"/>
      <point x="262" y="629" type="curve" smooth="yes"/>
      <point x="262" y="386"/>
      <point x="209" y="134"/>
      <point x="117" y="-117" type="curve" smooth="yes"/>
      <point x="112" y="-131"/>
      <point x="108" y="-144"/>
      <point x="108" y="-156" type="curve" smooth="yes"/>
      <point x="108" y="-198"/>
      <point x="142" y="-228"/>
    </contour>
  </outline>
</glyph>
<glyph name="asterisk" format="1">
  <advance width="1077"/>
  <unicode hex="002A"/>
  <outline>
    <contour>
      <point x="428" y="783" type="curve" smooth="yes"/>
      <point x="537" y="980" type="line"/>
      <point x="647" y="783" type="line" smooth="yes"/>
      <point x="693" y="699"/>
      <point x="801" y="774"/>
      <point x="757" y="851" type="curve" smooth="yes"/>
      <point x="642" y="1037" type="line"/>
      <point x="875" y="1029" type="line" smooth="yes"/>
      <point x="963" y="1029"/>
      <point x="963" y="1156"/>
      <point x="875" y="1156" type="curve" smooth="yes"/>
      <point x="644" y="1147" type="line"/>
      <point x="762" y="1337" type="line"/>
      <point x="802" y="1407"/>
      <point x="704" y="1488"/>
      <point x="648" y="1401" type="curve" smooth="yes"/>
      <point x="537" y="1199" type="line"/>
      <point x="425" y="1403" type="line" smooth="yes"/>
      <point x="379" y="1484"/>
      <point x="269" y="1411"/>
      <point x="314" y="1335" type="curve" smooth="yes"/>
      <point x="430" y="1147" type="line"/>
      <point x="202" y="1156" type="line" smooth="yes"/>
      <point x="114" y="1156"/>
      <point x="115" y="1029"/>
      <point x="202" y="1029" type="curve" smooth="yes"/>
      <point x="433" y="1037" type="line"/>
      <point x="315" y="847" type="line" smooth="yes"/>
      <point x="271" y="777"/>
      <point x="380" y="698"/>
    </contour>
  </outline>
</glyph>
<glyph name="plus" format="1">
  <advance width="1330"/>
  <unicode hex="002B"/>
  <outline>
    <contour>
      <point x="665" y="4" type="curve" smooth="yes"/>
      <point x="711" y="4"/>
      <point x="740" y="42"/>
      <point x="740" y="83" type="curve" smooth="yes"/>
      <point x="740" y="424" type="line"/>
      <point x="1096" y="424" type="line" smooth="yes"/>
      <point x="1141" y="424"/>
      <point x="1178" y="455"/>
      <point x="1178" y="498" type="curve" smooth="yes"/>
      <point x="1178" y="545"/>
      <point x="1139" y="572"/>
      <point x="1096" y="572" type="curve" smooth="yes"/>
      <point x="740" y="572" type="line"/>
      <point x="740" y="916" type="line" smooth="yes"/>
      <point x="740" y="960"/>
      <point x="709" y="996"/>
      <point x="665" y="996" type="curve" smooth="yes"/>
      <point x="616" y="996"/>
      <point x="589" y="958"/>
      <point x="589" y="916" type="curve" smooth="yes"/>
      <point x="589" y="572" type="line"/>
      <point x="233" y="572" type="line" smooth="yes"/>
      <point x="188" y="572"/>
      <point x="151" y="543"/>
      <point x="151" y="498" type="curve" smooth="yes"/>
      <point x="151" y="453"/>
      <point x="191" y="424"/>
      <point x="233" y="424" type="curve" smooth="yes"/>
      <point x="589" y="424" type="line"/>
      <point x="589" y="83" type="line" smooth="yes"/>
      <point x="589" y="37"/>
      <point x="619" y="4"/>
    </contour>
  </outline>
</glyph>
<glyph name="comma" format="1">
  <advance width="596"/>
  <unicode hex="002C"/>
  <outline>
    <contour>
      <point x="153" y="-333" type="curve"/>
      <point x="210" y="-333" type="line"/>
      <point x="239" y="-334"/>
      <point x="255" y="-322"/>
      <point x="266" y="-290" type="curve" smooth="yes"/>
      <point x="431" y="186" type="line" smooth="yes"/>
      <point x="436" y="200"/>
      <point x="439" y="239"/>
      <point x="397" y="242" type="curve"/>
      <point x="286" y="242" type="line"/>
      <point x="254" y="241"/>
      <point x="221" y="233"/>
      <point x="213" y="186" type="curve" smooth="yes"/>
      <point x="129" y="-290" type="line" smooth="yes"/>
      <point x="127" y="-302"/>
      <point x="125" y="-332"/>
    </contour>
  </outline>
</glyph>
<glyph name="hyphen" format="1">
  <advance width="678"/>
  <unicode hex="002D"/>
  <outline>
    <contour>
      <point x="121" y="456" type="curve" smooth="yes"/>
      <point x="558" y="456" type="line" smooth="yes"/>
      <point x="606" y="456"/>
      <point x="639" y="486"/>
      <point x="639" y="528" type="curve" smooth="yes"/>
      <point x="639" y="572"/>
      <point x="606" y="602"/>
      <point x="558" y="602" type="curve" smooth="yes"/>
      <point x="121" y="602" type="line" smooth="yes"/>
      <point x="72" y="602"/>
      <point x="39" y="572"/>
      <point x="39" y="528" type="curve" smooth="yes"/>
      <point x="39" y="486"/>
      <point x="73" y="456"/>
    </contour>
  </outline>
</glyph>
<glyph name="period" format="1">
  <advance width="596"/>
  <unicode hex="002E"/>
  <outline>
    <contour>
      <point x="298" y="-2" type="curve" smooth="yes"/>
      <point x="371" y="-2"/>
      <point x="417" y="51"/>
      <point x="417" y="109" type="curve" smooth="yes"/>
      <point x="417" y="166"/>
      <point x="370" y="218"/>
      <point x="298" y="218" type="curve" smooth="yes"/>
      <point x="223" y="218"/>
      <point x="178" y="164"/>
      <point x="178" y="109" type="curve" smooth="yes"/>
      <point x="178" y="50"/>
      <point x="225" y="-2"/>
    </contour>
  </outline>
</glyph>
<glyph name="slash" format="1">
  <advance width="750"/>
  <unicode hex="002F"/>
  <outline>
    <contour>
      <point x="133" y="-163" type="curve" smooth="yes"/>
      <point x="163" y="-163"/>
      <point x="191" y="-147"/>
      <point x="205" y="-110" type="curve"/>
      <point x="687" y="1337" type="line" smooth="yes"/>
      <point x="691" y="1348"/>
      <point x="692" y="1358"/>
      <point x="692" y="1366" type="curve" smooth="yes"/>
      <point x="692" y="1411"/>
      <point x="654" y="1437"/>
      <point x="616" y="1437" type="curve" smooth="yes"/>
      <point x="585" y="1437"/>
      <point x="554" y="1421"/>
      <point x="542" y="1383" type="curve" smooth="yes"/>
      <point x="63" y="-64" type="line" smooth="yes"/>
      <point x="59" y="-75"/>
      <point x="58" y="-84"/>
      <point x="58" y="-92" type="curve" smooth="yes"/>
      <point x="58" y="-137"/>
      <point x="95" y="-163"/>
    </contour>
  </outline>
</glyph>
<glyph name="zero" format="1">
  <advance width="1192"/>
  <unicode hex="0030"/>
  <outline>
    <contour>
      <point x="596" y="147" type="curve" smooth="yes"/>
      <point x="336" y="147"/>
      <point x="305" y="468"/>
      <point x="305" y="716" type="curve" smooth="yes"/>
      <point x="305" y="977"/>
      <point x="338" y="1286"/>
      <point x="596" y="1286" type="curve" smooth="yes"/>
      <point x="855" y="1286"/>
      <point x="888" y="976"/>
      <point x="888" y="716" type="curve" smooth="yes"/>
      <point x="888" y="470"/>
      <point x="856" y="147"/>
    </contour>
    <contour>
      <point x="596" y="-22" type="curve" smooth="yes"/>
      <point x="994" y="-22"/>
      <point x="1102" y="338"/>
      <point x="1102" y="716" type="curve" smooth="yes"/>
      <point x="1102" y="1109"/>
      <point x="991" y="1454"/>
      <point x="596" y="1454" type="curve" smooth="yes"/>
      <point x="201" y="1454"/>
      <point x="89" y="1110"/>
      <point x="89" y="716" type="curve" smooth="yes"/>
      <point x="89" y="336"/>
      <point x="197" y="-22"/>
    </contour>
  </outline>
</glyph>
<glyph name="one" format="1">
  <advance width="1181"/>
  <unicode hex="0031"/>
  <outline>
    <contour>
      <point x="661" y="0" type="curve" smooth="yes"/>
      <point x="713" y="0"/>
      <point x="766" y="33"/>
      <point x="766" y="99" type="curve" smooth="yes"/>
      <point x="765" y="1327" type="line" smooth="yes"/>
      <point x="765" y="1397"/>
      <point x="717" y="1430"/>
      <point x="666" y="1430" type="curve"/>
      <point x="647" y="1429"/>
      <point x="625" y="1425"/>
      <point x="608" y="1415" type="curve" smooth="yes"/>
      <point x="263" y="1200" type="line" smooth="yes"/>
      <point x="238" y="1184"/>
      <point x="228" y="1162"/>
      <point x="228" y="1140" type="curve" smooth="yes"/>
      <point x="228" y="1100"/>
      <point x="261" y="1063"/>
      <point x="304" y="1063" type="curve" smooth="yes"/>
      <point x="317" y="1063"/>
      <point x="331" y="1067"/>
      <point x="344" y="1075" type="curve" smooth="yes"/>
      <point x="557" y="1212" type="line"/>
      <point x="557" y="99" type="line" smooth="yes"/>
      <point x="557" y="33"/>
      <point x="609" y="0"/>
    </contour>
  </outline>
</glyph>
<glyph name="two" format="1">
  <advance width="1186"/>
  <unicode hex="0032"/>
  <outline>
    <contour>
      <point x="263" y="0" type="curve" smooth="yes"/>
      <point x="954" y="0" type="line" smooth="yes"/>
      <point x="1007" y="0"/>
      <point x="1033" y="39"/>
      <point x="1033" y="79" type="curve" smooth="yes"/>
      <point x="1033" y="119"/>
      <point x="1006" y="158"/>
      <point x="954" y="158" type="curve" smooth="yes"/>
      <point x="357" y="158" type="line"/>
      <point x="810" y="597" type="line" smooth="yes"/>
      <point x="981" y="754"/>
      <point x="1047" y="886"/>
      <point x="1047" y="1037" type="curve" smooth="yes"/>
      <point x="1047" y="1258"/>
      <point x="865" y="1439"/>
      <point x="613" y="1441" type="curve" smooth="yes"/>
      <point x="416" y="1442"/>
      <point x="303" y="1384"/>
      <point x="194" y="1317" type="curve" smooth="yes"/>
      <point x="99" y="1261"/>
      <point x="191" y="1135"/>
      <point x="266" y="1174" type="curve" smooth="yes"/>
      <point x="345" y="1216"/>
      <point x="407" y="1278"/>
      <point x="592" y="1278" type="curve" smooth="yes"/>
      <point x="733" y="1278"/>
      <point x="852" y="1178"/>
      <point x="852" y="1020" type="curve" smooth="yes"/>
      <point x="852" y="927"/>
      <point x="804" y="840"/>
      <point x="698" y="733" type="curve" smooth="yes"/>
      <point x="178" y="208" type="line" smooth="yes"/>
      <point x="84" y="112"/>
      <point x="138" y="0"/>
    </contour>
  </outline>
</glyph>
<glyph name="three" format="1">
  <advance width="1181"/>
  <unicode hex="0033"/>
  <outline>
    <contour>
      <point x="561" y="-22" type="curve" smooth="yes"/>
      <point x="817" y="-22"/>
      <point x="1053" y="99"/>
      <point x="1053" y="380" type="curve" smooth="yes"/>
      <point x="1053" y="567"/>
      <point x="951" y="705"/>
      <point x="780" y="748" type="curve"/>
      <point x="916" y="796"/>
      <point x="1019" y="899"/>
      <point x="1019" y="1067" type="curve" smooth="yes"/>
      <point x="1019" y="1327"/>
      <point x="808" y="1454"/>
      <point x="551" y="1454" type="curve" smooth="yes"/>
      <point x="400" y="1454"/>
      <point x="241" y="1401"/>
      <point x="186" y="1367" type="curve" smooth="yes"/>
      <point x="108" y="1321"/>
      <point x="183" y="1183"/>
      <point x="256" y="1219" type="curve" smooth="yes"/>
      <point x="314" y="1247"/>
      <point x="419" y="1286"/>
      <point x="546" y="1286" type="curve" smooth="yes"/>
      <point x="682" y="1286"/>
      <point x="809" y="1212"/>
      <point x="809" y="1060" type="curve" smooth="yes"/>
      <point x="809" y="896"/>
      <point x="679" y="816"/>
      <point x="503" y="816" type="curve" smooth="yes"/>
      <point x="435" y="816" type="line" smooth="yes"/>
      <point x="386" y="816"/>
      <point x="363" y="778"/>
      <point x="363" y="739" type="curve" smooth="yes"/>
      <point x="363" y="700"/>
      <point x="386" y="664"/>
      <point x="435" y="664" type="curve" smooth="yes"/>
      <point x="510" y="664" type="line" smooth="yes"/>
      <point x="698" y="664"/>
      <point x="843" y="555"/>
      <point x="843" y="380" type="curve" smooth="yes"/>
      <point x="843" y="226"/>
      <point x="720" y="147"/>
      <point x="550" y="147" type="curve" smooth="yes"/>
      <point x="432" y="147"/>
      <point x="338" y="184"/>
      <point x="276" y="213" type="curve" smooth="yes"/>
      <point x="195" y="246"/>
      <point x="115" y="109"/>
      <point x="222" y="55" type="curve" smooth="yes"/>
      <point x="308" y="10"/>
      <point x="430" y="-22"/>
    </contour>
  </outline>
</glyph>
<glyph name="four" format="1">
  <advance width="1181"/>
  <unicode hex="0034"/>
  <outline>
    <contour>
      <point x="843" y="-2" type="curve" smooth="yes"/>
      <point x="892" y="-2"/>
      <point x="943" y="30"/>
      <point x="943" y="92" type="curve" smooth="yes"/>
      <point x="943" y="307" type="line"/>
      <point x="1086" y="307" type="line" smooth="yes"/>
      <point x="1136" y="307"/>
      <point x="1161" y="346"/>
      <point x="1161" y="383" type="curve" smooth="yes"/>
      <point x="1161" y="421"/>
      <point x="1136" y="459"/>
      <point x="1086" y="459" type="curve" smooth="yes"/>
      <point x="944" y="459" type="line"/>
      <point x="944" y="1286" type="line" smooth="yes"/>
      <point x="944" y="1388"/>
      <point x="875" y="1430"/>
      <point x="798" y="1430" type="curve" smooth="yes"/>
      <point x="730" y="1430"/>
      <point x="673" y="1401"/>
      <point x="628" y="1330" type="curve" smooth="yes"/>
      <point x="87" y="476" type="line" smooth="yes"/>
      <point x="43" y="407"/>
      <point x="86" y="307"/>
      <point x="174" y="307" type="curve" smooth="yes"/>
      <point x="742" y="307" type="line"/>
      <point x="742" y="92" type="line" smooth="yes"/>
      <point x="742" y="30"/>
      <point x="795" y="-2"/>
    </contour>
    <contour>
      <point x="272" y="459" type="line"/>
      <point x="742" y="1217" type="line"/>
      <point x="742" y="459" type="line"/>
    </contour>
  </outline>
</glyph>
<glyph name="five" format="1">
  <advance width="1181"/>
  <unicode hex="0035"/>
  <outline>
    <contour>
      <point x="608" y="-22" type="curve" smooth="yes"/>
      <point x="891" y="-22"/>
      <point x="1096" y="160"/>
      <point x="1096" y="444" type="curve" smooth="yes"/>
      <point x="1096" y="711"/>
      <point x="923" y="901"/>
      <point x="655" y="901" type="curve" smooth="yes"/>
      <point x="441" y="901"/>
      <point x="346" y="790"/>
      <point x="346" y="790" type="curve"/>
      <point x="347" y="1263" type="line"/>
      <point x="937" y="1263" type="line" smooth="yes"/>
      <point x="989" y="1263"/>
      <point x="1013" y="1301"/>
      <point x="1013" y="1341" type="curve" smooth="yes"/>
      <point x="1013" y="1381"/>
      <point x="989" y="1421"/>
      <point x="937" y="1421" type="curve" smooth="yes"/>
      <point x="281" y="1421" type="line" smooth="yes"/>
      <point x="213" y="1421"/>
      <point x="180" y="1388"/>
      <point x="180" y="1327" type="curve" smooth="yes"/>
      <point x="180" y="679" type="line" smooth="yes"/>
      <point x="180" y="618"/>
      <point x="321" y="582"/>
      <point x="347" y="613" type="curve" smooth="yes"/>
      <point x="407" y="682"/>
      <point x="519" y="738"/>
      <point x="627" y="738" type="curve" smooth="yes"/>
      <point x="788" y="738"/>
      <point x="895" y="624"/>
      <point x="895" y="449" type="curve" smooth="yes"/>
      <point x="895" y="262"/>
      <point x="798" y="147"/>
      <point x="601" y="147" type="curve" smooth="yes"/>
      <point x="466" y="147"/>
      <point x="362" y="199"/>
      <point x="284" y="264" type="curve" smooth="yes"/>
      <point x="218" y="319"/>
      <point x="118" y="192"/>
      <point x="181" y="136" type="curve" smooth="yes"/>
      <point x="295" y="36"/>
      <point x="422" y="-22"/>
    </contour>
  </outline>
</glyph>
<glyph name="six" format="1">
  <advance width="1181"/>
  <unicode hex="0036"/>
  <outline>
    <contour>
      <point x="616" y="-22" type="curve" smooth="yes"/>
      <point x="917" y="-22"/>
      <point x="1103" y="179"/>
      <point x="1103" y="451" type="curve" smooth="yes"/>
      <point x="1103" y="719"/>
      <point x="924" y="905"/>
      <point x="647" y="905" type="curve" smooth="yes"/>
      <point x="469" y="906"/>
      <point x="334" y="807"/>
      <point x="303" y="709" type="curve" smooth="yes"/>
      <point x="303" y="1036"/>
      <point x="355" y="1286"/>
      <point x="671" y="1286" type="curve" smooth="yes"/>
      <point x="745" y="1286"/>
      <point x="833" y="1267"/>
      <point x="923" y="1226" type="curve" smooth="yes"/>
      <point x="1005" y="1189"/>
      <point x="1067" y="1342"/>
      <point x="985" y="1380" type="curve" smooth="yes"/>
      <point x="894" y="1425"/>
      <point x="785" y="1454"/>
      <point x="675" y="1454" type="curve" smooth="yes"/>
      <point x="169" y="1454"/>
      <point x="86" y="1011"/>
      <point x="86" y="630" type="curve" smooth="yes"/>
      <point x="86" y="289"/>
      <point x="211" y="-22"/>
    </contour>
    <contour>
      <point x="606" y="143" type="curve" smooth="yes"/>
      <point x="417" y="143"/>
      <point x="318" y="279"/>
      <point x="318" y="444" type="curve" smooth="yes"/>
      <point x="318" y="633"/>
      <point x="427" y="758"/>
      <point x="628" y="757" type="curve" smooth="yes"/>
      <point x="817" y="756"/>
      <point x="899" y="618"/>
      <point x="899" y="448" type="curve" smooth="yes"/>
      <point x="899" y="264"/>
      <point x="798" y="143"/>
    </contour>
  </outline>
</glyph>
<glyph name="seven" format="1">
  <advance width="1181"/>
  <unicode hex="0037"/>
  <outline>
    <contour>
      <point x="442" y="0" type="curve" smooth="yes"/>
      <point x="478" y="0"/>
      <point x="515" y="17"/>
      <point x="533" y="59" type="curve" smooth="yes"/>
      <point x="1041" y="1236" type="line" smooth="yes"/>
      <point x="1055" y="1265"/>
      <point x="1061" y="1299"/>
      <point x="1061" y="1325" type="curve" smooth="yes"/>
      <point x="1061" y="1383"/>
      <point x="1022" y="1423"/>
      <point x="944" y="1423" type="curve" smooth="yes"/>
      <point x="178" y="1423" type="line" smooth="yes"/>
      <point x="122" y="1423"/>
      <point x="95" y="1380"/>
      <point x="95" y="1339" type="curve" smooth="yes"/>
      <point x="95" y="1298"/>
      <point x="122" y="1256"/>
      <point x="178" y="1256" type="curve" smooth="yes"/>
      <point x="832" y="1256" type="line"/>
      <point x="346" y="142" type="line" smooth="yes"/>
      <point x="339" y="126"/>
      <point x="334" y="111"/>
      <point x="335" y="97" type="curve"/>
      <point x="335" y="40"/>
      <point x="388" y="0"/>
    </contour>
  </outline>
</glyph>
<glyph name="eight" format="1">
  <advance width="1181"/>
  <unicode hex="0038"/>
  <outline>
    <contour>
      <point x="590" y="-22" type="curve" smooth="yes"/>
      <point x="875" y="-22"/>
      <point x="1090" y="123"/>
      <point x="1090" y="384" type="curve" smooth="yes"/>
      <point x="1090" y="565"/>
      <point x="998" y="692"/>
      <point x="809" y="742" type="curve"/>
      <point x="975" y="782"/>
      <point x="1066" y="904"/>
      <point x="1066" y="1069" type="curve" smooth="yes"/>
      <point x="1066" y="1322"/>
      <point x="855" y="1454"/>
      <point x="590" y="1454" type="curve" smooth="yes"/>
      <point x="326" y="1454"/>
      <point x="115" y="1322"/>
      <point x="115" y="1069" type="curve" smooth="yes"/>
      <point x="115" y="908"/>
      <point x="199" y="784"/>
      <point x="374" y="742" type="curve"/>
      <point x="188" y="703"/>
      <point x="91" y="559"/>
      <point x="91" y="384" type="curve" smooth="yes"/>
      <point x="91" y="123"/>
      <point x="306" y="-22"/>
    </contour>
    <contour>
      <point x="590" y="137" type="curve" smooth="yes"/>
      <point x="433" y="137"/>
      <point x="301" y="207"/>
      <point x="301" y="384" type="curve" smooth="yes"/>
      <point x="301" y="564"/>
      <point x="432" y="651"/>
      <point x="590" y="651" type="curve" smooth="yes"/>
      <point x="748" y="651"/>
      <point x="879" y="564"/>
      <point x="879" y="384" type="curve" smooth="yes"/>
      <point x="879" y="207"/>
      <point x="748" y="137"/>
    </contour>
    <contour>
      <point x="590" y="837" type="curve" smooth="yes"/>
      <point x="423" y="837"/>
      <point x="314" y="917"/>
      <point x="314" y="1075" type="curve" smooth="yes"/>
      <point x="314" y="1243"/>
      <point x="449" y="1303"/>
      <point x="590" y="1303" type="curve" smooth="yes"/>
      <point x="733" y="1303"/>
      <point x="866" y="1243"/>
      <point x="866" y="1075" type="curve" smooth="yes"/>
      <point x="866" y="917"/>
      <point x="759" y="837"/>
    </contour>
  </outline>
</glyph>
<glyph name="nine" format="1">
  <advance width="1181"/>
  <unicode hex="0039"/>
  <outline>
    <contour>
      <point x="508" y="-22" type="curve" smooth="yes"/>
      <point x="1013" y="-22"/>
      <point x="1097" y="421"/>
      <point x="1097" y="802" type="curve" smooth="yes"/>
      <point x="1097" y="1143"/>
      <point x="972" y="1454"/>
      <point x="567" y="1454" type="curve" smooth="yes"/>
      <point x="266" y="1454"/>
      <point x="80" y="1253"/>
      <point x="80" y="981" type="curve" smooth="yes"/>
      <point x="80" y="714"/>
      <point x="259" y="528"/>
      <point x="536" y="527" type="curve" smooth="yes"/>
      <point x="714" y="526"/>
      <point x="849" y="625"/>
      <point x="880" y="724" type="curve" smooth="yes"/>
      <point x="880" y="396"/>
      <point x="828" y="147"/>
      <point x="512" y="147" type="curve" smooth="yes"/>
      <point x="438" y="147"/>
      <point x="350" y="166"/>
      <point x="260" y="206" type="curve" smooth="yes"/>
      <point x="178" y="243"/>
      <point x="116" y="91"/>
      <point x="197" y="52" type="curve" smooth="yes"/>
      <point x="288" y="7"/>
      <point x="398" y="-22"/>
    </contour>
    <contour>
      <point x="555" y="675" type="curve" smooth="yes"/>
      <point x="366" y="677"/>
      <point x="284" y="815"/>
      <point x="284" y="985" type="curve" smooth="yes"/>
      <point x="284" y="1169"/>
      <point x="385" y="1290"/>
      <point x="577" y="1290" type="curve" smooth="yes"/>
      <point x="766" y="1290"/>
      <point x="865" y="1153"/>
      <point x="865" y="988" type="curve" smooth="yes"/>
      <point x="865" y="799"/>
      <point x="756" y="674"/>
    </contour>
  </outline>
</glyph>
<glyph name="colon" format="1">
  <advance width="596"/>
  <unicode hex="003A"/>
  <outline>
    <contour>
      <point x="298" y="-2" type="curve" smooth="yes"/>
      <point x="371" y="-2"/>
      <point x="416" y="51"/>
      <point x="416" y="108" type="curve" smooth="yes"/>
      <point x="416" y="163"/>
      <point x="371" y="217"/>
      <point x="298" y="217" type="curve" smooth="yes"/>
      <point x="223" y="217"/>
      <point x="179" y="163"/>
      <point x="179" y="108" type="curve" smooth="yes"/>
      <point x="179" y="51"/>
      <point x="223" y="-2"/>
    </contour>
    <contour>
      <point x="298" y="791" type="curve" smooth="yes"/>
      <point x="371" y="791"/>
      <point x="416" y="842"/>
      <point x="416" y="900" type="curve" smooth="yes"/>
      <point x="416" y="957"/>
      <point x="371" y="1010"/>
      <point x="298" y="1010" type="curve" smooth="yes"/>
      <point x="223" y="1010"/>
      <point x="179" y="957"/>
      <point x="179" y="900" type="curve" smooth="yes"/>
      <point x="179" y="842"/>
      <point x="223" y="791"/>
    </contour>
  </outline>
</glyph>
<glyph name="semicolon" format="1">
  <advance width="602"/>
  <unicode hex="003B"/>
  <outline>
    <contour>
      <point x="329" y="800" type="curve" smooth="yes"/>
      <point x="407" y="800"/>
      <point x="454" y="855"/>
      <point x="454" y="918" type="curve" smooth="yes"/>
      <point x="454" y="979"/>
      <point x="404" y="1032"/>
      <point x="329" y="1032" type="curve" smooth="yes"/>
      <point x="252" y="1032"/>
      <point x="205" y="977"/>
      <point x="205" y="918" type="curve" smooth="yes"/>
      <point x="205" y="853"/>
      <point x="254" y="800"/>
    </contour>
    <component base="comma" xOffset="10" yOffset="109"/>
  </outline>
</glyph>
<glyph name="less" format="1">
  <advance width="1325"/>
  <unicode hex="003C"/>
  <outline>
    <contour>
      <point x="1063" y="30" type="line"/>
      <point x="1128" y="2"/>
      <point x="1181" y="139"/>
      <point x="1117" y="166" type="curve" smooth="yes"/>
      <point x="358" y="498" type="line"/>
      <point x="1114" y="814" type="line" smooth="yes"/>
      <point x="1199" y="849"/>
      <point x="1123" y="977"/>
      <point x="1059" y="950" type="curve" smooth="yes"/>
      <point x="206" y="590" type="line" smooth="yes"/>
      <point x="111" y="549"/>
      <point x="124" y="442"/>
      <point x="198" y="410" type="curve" smooth="yes"/>
    </contour>
  </outline>
</glyph>
<glyph name="equal" format="1">
  <advance width="1330"/>
  <unicode hex="003D"/>
  <outline>
    <contour>
      <point x="228" y="224" type="curve" smooth="yes"/>
      <point x="1095" y="224" type="line" smooth="yes"/>
      <point x="1140" y="224"/>
      <point x="1177" y="252"/>
      <point x="1177" y="296" type="curve" smooth="yes"/>
      <point x="1177" y="343"/>
      <point x="1140" y="371"/>
      <point x="1098" y="371" type="curve" smooth="yes"/>
      <point x="235" y="371" type="line" smooth="yes"/>
      <point x="190" y="371"/>
      <point x="151" y="343"/>
      <point x="151" y="296" type="curve" smooth="yes"/>
      <point x="151" y="256"/>
      <point x="186" y="224"/>
    </contour>
    <contour>
      <point x="228" y="625" type="curve" smooth="yes"/>
      <point x="1095" y="625" type="line" smooth="yes"/>
      <point x="1140" y="625"/>
      <point x="1177" y="655"/>
      <point x="1177" y="699" type="curve" smooth="yes"/>
      <point x="1177" y="747"/>
      <point x="1138" y="773"/>
      <point x="1095" y="773" type="curve" smooth="yes"/>
      <point x="235" y="773" type="line" smooth="yes"/>
      <point x="190" y="773"/>
      <point x="151" y="745"/>
      <point x="151" y="699" type="curve" smooth="yes"/>
      <point x="151" y="658"/>
      <point x="186" y="625"/>
    </contour>
  </outline>
</glyph>
<glyph name="greater" format="1">
  <advance width="1330"/>
  <unicode hex="003E"/>
  <outline>
    <contour>
      <point x="229" y="31" type="curve" smooth="yes"/>
      <point x="1103" y="416" type="line" smooth="yes"/>
      <point x="1172" y="446"/>
      <point x="1183" y="544"/>
      <point x="1097" y="580" type="curve" smooth="yes"/>
      <point x="233" y="946" type="line" smooth="yes"/>
      <point x="171" y="973"/>
      <point x="100" y="853"/>
      <point x="181" y="820" type="curve" smooth="yes"/>
      <point x="951" y="497" type="line"/>
      <point x="178" y="157" type="line" smooth="yes"/>
      <point x="118" y="131"/>
      <point x="167" y="3"/>
    </contour>
  </outline>
</glyph>
<glyph name="question" format="1">
  <advance width="1038"/>
  <unicode hex="003F"/>
  <outline>
    <contour>
      <point x="331" y="449" type="line"/>
      <point x="331" y="341"/>
      <point x="511" y="341"/>
      <point x="511" y="444" type="curve" smooth="yes"/>
      <point x="510" y="543" type="line" smooth="yes"/>
      <point x="510" y="699"/>
      <point x="903" y="789"/>
      <point x="903" y="1105" type="curve" smooth="yes"/>
      <point x="903" y="1361"/>
      <point x="714" y="1466"/>
      <point x="488" y="1466" type="curve" smooth="yes"/>
      <point x="395" y="1466"/>
      <point x="294" y="1453"/>
      <point x="199" y="1428" type="curve" smooth="yes"/>
      <point x="149" y="1415"/>
      <point x="129" y="1378"/>
      <point x="129" y="1343" type="curve" smooth="yes"/>
      <point x="129" y="1301"/>
      <point x="162" y="1256"/>
      <point x="207" y="1261" type="curve" smooth="yes"/>
      <point x="262" y="1269"/>
      <point x="399" y="1294"/>
      <point x="442" y="1294" type="curve" smooth="yes"/>
      <point x="568" y="1294"/>
      <point x="691" y="1256"/>
      <point x="691" y="1087" type="curve" smooth="yes"/>
      <point x="691" y="850"/>
      <point x="336" y="778"/>
      <point x="331" y="574" type="curve" smooth="yes"/>
    </contour>
    <contour>
      <point x="425" y="-19" type="curve" smooth="yes"/>
      <point x="499" y="-19"/>
      <point x="544" y="34"/>
      <point x="544" y="91" type="curve" smooth="yes"/>
      <point x="544" y="147"/>
      <point x="499" y="199"/>
      <point x="425" y="199" type="curve" smooth="yes"/>
      <point x="350" y="199"/>
      <point x="307" y="147"/>
      <point x="307" y="91" type="curve" smooth="yes"/>
      <point x="307" y="34"/>
      <point x="350" y="-19"/>
    </contour>
  </outline>
</glyph>
<glyph name="at" format="1">
  <advance width="1638"/>
  <unicode hex="0040"/>
  <outline>
    <contour>
      <point x="808" y="-26" type="curve" smooth="yes"/>
      <point x="911" y="-26"/>
      <point x="1018" y="-10"/>
      <point x="1129" y="24" type="curve" smooth="yes"/>
      <point x="1155" y="31"/>
      <point x="1167" y="54"/>
      <point x="1167" y="77" type="curve" smooth="yes"/>
      <point x="1167" y="105"/>
      <point x="1148" y="133"/>
      <point x="1110" y="133" type="curve" smooth="yes"/>
      <point x="1101" y="133"/>
      <point x="1092" y="132"/>
      <point x="1084" y="129" type="curve" smooth="yes"/>
      <point x="996" y="102"/>
      <point x="910" y="89"/>
      <point x="825" y="89" type="curve" smooth="yes"/>
      <point x="487" y="89"/>
      <point x="197" y="301"/>
      <point x="197" y="725" type="curve" smooth="yes"/>
      <point x="197" y="1150"/>
      <point x="563" y="1393"/>
      <point x="894" y="1393" type="curve" smooth="yes"/>
      <point x="1167" y="1393"/>
      <point x="1414" y="1228"/>
      <point x="1414" y="867" type="curve" smooth="yes"/>
      <point x="1414" y="643"/>
      <point x="1275" y="423"/>
      <point x="1127" y="423" type="curve" smooth="yes"/>
      <point x="1086" y="423"/>
      <point x="1073" y="442"/>
      <point x="1073" y="474" type="curve" smooth="yes"/>
      <point x="1073" y="502"/>
      <point x="1083" y="539"/>
      <point x="1097" y="584" type="curve" smooth="yes"/>
      <point x="1243" y="1059" type="line"/>
      <point x="1246" y="1068"/>
      <point x="1247" y="1076"/>
      <point x="1247" y="1084" type="curve" smooth="yes"/>
      <point x="1247" y="1122"/>
      <point x="1216" y="1141"/>
      <point x="1182" y="1141" type="curve" smooth="yes"/>
      <point x="1149" y="1141"/>
      <point x="1117" y="1124"/>
      <point x="1106" y="1088" type="curve" smooth="yes"/>
      <point x="1097" y="1058" type="line"/>
      <point x="1053" y="1146"/>
      <point x="961" y="1190"/>
      <point x="865" y="1190" type="curve" smooth="yes"/>
      <point x="572" y="1190"/>
      <point x="383" y="888"/>
      <point x="383" y="619" type="curve" smooth="yes"/>
      <point x="383" y="446"/>
      <point x="492" y="302"/>
      <point x="675" y="302" type="curve" smooth="yes"/>
      <point x="778" y="302"/>
      <point x="868" y="345"/>
      <point x="931" y="422" type="curve"/>
      <point x="946" y="341"/>
      <point x="1025" y="303"/>
      <point x="1096" y="303" type="curve" smooth="yes"/>
      <point x="1305" y="303"/>
      <point x="1553" y="548"/>
      <point x="1553" y="873" type="curve" smooth="yes"/>
      <point x="1553" y="1310"/>
      <point x="1234" y="1512"/>
      <point x="892" y="1512" type="curve" smooth="yes"/>
      <point x="490" y="1512"/>
      <point x="55" y="1235"/>
      <point x="55" y="737" type="curve" smooth="yes"/>
      <point x="55" y="258"/>
      <point x="379" y="-26"/>
    </contour>
    <contour>
      <point x="712" y="430" type="curve" smooth="yes"/>
      <point x="603" y="430"/>
      <point x="552" y="511"/>
      <point x="550" y="621" type="curve" smooth="yes"/>
      <point x="545" y="815"/>
      <point x="676" y="1058"/>
      <point x="871" y="1058" type="curve" smooth="yes"/>
      <point x="999" y="1058"/>
      <point x="1057" y="928"/>
      <point x="1057" y="928" type="curve" smooth="yes"/>
      <point x="966" y="614" type="line"/>
      <point x="933" y="506"/>
      <point x="818" y="430"/>
    </contour>
  </outline>
</glyph>
<glyph name="B" format="1">
  <advance width="1324"/>
  <unicode hex="0042"/>
  <outline>
    <contour>
      <point x="655" y="1438" type="move" name="top"/>
    </contour>
    <contour>
      <point x="280" y="0" type="curve" smooth="yes"/>
      <point x="744" y="0" type="line" smooth="yes"/>
      <point x="1082" y="0"/>
      <point x="1238" y="189"/>
      <point x="1238" y="383" type="curve" smooth="yes"/>
      <point x="1238" y="600"/>
      <point x="1102" y="719"/>
      <point x="893" y="744" type="curve"/>
      <point x="893" y="748" type="line"/>
      <point x="1084" y="774"/>
      <point x="1178" y="909"/>
      <point x="1178" y="1074" type="curve" smooth="yes"/>
      <point x="1178" y="1289"/>
      <point x="1033" y="1431"/>
      <point x="687" y="1431" type="curve" smooth="yes"/>
      <point x="280" y="1431" type="line" smooth="yes"/>
      <point x="223" y="1431"/>
      <point x="176" y="1386"/>
      <point x="176" y="1329" type="curve" smooth="yes"/>
      <point x="176" y="101" type="line" smooth="yes"/>
      <point x="176" y="45"/>
      <point x="223" y="0"/>
    </contour>
    <contour>
      <point x="386" y="164" type="line"/>
      <point x="386" y="654" type="line"/>
      <point x="631" y="654" type="line" smooth="yes"/>
      <point x="884" y="654"/>
      <point x="1019" y="610"/>
      <point x="1019" y="409" type="curve" smooth="yes"/>
      <point x="1019" y="209"/>
      <point x="912" y="164"/>
      <point x="703" y="164" type="curve" smooth="yes"/>
    </contour>
    <contour>
      <point x="386" y="816" type="line"/>
      <point x="386" y="1269" type="line"/>
      <point x="677" y="1269" type="line" smooth="yes"/>
      <point x="840" y="1269"/>
      <point x="974" y="1241"/>
      <point x="974" y="1060" type="curve" smooth="yes"/>
      <point x="974" y="885"/>
      <point x="876" y="816"/>
      <point x="655" y="816" type="curve" smooth="yes"/>
    </contour>
  </outline>
</glyph>
<glyph name="C" format="1">
  <advance width="1354"/>
  <unicode hex="0043"/>
  <outline>
    <contour>
      <point x="785" y="1438" type="move" name="top"/>
    </contour>
    <contour>
      <point x="772" y="6" type="move" name="bot"/>
    </contour>
    <contour>
      <point x="785" y="-22" type="curve" smooth="yes"/>
      <point x="973" y="-22"/>
      <point x="1094" y="30"/>
      <point x="1182" y="87" type="curve" smooth="yes"/>
      <point x="1290" y="156"/>
      <point x="1203" y="286"/>
      <point x="1117" y="237" type="curve" smooth="yes"/>
      <point x="1033" y="190"/>
      <point x="947" y="147"/>
      <point x="817" y="147" type="curve" smooth="yes"/>
      <point x="485" y="147"/>
      <point x="345" y="399"/>
      <point x="345" y="714" type="curve" smooth="yes"/>
      <point x="345" y="1029"/>
      <point x="486" y="1286"/>
      <point x="810" y="1286" type="curve" smooth="yes"/>
      <point x="976" y="1286"/>
      <point x="1053" y="1234"/>
      <point x="1099" y="1213" type="curve" smooth="yes"/>
      <point x="1187" y="1172"/>
      <point x="1265" y="1308"/>
      <point x="1165" y="1362" type="curve" smooth="yes"/>
      <point x="1087" y="1404"/>
      <point x="972" y="1454"/>
      <point x="803" y="1454" type="curve" smooth="yes"/>
      <point x="378" y="1454"/>
      <point x="121" y="1130"/>
      <point x="121" y="711" type="curve" smooth="yes"/>
      <point x="121" y="297"/>
      <point x="366" y="-22"/>
    </contour>
  </outline>
</glyph>
<glyph name="D" format="1">
  <advance width="1519"/>
  <unicode hex="0044"/>
  <outline>
    <contour>
      <point x="759" y="1438" type="move" name="top"/>
    </contour>
    <contour>
      <point x="302" y="739" type="move" name="mid"/>
    </contour>
    <contour>
      <point x="289" y="2" type="curve" smooth="yes"/>
      <point x="645" y="2" type="line" smooth="yes"/>
      <point x="1124" y="2"/>
      <point x="1403" y="250"/>
      <point x="1403" y="713" type="curve" smooth="yes"/>
      <point x="1403" y="1179"/>
      <point x="1139" y="1434"/>
      <point x="632" y="1434" type="curve" smooth="yes"/>
      <point x="289" y="1434" type="line" smooth="yes"/>
      <point x="226" y="1434"/>
      <point x="175" y="1384"/>
      <point x="175" y="1323" type="curve" smooth="yes"/>
      <point x="175" y="112" type="line" smooth="yes"/>
      <point x="175" y="51"/>
      <point x="226" y="2"/>
    </contour>
    <contour>
      <point x="402" y="182" type="line"/>
      <point x="402" y="1254" type="line"/>
      <point x="626" y="1254" type="line" smooth="yes"/>
      <point x="993" y="1254"/>
      <point x="1168" y="1111"/>
      <point x="1168" y="717" type="curve" smooth="yes"/>
      <point x="1168" y="361"/>
      <point x="1042" y="182"/>
      <point x="658" y="182" type="curve" smooth="yes"/>
    </contour>
  </outline>
</glyph>
<glyph name="E" format="1">
  <advance width="1243"/>
  <unicode hex="0045"/>
  <outline>
    <contour>
      <point x="653" y="1438" type="move" name="top"/>
    </contour>
    <contour>
      <point x="822" y="9" type="move" name="ogonek"/>
    </contour>
    <contour>
      <point x="280" y="0" type="curve" smooth="yes"/>
      <point x="1041" y="0" type="line" smooth="yes"/>
      <point x="1097" y="0"/>
      <point x="1124" y="42"/>
      <point x="1124" y="84" type="curve" smooth="yes"/>
      <point x="1124" y="125"/>
      <point x="1097" y="168"/>
      <point x="1041" y="168" type="curve" smooth="yes"/>
      <point x="388" y="168" type="line"/>
      <point x="388" y="653" type="line"/>
      <point x="981" y="653" type="line" smooth="yes"/>
      <point x="1036" y="653"/>
      <point x="1065" y="694"/>
      <point x="1065" y="735" type="curve" smooth="yes"/>
      <point x="1065" y="776"/>
      <point x="1038" y="817"/>
      <point x="981" y="817" type="curve" smooth="yes"/>
      <point x="388" y="817" type="line"/>
      <point x="388" y="1263" type="line"/>
      <point x="1015" y="1263" type="line" smooth="yes"/>
      <point x="1071" y="1263"/>
      <point x="1098" y="1305"/>
      <point x="1098" y="1347" type="curve" smooth="yes"/>
      <point x="1098" y="1388"/>
      <point x="1071" y="1431"/>
      <point x="1015" y="1431" type="curve" smooth="yes"/>
      <point x="276" y="1431" type="line" smooth="yes"/>
      <point x="219" y="1431"/>
      <point x="176" y="1381"/>
      <point x="176" y="1328" type="curve" smooth="yes"/>
      <point x="176" y="102" type="line" smooth="yes"/>
      <point x="176" y="48"/>
      <point x="227" y="0"/>
    </contour>
  </outline>
</glyph>
<glyph name="F" format="1">
  <advance width="1160"/>
  <unicode hex="0046"/>
  <outline>
    <contour>
      <point x="287" y="0" type="curve" smooth="yes"/>
      <point x="344" y="0"/>
      <point x="401" y="36"/>
      <point x="401" y="109" type="curve" smooth="yes"/>
      <point x="401" y="652" type="line"/>
      <point x="953" y="652" type="line" smooth="yes"/>
      <point x="1012" y="652"/>
      <point x="1041" y="696"/>
      <point x="1041" y="740" type="curve" smooth="yes"/>
      <point x="1041" y="784"/>
      <point x="1012" y="828"/>
      <point x="953" y="828" type="curve" smooth="yes"/>
      <point x="401" y="828" type="line"/>
      <point x="401" y="1252" type="line"/>
      <point x="980" y="1252" type="line" smooth="yes"/>
      <point x="1040" y="1252"/>
      <point x="1068" y="1299"/>
      <point x="1068" y="1343" type="curve" smooth="yes"/>
      <point x="1068" y="1386"/>
      <point x="1040" y="1433"/>
      <point x="980" y="1433" type="curve" smooth="yes"/>
      <point x="284" y="1433" type="line" smooth="yes"/>
      <point x="225" y="1433"/>
      <point x="174" y="1386"/>
      <point x="174" y="1321" type="curve" smooth="yes"/>
      <point x="174" y="109" type="line" smooth="yes"/>
      <point x="174" y="36"/>
      <point x="229" y="0"/>
    </contour>
  </outline>
</glyph>
<glyph name="G" format="1">
  <advance width="1465"/>
  <unicode hex="0047"/>
  <outline>
    <contour>
      <point x="843" y="1431" type="move" name="top"/>
    </contour>
    <contour>
      <point x="830" y="0" type="move" name="bot"/>
    </contour>
    <contour>
      <point x="811" y="-22" type="curve" smooth="yes"/>
      <point x="976" y="-22"/>
      <point x="1143" y="13"/>
      <point x="1265" y="52" type="curve" smooth="yes"/>
      <point x="1313" y="66"/>
      <point x="1347" y="103"/>
      <point x="1347" y="166" type="curve" smooth="yes"/>
      <point x="1347" y="662" type="line" smooth="yes"/>
      <point x="1347" y="719"/>
      <point x="1318" y="757"/>
      <point x="1262" y="757" type="curve" smooth="yes"/>
      <point x="875" y="757" type="line" smooth="yes"/>
      <point x="825" y="757"/>
      <point x="801" y="710"/>
      <point x="801" y="675" type="curve" smooth="yes"/>
      <point x="801" y="640"/>
      <point x="826" y="595"/>
      <point x="875" y="595" type="curve" smooth="yes"/>
      <point x="1137" y="595" type="line"/>
      <point x="1137" y="188" type="line"/>
      <point x="1044" y="164"/>
      <point x="927" y="147"/>
      <point x="827" y="147" type="curve" smooth="yes"/>
      <point x="493" y="147"/>
      <point x="345" y="378"/>
      <point x="345" y="720" type="curve" smooth="yes"/>
      <point x="345" y="1052"/>
      <point x="497" y="1286"/>
      <point x="846" y="1286" type="curve" smooth="yes"/>
      <point x="970" y="1286"/>
      <point x="1087" y="1255"/>
      <point x="1199" y="1224" type="curve"/>
      <point x="1204" y="1222"/>
      <point x="1216" y="1221"/>
      <point x="1219" y="1221" type="curve" smooth="yes"/>
      <point x="1266" y="1221"/>
      <point x="1294" y="1267"/>
      <point x="1294" y="1309" type="curve" smooth="yes"/>
      <point x="1294" y="1338"/>
      <point x="1280" y="1366"/>
      <point x="1246" y="1381" type="curve" smooth="yes"/>
      <point x="1130" y="1429"/>
      <point x="989" y="1454"/>
      <point x="839" y="1454" type="curve" smooth="yes"/>
      <point x="356" y="1454"/>
      <point x="121" y="1112"/>
      <point x="121" y="718" type="curve" smooth="yes"/>
      <point x="121" y="231"/>
      <point x="409" y="-22"/>
    </contour>
  </outline>
</glyph>
<glyph name="H" format="1">
  <advance width="1487"/>
  <unicode hex="0048"/>
  <outline>
    <contour>
      <point x="763" y="1438" type="move" name="top"/>
    </contour>
    <contour>
      <point x="281" y="1" type="curve" smooth="yes"/>
      <point x="335" y="1"/>
      <point x="388" y="34"/>
      <point x="388" y="102" type="curve" smooth="yes"/>
      <point x="388" y="658" type="line"/>
      <point x="1099" y="658" type="line"/>
      <point x="1099" y="102" type="line" smooth="yes"/>
      <point x="1099" y="34"/>
      <point x="1152" y="1"/>
      <point x="1204" y="1" type="curve" smooth="yes"/>
      <point x="1258" y="1"/>
      <point x="1311" y="34"/>
      <point x="1311" y="102" type="curve" smooth="yes"/>
      <point x="1311" y="1329" type="line" smooth="yes"/>
      <point x="1311" y="1396"/>
      <point x="1259" y="1430"/>
      <point x="1205" y="1430" type="curve" smooth="yes"/>
      <point x="1152" y="1430"/>
      <point x="1099" y="1395"/>
      <point x="1099" y="1329" type="curve" smooth="yes"/>
      <point x="1099" y="826" type="line"/>
      <point x="388" y="826" type="line"/>
      <point x="388" y="1329" type="line" smooth="yes"/>
      <point x="388" y="1396"/>
      <point x="335" y="1430"/>
      <point x="282" y="1430" type="curve" smooth="yes"/>
      <point x="229" y="1430"/>
      <point x="176" y="1395"/>
      <point x="176" y="1329" type="curve" smooth="yes"/>
      <point x="176" y="102" type="line" smooth="yes"/>
      <point x="176" y="34"/>
      <point x="228" y="1"/>
    </contour>
  </outline>
</glyph>
<glyph name="I" format="1">
  <advance width="609"/>
  <unicode hex="0049"/>
  <outline>
    <contour>
      <point x="309" y="1438" type="move" name="top"/>
    </contour>
    <contour>
      <point x="304" y="1" type="curve" smooth="yes"/>
      <point x="358" y="1"/>
      <point x="411" y="34"/>
      <point x="411" y="101" type="curve" smooth="yes"/>
      <point x="411" y="1330" type="line" smooth="yes"/>
      <point x="411" y="1398"/>
      <point x="359" y="1431"/>
      <point x="306" y="1431" type="curve" smooth="yes"/>
      <point x="253" y="1431"/>
      <point x="200" y="1397"/>
      <point x="200" y="1330" type="curve" smooth="yes"/>
      <point x="200" y="101" type="line" smooth="yes"/>
      <point x="200" y="34"/>
      <point x="252" y="1"/>
    </contour>
  </outline>
</glyph>
<glyph name="J" format="1">
  <advance width="1024"/>
  <unicode hex="004A"/>
  <outline>
    <contour>
      <point x="773" y="1438" type="move" name="top"/>
    </contour>
    <contour>
      <point x="429" y="-25" type="curve" smooth="yes"/>
      <point x="666" y="-25"/>
      <point x="879" y="103"/>
      <point x="879" y="442" type="curve" smooth="yes"/>
      <point x="879" y="1330" type="line" smooth="yes"/>
      <point x="879" y="1397"/>
      <point x="827" y="1431"/>
      <point x="774" y="1431" type="curve" smooth="yes"/>
      <point x="720" y="1431"/>
      <point x="667" y="1397"/>
      <point x="667" y="1330" type="curve" smooth="yes"/>
      <point x="667" y="458" type="line" smooth="yes"/>
      <point x="667" y="236"/>
      <point x="584" y="150"/>
      <point x="424" y="150" type="curve" smooth="yes"/>
      <point x="336" y="150"/>
      <point x="262" y="186"/>
      <point x="210" y="217" type="curve" smooth="yes"/>
      <point x="189" y="232"/>
      <point x="170" y="238"/>
      <point x="153" y="238" type="curve" smooth="yes"/>
      <point x="105" y="238"/>
      <point x="75" y="191"/>
      <point x="75" y="144" type="curve" smooth="yes"/>
      <point x="75" y="139"/>
      <point x="75" y="134"/>
      <point x="76" y="130" type="curve"/>
      <point x="80" y="106"/>
      <point x="91" y="85"/>
      <point x="113" y="71" type="curve" smooth="yes"/>
      <point x="173" y="29"/>
      <point x="266" y="-25"/>
    </contour>
  </outline>
</glyph>
<glyph name="K" format="1">
  <advance width="1255"/>
  <unicode hex="004B"/>
  <outline>
    <contour>
      <point x="641" y="1438" type="move" name="top"/>
    </contour>
    <contour>
      <point x="657" y="0" type="move" name="bot"/>
    </contour>
    <contour>
      <point x="280" y="0" type="curve" smooth="yes"/>
      <point x="333" y="0"/>
      <point x="386" y="33"/>
      <point x="386" y="100" type="curve" smooth="yes"/>
      <point x="386" y="709" type="line"/>
      <point x="1012" y="45" type="line" smooth="yes"/>
      <point x="1038" y="16"/>
      <point x="1064" y="0"/>
      <point x="1094" y="0" type="curve" smooth="yes"/>
      <point x="1149" y="0"/>
      <point x="1198" y="41"/>
      <point x="1198" y="96" type="curve" smooth="yes"/>
      <point x="1198" y="116"/>
      <point x="1193" y="138"/>
      <point x="1175" y="158" type="curve" smooth="yes"/>
      <point x="603" y="750" type="line"/>
      <point x="1122" y="1286" type="line" smooth="yes"/>
      <point x="1139" y="1302"/>
      <point x="1144" y="1324"/>
      <point x="1144" y="1343" type="curve" smooth="yes"/>
      <point x="1144" y="1392"/>
      <point x="1099" y="1430"/>
      <point x="1048" y="1430" type="curve" smooth="yes"/>
      <point x="1020" y="1430"/>
      <point x="994" y="1416"/>
      <point x="969" y="1389" type="curve" smooth="yes"/>
      <point x="386" y="768" type="line"/>
      <point x="386" y="1330" type="line" smooth="yes"/>
      <point x="386" y="1397"/>
      <point x="334" y="1431"/>
      <point x="282" y="1431" type="curve" smooth="yes"/>
      <point x="230" y="1431"/>
      <point x="177" y="1397"/>
      <point x="177" y="1330" type="curve" smooth="yes"/>
      <point x="177" y="100" type="line" smooth="yes"/>
      <point x="177" y="33"/>
      <point x="228" y="0"/>
    </contour>
  </outline>
</glyph>
<glyph name="L" format="1">
  <advance width="1108"/>
  <unicode hex="004C"/>
  <outline>
    <contour>
      <point x="450" y="1447" type="move" name="top"/>
    </contour>
    <contour>
      <point x="663" y="0" type="move" name="bot"/>
    </contour>
    <contour>
      <point x="283" y="0" type="curve" smooth="yes"/>
      <point x="1009" y="0" type="line" smooth="yes"/>
      <point x="1065" y="0"/>
      <point x="1094" y="42"/>
      <point x="1094" y="83" type="curve" smooth="yes"/>
      <point x="1094" y="125"/>
      <point x="1067" y="168"/>
      <point x="1009" y="168" type="curve" smooth="yes"/>
      <point x="388" y="168" type="line"/>
      <point x="388" y="1329" type="line" smooth="yes"/>
      <point x="388" y="1396"/>
      <point x="336" y="1430"/>
      <point x="283" y="1430" type="curve" smooth="yes"/>
      <point x="229" y="1430"/>
      <point x="176" y="1395"/>
      <point x="176" y="1329" type="curve" smooth="yes"/>
      <point x="176" y="104" type="line" smooth="yes"/>
      <point x="176" y="46"/>
      <point x="226" y="0"/>
    </contour>
  </outline>
</glyph>
<glyph name="M" format="1">
  <advance width="1909"/>
  <unicode hex="004D"/>
  <outline>
    <contour>
      <point x="977" y="1438" type="move" name="top"/>
    </contour>
    <contour>
      <point x="951" y="39" type="curve"/>
      <point x="951" y="289" type="line"/>
      <point x="510" y="1278" type="line" smooth="yes"/>
      <point x="423" y="1475"/>
      <point x="178" y="1408"/>
      <point x="178" y="1260" type="curve" smooth="yes"/>
      <point x="178" y="87" type="line" smooth="yes"/>
      <point x="178" y="-11"/>
      <point x="373" y="-10"/>
      <point x="373" y="87" type="curve" smooth="yes"/>
      <point x="373" y="1160" type="line"/>
      <point x="827" y="131" type="line" smooth="yes"/>
      <point x="854" y="70"/>
      <point x="904" y="39"/>
    </contour>
    <contour>
      <point x="952" y="39" type="line"/>
      <point x="999" y="39"/>
      <point x="1049" y="70"/>
      <point x="1076" y="131" type="curve" smooth="yes"/>
      <point x="1530" y="1160" type="line"/>
      <point x="1530" y="87" type="line" smooth="yes"/>
      <point x="1530" y="-10"/>
      <point x="1725" y="-11"/>
      <point x="1725" y="87" type="curve" smooth="yes"/>
      <point x="1725" y="1260" type="line" smooth="yes"/>
      <point x="1725" y="1408"/>
      <point x="1480" y="1475"/>
      <point x="1393" y="1278" type="curve" smooth="yes"/>
      <point x="952" y="289" type="line"/>
    </contour>
  </outline>
</glyph>
<glyph name="N" format="1">
  <advance width="1521"/>
  <unicode hex="004E"/>
  <outline>
    <contour>
      <point x="799" y="1438" type="move" name="top"/>
    </contour>
    <contour>
      <point x="786" y="0" type="move" name="bot"/>
    </contour>
    <contour>
      <point x="271" y="0" type="curve" smooth="yes"/>
      <point x="319" y="0"/>
      <point x="369" y="31"/>
      <point x="369" y="92" type="curve" smooth="yes"/>
      <point x="369" y="1113" type="line"/>
      <point x="1091" y="69" type="line" smooth="yes"/>
      <point x="1123" y="23"/>
      <point x="1178" y="0"/>
      <point x="1221" y="0" type="curve" smooth="yes"/>
      <point x="1289" y="0"/>
      <point x="1347" y="49"/>
      <point x="1347" y="134" type="curve" smooth="yes"/>
      <point x="1347" y="1338" type="line" smooth="yes"/>
      <point x="1347" y="1399"/>
      <point x="1298" y="1431"/>
      <point x="1250" y="1431" type="curve" smooth="yes"/>
      <point x="1201" y="1431"/>
      <point x="1153" y="1399"/>
      <point x="1153" y="1338" type="curve" smooth="yes"/>
      <point x="1153" y="306" type="line"/>
      <point x="432" y="1351" type="line" smooth="yes"/>
      <point x="394" y="1406"/>
      <point x="336" y="1430"/>
      <point x="292" y="1430" type="curve" smooth="yes"/>
      <point x="227" y="1430"/>
      <point x="174" y="1381"/>
      <point x="174" y="1297" type="curve" smooth="yes"/>
      <point x="174" y="92" type="line" smooth="yes"/>
      <point x="174" y="30"/>
      <point x="222" y="0"/>
    </contour>
  </outline>
</glyph>
<glyph name="O" format="1">
  <advance width="1600"/>
  <unicode hex="004F"/>
  <outline>
    <contour>
      <point x="801" y="1438" type="move" name="top"/>
    </contour>
    <contour>
      <point x="800" y="147" type="curve" smooth="yes"/>
      <point x="506" y="147"/>
      <point x="343" y="367"/>
      <point x="343" y="716" type="curve" smooth="yes"/>
      <point x="343" y="1063"/>
      <point x="506" y="1286"/>
      <point x="800" y="1286" type="curve" smooth="yes"/>
      <point x="1094" y="1286"/>
      <point x="1256" y="1063"/>
      <point x="1256" y="716" type="curve" smooth="yes"/>
      <point x="1256" y="367"/>
      <point x="1093" y="147"/>
    </contour>
    <contour>
      <point x="800" y="-22" type="curve" smooth="yes"/>
      <point x="1226" y="-22"/>
      <point x="1480" y="268"/>
      <point x="1480" y="716" type="curve" smooth="yes"/>
      <point x="1480" y="1164"/>
      <point x="1226" y="1454"/>
      <point x="800" y="1454" type="curve" smooth="yes"/>
      <point x="374" y="1454"/>
      <point x="120" y="1164"/>
      <point x="120" y="716" type="curve" smooth="yes"/>
      <point x="120" y="268"/>
      <point x="374" y="-22"/>
    </contour>
  </outline>
</glyph>
<glyph name="P" format="1">
  <advance width="1239"/>
  <unicode hex="0050"/>
  <outline>
    <contour>
      <point x="651" y="1438" type="move" name="top"/>
    </contour>
    <contour>
      <point x="282" y="0" type="curve" smooth="yes"/>
      <point x="335" y="0"/>
      <point x="388" y="33"/>
      <point x="388" y="101" type="curve" smooth="yes"/>
      <point x="388" y="610" type="line"/>
      <point x="690" y="610" type="line" smooth="yes"/>
      <point x="999" y="610"/>
      <point x="1214" y="711"/>
      <point x="1214" y="1020" type="curve" smooth="yes"/>
      <point x="1214" y="1323"/>
      <point x="1022" y="1431"/>
      <point x="708" y="1431" type="curve" smooth="yes"/>
      <point x="283" y="1431" type="line" smooth="yes"/>
      <point x="223" y="1431"/>
      <point x="176" y="1384"/>
      <point x="176" y="1326" type="curve" smooth="yes"/>
      <point x="176" y="101" type="line" smooth="yes"/>
      <point x="176" y="33"/>
      <point x="228" y="0"/>
    </contour>
    <contour>
      <point x="388" y="771" type="line"/>
      <point x="388" y="1263" type="line"/>
      <point x="698" y="1263" type="line" smooth="yes"/>
      <point x="907" y="1263"/>
      <point x="1007" y="1205"/>
      <point x="1007" y="1020" type="curve" smooth="yes"/>
      <point x="1007" y="832"/>
      <point x="900" y="771"/>
      <point x="687" y="771" type="curve" smooth="yes"/>
    </contour>
  </outline>
</glyph>
<glyph name="Q" format="1">
  <advance width="1600"/>
  <unicode hex="0051"/>
  <outline>
    <contour>
      <point x="800" y="-26" type="curve" smooth="yes"/>
      <point x="856" y="-26"/>
      <point x="904" y="-19"/>
      <point x="971" y="-4" type="curve"/>
      <point x="980" y="-4"/>
      <point x="1412" y="-2"/>
      <point x="1449" y="0" type="curve" smooth="yes"/>
      <point x="1503" y="2"/>
      <point x="1530" y="40"/>
      <point x="1530" y="82" type="curve" smooth="yes"/>
      <point x="1530" y="121"/>
      <point x="1503" y="161"/>
      <point x="1449" y="161" type="curve" smooth="yes"/>
      <point x="1239" y="161" type="line"/>
      <point x="1384" y="300"/>
      <point x="1475" y="494"/>
      <point x="1475" y="712" type="curve" smooth="yes"/>
      <point x="1475" y="1148"/>
      <point x="1241" y="1450"/>
      <point x="800" y="1450" type="curve" smooth="yes"/>
      <point x="358" y="1450"/>
      <point x="122" y="1143"/>
      <point x="122" y="708" type="curve" smooth="yes"/>
      <point x="122" y="267"/>
      <point x="367" y="-26"/>
    </contour>
    <contour>
      <point x="800" y="136" type="curve" smooth="yes"/>
      <point x="474" y="136"/>
      <point x="341" y="417"/>
      <point x="341" y="708" type="curve" smooth="yes"/>
      <point x="341" y="1020"/>
      <point x="482" y="1285"/>
      <point x="800" y="1285" type="curve" smooth="yes"/>
      <point x="1120" y="1285"/>
      <point x="1258" y="1013"/>
      <point x="1258" y="708" type="curve" smooth="yes"/>
      <point x="1258" y="405"/>
      <point x="1118" y="136"/>
    </contour>
  </outline>
</glyph>
<glyph name="R" format="1">
  <advance width="1380"/>
  <unicode hex="0052"/>
  <outline>
    <contour>
      <point x="681" y="1438" type="move" name="top"/>
    </contour>
    <contour>
      <point x="723" y="0" type="move" name="bot"/>
    </contour>
    <contour>
      <point x="281" y="1" type="curve" smooth="yes"/>
      <point x="333" y="1"/>
      <point x="388" y="33"/>
      <point x="388" y="101" type="curve" smooth="yes"/>
      <point x="388" y="650" type="line"/>
      <point x="713" y="650" type="line" smooth="yes"/>
      <point x="920" y="650"/>
      <point x="962" y="593"/>
      <point x="986" y="372" type="curve" smooth="yes"/>
      <point x="1017" y="95" type="line" smooth="yes"/>
      <point x="1023" y="31"/>
      <point x="1081" y="1"/>
      <point x="1131" y="1" type="curve" smooth="yes"/>
      <point x="1186" y="1"/>
      <point x="1237" y="43"/>
      <point x="1229" y="108" type="curve" smooth="yes"/>
      <point x="1194" y="417" type="line" smooth="yes"/>
      <point x="1174" y="588"/>
      <point x="1094" y="704"/>
      <point x="924" y="740" type="curve"/>
      <point x="924" y="744" type="line"/>
      <point x="1134" y="782"/>
      <point x="1229" y="911"/>
      <point x="1229" y="1070" type="curve" smooth="yes"/>
      <point x="1229" y="1368"/>
      <point x="972" y="1431"/>
      <point x="718" y="1431" type="curve" smooth="yes"/>
      <point x="282" y="1431" type="line" smooth="yes"/>
      <point x="224" y="1431"/>
      <point x="176" y="1384"/>
      <point x="176" y="1327" type="curve" smooth="yes"/>
      <point x="176" y="101" type="line" smooth="yes"/>
      <point x="176" y="34"/>
      <point x="228" y="1"/>
    </contour>
    <contour>
      <point x="388" y="812" type="line"/>
      <point x="388" y="1263" type="line"/>
      <point x="699" y="1263" type="line" smooth="yes"/>
      <point x="839" y="1263"/>
      <point x="1018" y="1255"/>
      <point x="1018" y="1049" type="curve" smooth="yes"/>
      <point x="1018" y="840"/>
      <point x="842" y="812"/>
      <point x="668" y="812" type="curve" smooth="yes"/>
    </contour>
  </outline>
</glyph>
<glyph name="S" format="1">
  <advance width="1290"/>
  <unicode hex="0053"/>
  <outline>
    <contour>
      <point x="654" y="1438" type="move" name="top"/>
    </contour>
    <contour>
      <point x="644" y="6" type="move" name="bot"/>
    </contour>
    <contour>
      <point x="639" y="-22" type="curve" smooth="yes"/>
      <point x="962" y="-22"/>
      <point x="1173" y="125"/>
      <point x="1179" y="378" type="curve" smooth="yes"/>
      <point x="1186" y="613"/>
      <point x="1044" y="709"/>
      <point x="820" y="782" type="curve" smooth="yes"/>
      <point x="527" y="877" type="line" smooth="yes"/>
      <point x="402" y="917"/>
      <point x="341" y="971"/>
      <point x="341" y="1075" type="curve" smooth="yes"/>
      <point x="341" y="1218"/>
      <point x="478" y="1286"/>
      <point x="667" y="1286" type="curve" smooth="yes"/>
      <point x="825" y="1286"/>
      <point x="958" y="1219"/>
      <point x="1018" y="1180" type="curve" smooth="yes"/>
      <point x="1104" y="1125"/>
      <point x="1185" y="1246"/>
      <point x="1120" y="1303" type="curve"/>
      <point x="1037" y="1377"/>
      <point x="852" y="1454"/>
      <point x="651" y="1454" type="curve" smooth="yes"/>
      <point x="362" y="1454"/>
      <point x="138" y="1310"/>
      <point x="138" y="1069" type="curve" smooth="yes"/>
      <point x="138" y="868"/>
      <point x="252" y="773"/>
      <point x="453" y="705" type="curve" smooth="yes"/>
      <point x="746" y="607" type="line" smooth="yes"/>
      <point x="900" y="556"/>
      <point x="974" y="508"/>
      <point x="974" y="369" type="curve" smooth="yes"/>
      <point x="974" y="218"/>
      <point x="829" y="147"/>
      <point x="647" y="147" type="curve" smooth="yes"/>
      <point x="468" y="147"/>
      <point x="333" y="216"/>
      <point x="251" y="278" type="curve" smooth="yes"/>
      <point x="194" y="320"/>
      <point x="95" y="191"/>
      <point x="143" y="149" type="curve" smooth="yes"/>
      <point x="242" y="59"/>
      <point x="401" y="-22"/>
    </contour>
  </outline>
</glyph>
<glyph name="T" format="1">
  <advance width="1174"/>
  <unicode hex="0054"/>
  <outline>
    <contour>
      <point x="602" y="1438" type="move" name="top"/>
    </contour>
    <contour>
      <point x="588" y="6" type="move" name="bot"/>
    </contour>
    <contour>
      <point x="594" y="724" type="move" name="mid"/>
    </contour>
    <contour>
      <point x="589" y="0" type="curve" smooth="yes"/>
      <point x="642" y="0"/>
      <point x="695" y="34"/>
      <point x="695" y="102" type="curve" smooth="yes"/>
      <point x="695" y="1263" type="line"/>
      <point x="1062" y="1263" type="line" smooth="yes"/>
      <point x="1118" y="1263"/>
      <point x="1147" y="1305"/>
      <point x="1147" y="1347" type="curve" smooth="yes"/>
      <point x="1147" y="1389"/>
      <point x="1119" y="1431"/>
      <point x="1062" y="1431" type="curve" smooth="yes"/>
      <point x="111" y="1431" type="line" smooth="yes"/>
      <point x="55" y="1431"/>
      <point x="26" y="1389"/>
      <point x="26" y="1346" type="curve" smooth="yes"/>
      <point x="26" y="1305"/>
      <point x="55" y="1263"/>
      <point x="111" y="1263" type="curve" smooth="yes"/>
      <point x="483" y="1263" type="line"/>
      <point x="483" y="102" type="line" smooth="yes"/>
      <point x="483" y="34"/>
      <point x="535" y="0"/>
    </contour>
  </outline>
</glyph>
<glyph name="U" format="1">
  <advance width="1499"/>
  <unicode hex="0055"/>
  <outline>
    <contour>
      <point x="764" y="1438" type="move" name="top"/>
    </contour>
    <contour>
      <point x="874" y="9" type="move" name="ogonek"/>
    </contour>
    <contour>
      <point x="749" y="-22" type="curve" smooth="yes"/>
      <point x="1050" y="-22"/>
      <point x="1319" y="146"/>
      <point x="1319" y="498" type="curve" smooth="yes"/>
      <point x="1319" y="1332" type="line" smooth="yes"/>
      <point x="1319" y="1400"/>
      <point x="1267" y="1434"/>
      <point x="1214" y="1434" type="curve" smooth="yes"/>
      <point x="1160" y="1434"/>
      <point x="1107" y="1399"/>
      <point x="1107" y="1332" type="curve" smooth="yes"/>
      <point x="1107" y="503" type="line" smooth="yes"/>
      <point x="1107" y="257"/>
      <point x="928" y="147"/>
      <point x="749" y="147" type="curve" smooth="yes"/>
      <point x="571" y="147"/>
      <point x="392" y="257"/>
      <point x="392" y="503" type="curve" smooth="yes"/>
      <point x="392" y="1332" type="line" smooth="yes"/>
      <point x="392" y="1400"/>
      <point x="340" y="1434"/>
      <point x="287" y="1434" type="curve" smooth="yes"/>
      <point x="233" y="1434"/>
      <point x="181" y="1399"/>
      <point x="181" y="1332" type="curve" smooth="yes"/>
      <point x="181" y="498" type="line" smooth="yes"/>
      <point x="181" y="146"/>
      <point x="448" y="-22"/>
    </contour>
  </outline>
</glyph>
<glyph name="V" format="1">
  <advance width="1318"/>
  <unicode hex="0056"/>
  <outline>
    <contour>
      <point x="665" y="-9" type="curve"/>
      <point x="665" y="219" type="line"/>
      <point x="257" y="1367" type="line" smooth="yes"/>
      <point x="214" y="1491"/>
      <point x="18" y="1427"/>
      <point x="61" y="1309" type="curve" smooth="yes"/>
      <point x="487" y="138" type="line" smooth="yes"/>
      <point x="526" y="30"/>
      <point x="584" y="-9"/>
    </contour>
    <contour>
      <point x="665" y="-9" type="line"/>
      <point x="745" y="-9"/>
      <point x="804" y="30"/>
      <point x="842" y="138" type="curve" smooth="yes"/>
      <point x="1268" y="1309" type="line" smooth="yes"/>
      <point x="1311" y="1427"/>
      <point x="1116" y="1491"/>
      <point x="1072" y="1367" type="curve" smooth="yes"/>
      <point x="665" y="219" type="line"/>
    </contour>
  </outline>
</glyph>
<glyph name="W" format="1">
  <advance width="2105"/>
  <unicode hex="0057"/>
  <outline>
    <contour>
      <point x="1048" y="1438" type="move" name="top"/>
    </contour>
    <contour>
      <point x="385" y="125" type="line"/>
      <point x="409" y="38"/>
      <point x="673" y="43"/>
      <point x="698" y="123" type="curve" smooth="yes"/>
      <point x="1049" y="1191" type="line"/>
      <point x="1049" y="1431" type="line"/>
      <point x="985" y="1431"/>
      <point x="930" y="1386"/>
      <point x="905" y="1308" type="curve" smooth="yes"/>
      <point x="552" y="215" type="line"/>
      <point x="257" y="1361" type="line" smooth="yes"/>
      <point x="227" y="1480"/>
      <point x="25" y="1443"/>
      <point x="62" y="1307" type="curve" smooth="yes"/>
    </contour>
    <contour>
      <point x="1712" y="125" type="curve" smooth="yes"/>
      <point x="2036" y="1307" type="line" smooth="yes"/>
      <point x="2072" y="1443"/>
      <point x="1871" y="1480"/>
      <point x="1840" y="1361" type="curve" smooth="yes"/>
      <point x="1545" y="215" type="line"/>
      <point x="1192" y="1308" type="line" smooth="yes"/>
      <point x="1168" y="1386"/>
      <point x="1112" y="1431"/>
      <point x="1049" y="1431" type="curve"/>
      <point x="1049" y="1191" type="line"/>
      <point x="1399" y="123" type="line" smooth="yes"/>
      <point x="1425" y="43"/>
      <point x="1689" y="38"/>
    </contour>
  </outline>
</glyph>
<glyph name="X" format="1">
  <advance width="1301"/>
  <unicode hex="0058"/>
  <outline>
    <contour>
      <point x="253" y="44" type="curve" smooth="yes"/>
      <point x="662" y="585" type="line"/>
      <point x="775" y="704" type="line"/>
      <point x="1219" y="1293" type="line" smooth="yes"/>
      <point x="1296" y="1394"/>
      <point x="1147" y="1507"/>
      <point x="1054" y="1385" type="curve" smooth="yes"/>
      <point x="652" y="857" type="line"/>
      <point x="544" y="740" type="line"/>
      <point x="89" y="152" type="line" smooth="yes"/>
      <point x="4" y="42"/>
      <point x="165" y="-72"/>
    </contour>
    <contour>
      <point x="1032" y="39" type="line"/>
      <point x="1111" y="-69"/>
      <point x="1294" y="41"/>
      <point x="1209" y="156" type="curve" smooth="yes"/>
      <point x="298" y="1388" type="line" smooth="yes"/>
      <point x="207" y="1509"/>
      <point x="41" y="1373"/>
      <point x="116" y="1273" type="curve" smooth="yes"/>
    </contour>
  </outline>
</glyph>
<glyph name="Y" format="1">
  <advance width="1287"/>
  <unicode hex="0059"/>
  <outline>
    <contour>
      <point x="664" y="1438" type="move" name="top"/>
    </contour>
    <contour>
      <point x="538" y="102" type="line"/>
      <point x="538" y="-33"/>
      <point x="749" y="-33"/>
      <point x="749" y="102" type="curve" smooth="yes"/>
      <point x="749" y="601" type="line"/>
      <point x="1200" y="1300" type="line" smooth="yes"/>
      <point x="1266" y="1402"/>
      <point x="1112" y="1488"/>
      <point x="1046" y="1382" type="curve" smooth="yes"/>
      <point x="655" y="760" type="line"/>
      <point x="268" y="1377" type="line" smooth="yes"/>
      <point x="195" y="1493"/>
      <point x="22" y="1389"/>
      <point x="89" y="1286" type="curve" smooth="yes"/>
      <point x="538" y="594" type="line"/>
    </contour>
  </outline>
</glyph>
<glyph name="Z" format="1">
  <advance width="1177"/>
  <unicode hex="005A"/>
  <outline>
    <contour>
      <point x="640" y="1438" type="move" name="top"/>
    </contour>
    <contour>
      <point x="208" y="0" type="curve" smooth="yes"/>
      <point x="1035" y="0" type="line" smooth="yes"/>
      <point x="1091" y="0"/>
      <point x="1119" y="43"/>
      <point x="1119" y="84" type="curve" smooth="yes"/>
      <point x="1119" y="126"/>
      <point x="1091" y="168"/>
      <point x="1035" y="168" type="curve" smooth="yes"/>
      <point x="338" y="168" type="line"/>
      <point x="1101" y="1265" type="line" smooth="yes"/>
      <point x="1119" y="1290"/>
      <point x="1126" y="1316"/>
      <point x="1126" y="1339" type="curve" smooth="yes"/>
      <point x="1126" y="1391"/>
      <point x="1088" y="1431"/>
      <point x="1026" y="1431" type="curve" smooth="yes"/>
      <point x="185" y="1431" type="line" smooth="yes"/>
      <point x="129" y="1431"/>
      <point x="102" y="1389"/>
      <point x="102" y="1347" type="curve" smooth="yes"/>
      <point x="102" y="1306"/>
      <point x="130" y="1263"/>
      <point x="185" y="1263" type="curve" smooth="yes"/>
      <point x="877" y="1263" type="line"/>
      <point x="115" y="166" type="line" smooth="yes"/>
      <point x="100" y="145"/>
      <point x="92" y="122"/>
      <point x="92" y="97" type="curve" smooth="yes"/>
      <point x="92" y="47"/>
      <point x="127" y="0"/>
    </contour>
  </outline>
</glyph>
<glyph name="bracketleft" format="1">
  <advance width="657"/>
  <unicode hex="005B"/>
  <outline>
    <contour>
      <point x="271" y="-212" type="curve" smooth="yes"/>
      <point x="477" y="-212" type="line"/>
      <point x="527" y="-210"/>
      <point x="552" y="-173"/>
      <point x="552" y="-135" type="curve" smooth="yes"/>
      <point x="552" y="-98"/>
      <point x="527" y="-61"/>
      <point x="477" y="-61" type="curve" smooth="yes"/>
      <point x="368" y="-61" type="line"/>
      <point x="368" y="1283" type="line"/>
      <point x="477" y="1283" type="line" smooth="yes"/>
      <point x="526" y="1283"/>
      <point x="552" y="1321"/>
      <point x="552" y="1358" type="curve" smooth="yes"/>
      <point x="552" y="1397"/>
      <point x="527" y="1433"/>
      <point x="477" y="1433" type="curve" smooth="yes"/>
      <point x="271" y="1433" type="line" smooth="yes"/>
      <point x="214" y="1433"/>
      <point x="172" y="1388"/>
      <point x="172" y="1335" type="curve" smooth="yes"/>
      <point x="172" y="-115" type="line" smooth="yes"/>
      <point x="172" y="-168"/>
      <point x="214" y="-212"/>
    </contour>
  </outline>
</glyph>
<glyph name="backslash" format="1">
  <advance width="602"/>
  <unicode hex="005C"/>
  <outline>
    <contour>
      <point x="543" y="-100" type="curve" smooth="yes"/>
      <point x="581" y="-100"/>
      <point x="618" y="-73"/>
      <point x="618" y="-29" type="curve" smooth="yes"/>
      <point x="618" y="-20"/>
      <point x="617" y="-11"/>
      <point x="614" y="-1" type="curve"/>
      <point x="134" y="1447" type="line"/>
      <point x="121" y="1484"/>
      <point x="91" y="1500"/>
      <point x="60" y="1500" type="curve" smooth="yes"/>
      <point x="21" y="1500"/>
      <point x="-17" y="1474"/>
      <point x="-17" y="1430" type="curve" smooth="yes"/>
      <point x="-17" y="1422"/>
      <point x="-15" y="1412"/>
      <point x="-11" y="1401" type="curve" smooth="yes"/>
      <point x="472" y="-47" type="line" smooth="yes"/>
      <point x="484" y="-84"/>
      <point x="513" y="-100"/>
    </contour>
  </outline>
</glyph>
<glyph name="bracketright" format="1">
  <advance width="643"/>
  <unicode hex="005D"/>
  <outline>
    <contour>
      <point x="177" y="-208" type="curve"/>
      <point x="376" y="-208" type="line" smooth="yes"/>
      <point x="428" y="-208"/>
      <point x="469" y="-167"/>
      <point x="469" y="-117" type="curve" smooth="yes"/>
      <point x="469" y="1339" type="line" smooth="yes"/>
      <point x="469" y="1389"/>
      <point x="428" y="1431"/>
      <point x="376" y="1431" type="curve" smooth="yes"/>
      <point x="177" y="1431" type="line" smooth="yes"/>
      <point x="129" y="1431"/>
      <point x="106" y="1396"/>
      <point x="106" y="1360" type="curve" smooth="yes"/>
      <point x="106" y="1325"/>
      <point x="130" y="1290"/>
      <point x="177" y="1290" type="curve" smooth="yes"/>
      <point x="284" y="1290" type="line"/>
      <point x="284" y="-66" type="line"/>
      <point x="177" y="-66" type="line" smooth="yes"/>
      <point x="130" y="-66"/>
      <point x="106" y="-100"/>
      <point x="106" y="-136" type="curve" smooth="yes"/>
      <point x="106" y="-171"/>
      <point x="130" y="-207"/>
    </contour>
  </outline>
</glyph>
<glyph name="asciicircum" format="1">
  <advance width="1330"/>
  <unicode hex="005E"/>
  <outline>
    <contour>
      <point x="258" y="500" type="curve" smooth="yes"/>
      <point x="287" y="500"/>
      <point x="314" y="518"/>
      <point x="330" y="555" type="curve"/>
      <point x="666" y="1231" type="line"/>
      <point x="1001" y="555" type="line" smooth="yes"/>
      <point x="1019" y="520"/>
      <point x="1043" y="501"/>
      <point x="1074" y="501" type="curve" smooth="yes"/>
      <point x="1114" y="501"/>
      <point x="1151" y="531"/>
      <point x="1151" y="572" type="curve" smooth="yes"/>
      <point x="1151" y="583"/>
      <point x="1146" y="598"/>
      <point x="1140" y="611" type="curve"/>
      <point x="766" y="1342" type="line" smooth="yes"/>
      <point x="742" y="1388"/>
      <point x="709" y="1412"/>
      <point x="667" y="1412" type="curve" smooth="yes"/>
      <point x="625" y="1412"/>
      <point x="590" y="1385"/>
      <point x="568" y="1342" type="curve" smooth="yes"/>
      <point x="192" y="611" type="line"/>
      <point x="186" y="598"/>
      <point x="181" y="583"/>
      <point x="181" y="571" type="curve" smooth="yes"/>
      <point x="181" y="528"/>
      <point x="219" y="500"/>
    </contour>
  </outline>
</glyph>
<glyph name="underscore" format="1">
  <advance width="1024"/>
  <unicode hex="005F"/>
  <outline>
    <contour>
      <point x="57" y="-254" type="curve" smooth="yes"/>
      <point x="963" y="-254" type="line" smooth="yes"/>
      <point x="1003" y="-254"/>
      <point x="1023" y="-224"/>
      <point x="1023" y="-193" type="curve" smooth="yes"/>
      <point x="1023" y="-162"/>
      <point x="1003" y="-132"/>
      <point x="963" y="-132" type="curve" smooth="yes"/>
      <point x="57" y="-132" type="line" smooth="yes"/>
      <point x="19" y="-132"/>
      <point x="-1" y="-162"/>
      <point x="-1" y="-193" type="curve" smooth="yes"/>
      <point x="-1" y="-224"/>
      <point x="19" y="-254"/>
    </contour>
  </outline>
</glyph>
<glyph name="grave" format="1">
  <advance width="569"/>
  <unicode hex="0060"/>
  <outline>
    <contour>
      <point x="446" y="1040" type="move" name="_top"/>
    </contour>
    <contour>
      <point x="460" y="1194" type="curve" smooth="yes"/>
      <point x="485" y="1194"/>
      <point x="502" y="1214"/>
      <point x="502" y="1238" type="curve" smooth="yes"/>
      <point x="502" y="1250"/>
      <point x="497" y="1262"/>
      <point x="488" y="1274" type="curve" smooth="yes"/>
      <point x="234" y="1571" type="line" smooth="yes"/>
      <point x="214" y="1595"/>
      <point x="194" y="1606"/>
      <point x="171" y="1606" type="curve" smooth="yes"/>
      <point x="122" y="1606"/>
      <point x="71" y="1558"/>
      <point x="71" y="1511" type="curve" smooth="yes"/>
      <point x="71" y="1493"/>
      <point x="79" y="1476"/>
      <point x="96" y="1462" type="curve" smooth="yes"/>
      <point x="412" y="1214" type="line" smooth="yes"/>
      <point x="428" y="1201"/>
      <point x="445" y="1194"/>
    </contour>
  </outline>
</glyph>
<glyph name="a" format="1">
  <advance width="1051"/>
  <unicode hex="0061"/>
  <outline>
    <contour>
      <point x="524" y="995" type="move" name="top"/>
    </contour>
    <contour>
      <point x="806" y="16" type="move" name="ogonek"/>
    </contour>
    <contour>
      <point x="421" y="-17" type="curve" smooth="yes"/>
      <point x="596" y="-17"/>
      <point x="680" y="77"/>
      <point x="726" y="173" type="curve"/>
      <point x="726" y="85" type="line" smooth="yes"/>
      <point x="726" y="-32"/>
      <point x="911" y="-27"/>
      <point x="911" y="87" type="curve" smooth="yes"/>
      <point x="911" y="664" type="line" smooth="yes"/>
      <point x="911" y="912"/>
      <point x="751" y="1013"/>
      <point x="519" y="1013" type="curve" smooth="yes"/>
      <point x="358" y="1013"/>
      <point x="239" y="977"/>
      <point x="150" y="927" type="curve" smooth="yes"/>
      <point x="82" y="890"/>
      <point x="143" y="782"/>
      <point x="211" y="812" type="curve" smooth="yes"/>
      <point x="287" y="845"/>
      <point x="383" y="886"/>
      <point x="513" y="886" type="curve" smooth="yes"/>
      <point x="642" y="886"/>
      <point x="724" y="826"/>
      <point x="724" y="680" type="curve" smooth="yes"/>
      <point x="724" y="575" type="line"/>
      <point x="247" y="575"/>
      <point x="68" y="539"/>
      <point x="68" y="271" type="curve" smooth="yes"/>
      <point x="68" y="80"/>
      <point x="220" y="-17"/>
    </contour>
    <contour>
      <point x="440" y="107" type="curve" smooth="yes"/>
      <point x="328" y="107"/>
      <point x="246" y="156"/>
      <point x="247" y="280" type="curve" smooth="yes"/>
      <point x="248" y="439"/>
      <point x="342" y="467"/>
      <point x="723" y="467" type="curve"/>
      <point x="723" y="438" type="line" smooth="yes"/>
      <point x="723" y="239"/>
      <point x="584" y="107"/>
    </contour>
  </outline>
</glyph>
<glyph name="b" format="1">
  <advance width="1193"/>
  <unicode hex="0062"/>
  <outline>
    <contour>
      <point x="679" y="-17" type="curve" smooth="yes"/>
      <point x="966" y="-17"/>
      <point x="1109" y="228"/>
      <point x="1109" y="504" type="curve" smooth="yes"/>
      <point x="1109" y="790"/>
      <point x="947" y="1013"/>
      <point x="664" y="1013" type="curve" smooth="yes"/>
      <point x="517" y="1013"/>
      <point x="400" y="950"/>
      <point x="338" y="830" type="curve"/>
      <point x="338" y="1342" type="line" smooth="yes"/>
      <point x="338" y="1400"/>
      <point x="291" y="1430"/>
      <point x="244" y="1430" type="curve" smooth="yes"/>
      <point x="196" y="1430"/>
      <point x="150" y="1400"/>
      <point x="150" y="1342" type="curve" smooth="yes"/>
      <point x="150" y="90" type="line" smooth="yes"/>
      <point x="150" y="32"/>
      <point x="197" y="2"/>
      <point x="244" y="2" type="curve" smooth="yes"/>
      <point x="306" y="2"/>
      <point x="338" y="35"/>
      <point x="338" y="90" type="curve" smooth="yes"/>
      <point x="338" y="173" type="line"/>
      <point x="405" y="43"/>
      <point x="530" y="-17"/>
    </contour>
    <contour>
      <point x="644" y="111" type="curve" smooth="yes"/>
      <point x="411" y="111"/>
      <point x="339" y="278"/>
      <point x="339" y="502" type="curve" smooth="yes"/>
      <point x="339" y="693"/>
      <point x="421" y="885"/>
      <point x="635" y="885" type="curve" smooth="yes"/>
      <point x="851" y="885"/>
      <point x="921" y="679"/>
      <point x="921" y="500" type="curve" smooth="yes"/>
      <point x="921" y="331"/>
      <point x="859" y="113"/>
    </contour>
  </outline>
</glyph>
<glyph name="c" format="1">
  <advance width="960"/>
  <unicode hex="0063"/>
  <outline>
    <contour>
      <point x="567" y="1006" type="move" name="top"/>
    </contour>
    <contour>
      <point x="530" y="6" type="move" name="bot"/>
    </contour>
    <contour>
      <point x="560" y="-18" type="curve" smooth="yes"/>
      <point x="706" y="-18"/>
      <point x="808" y="24"/>
      <point x="864" y="70" type="curve" smooth="yes"/>
      <point x="944" y="136"/>
      <point x="870" y="223"/>
      <point x="800" y="174" type="curve" smooth="yes"/>
      <point x="740" y="133"/>
      <point x="663" y="111"/>
      <point x="575" y="111" type="curve" smooth="yes"/>
      <point x="366" y="111"/>
      <point x="272" y="295"/>
      <point x="272" y="496" type="curve" smooth="yes"/>
      <point x="272" y="735"/>
      <point x="400" y="886"/>
      <point x="588" y="886" type="curve" smooth="yes"/>
      <point x="656" y="886"/>
      <point x="727" y="867"/>
      <point x="785" y="829" type="curve" smooth="yes"/>
      <point x="860" y="784"/>
      <point x="933" y="868"/>
      <point x="852" y="930" type="curve" smooth="yes"/>
      <point x="799" y="972"/>
      <point x="701" y="1013"/>
      <point x="577" y="1013" type="curve" smooth="yes"/>
      <point x="277" y="1013"/>
      <point x="84" y="784"/>
      <point x="84" y="498" type="curve" smooth="yes"/>
      <point x="84" y="210"/>
      <point x="262" y="-18"/>
    </contour>
  </outline>
</glyph>
<glyph name="d" format="1">
  <advance width="1193"/>
  <unicode hex="0064"/>
  <outline>
    <contour>
      <point x="893" y="1187" type="move" name="mid"/>
    </contour>
    <contour>
      <point x="514" y="-17" type="curve" smooth="yes"/>
      <point x="663" y="-17"/>
      <point x="788" y="43"/>
      <point x="855" y="173" type="curve"/>
      <point x="855" y="90" type="line" smooth="yes"/>
      <point x="855" y="35"/>
      <point x="887" y="2"/>
      <point x="949" y="2" type="curve" smooth="yes"/>
      <point x="996" y="2"/>
      <point x="1044" y="32"/>
      <point x="1044" y="90" type="curve" smooth="yes"/>
      <point x="1044" y="1342" type="line" smooth="yes"/>
      <point x="1044" y="1400"/>
      <point x="997" y="1430"/>
      <point x="949" y="1430" type="curve" smooth="yes"/>
      <point x="902" y="1430"/>
      <point x="855" y="1400"/>
      <point x="855" y="1342" type="curve" smooth="yes"/>
      <point x="855" y="830" type="line"/>
      <point x="794" y="950"/>
      <point x="676" y="1013"/>
      <point x="529" y="1013" type="curve" smooth="yes"/>
      <point x="246" y="1013"/>
      <point x="84" y="790"/>
      <point x="84" y="504" type="curve" smooth="yes"/>
      <point x="84" y="228"/>
      <point x="227" y="-17"/>
    </contour>
    <contour>
      <point x="549" y="111" type="curve" smooth="yes"/>
      <point x="334" y="113"/>
      <point x="272" y="331"/>
      <point x="272" y="500" type="curve" smooth="yes"/>
      <point x="272" y="679"/>
      <point x="342" y="885"/>
      <point x="558" y="885" type="curve" smooth="yes"/>
      <point x="772" y="885"/>
      <point x="854" y="693"/>
      <point x="854" y="502" type="curve" smooth="yes"/>
      <point x="854" y="278"/>
      <point x="783" y="111"/>
    </contour>
  </outline>
</glyph>
<glyph name="e" format="1">
  <advance width="1115"/>
  <unicode hex="0065"/>
  <outline>
    <contour>
      <point x="578" y="1001" type="move" name="top"/>
    </contour>
    <contour>
      <point x="754" y="34" type="move" name="ogonek"/>
    </contour>
    <contour>
      <point x="585" y="-17" type="curve" smooth="yes"/>
      <point x="766" y="-17"/>
      <point x="881" y="49"/>
      <point x="963" y="123" type="curve" smooth="yes"/>
      <point x="1033" y="185"/>
      <point x="962" y="282"/>
      <point x="895" y="232" type="curve" smooth="yes"/>
      <point x="818" y="173"/>
      <point x="725" y="116"/>
      <point x="597" y="116" type="curve" smooth="yes"/>
      <point x="422" y="117"/>
      <point x="282" y="222"/>
      <point x="278" y="459" type="curve"/>
      <point x="958" y="459" type="line" smooth="yes"/>
      <point x="1004" y="459"/>
      <point x="1023" y="492"/>
      <point x="1023" y="529" type="curve"/>
      <point x="1016" y="786"/>
      <point x="891" y="1013"/>
      <point x="570" y="1013" type="curve" smooth="yes"/>
      <point x="263" y="1013"/>
      <point x="89" y="773"/>
      <point x="89" y="502" type="curve" smooth="yes"/>
      <point x="89" y="177"/>
      <point x="301" y="-16"/>
    </contour>
    <contour>
      <point x="281" y="574" type="line"/>
      <point x="293" y="729"/>
      <point x="389" y="885"/>
      <point x="580" y="885" type="curve" smooth="yes"/>
      <point x="768" y="885"/>
      <point x="848" y="740"/>
      <point x="859" y="574" type="curve"/>
    </contour>
  </outline>
</glyph>
<glyph name="f" format="1">
  <advance width="706"/>
  <unicode hex="0066"/>
  <outline>
    <contour>
      <point x="327" y="0" type="curve" smooth="yes"/>
      <point x="376" y="0"/>
      <point x="423" y="31"/>
      <point x="423" y="93" type="curve" smooth="yes"/>
      <point x="423" y="862" type="line"/>
      <point x="588" y="862" type="line" smooth="yes"/>
      <point x="636" y="862"/>
      <point x="654" y="889"/>
      <point x="654" y="923" type="curve" smooth="yes"/>
      <point x="654" y="955"/>
      <point x="636" y="985"/>
      <point x="588" y="985" type="curve" smooth="yes"/>
      <point x="423" y="985" type="line"/>
      <point x="423" y="1065" type="line" smooth="yes"/>
      <point x="423" y="1273"/>
      <point x="459" y="1299"/>
      <point x="562" y="1299" type="curve" smooth="yes"/>
      <point x="647" y="1299" type="line" smooth="yes"/>
      <point x="736" y="1299"/>
      <point x="732" y="1443"/>
      <point x="648" y="1443" type="curve" smooth="yes"/>
      <point x="525" y="1443" type="line" smooth="yes"/>
      <point x="359" y="1443"/>
      <point x="234" y="1364"/>
      <point x="234" y="1110" type="curve" smooth="yes"/>
      <point x="234" y="985" type="line"/>
      <point x="107" y="985" type="line" smooth="yes"/>
      <point x="59" y="985"/>
      <point x="38" y="955"/>
      <point x="38" y="923" type="curve" smooth="yes"/>
      <point x="38" y="890"/>
      <point x="59" y="863"/>
      <point x="107" y="862" type="curve" smooth="yes"/>
      <point x="234" y="862" type="line"/>
      <point x="234" y="93" type="line" smooth="yes"/>
      <point x="234" y="31"/>
      <point x="281" y="0"/>
    </contour>
  </outline>
</glyph>
<glyph name="g" format="1">
  <advance width="1182"/>
  <unicode hex="0067"/>
  <outline>
    <contour>
      <point x="558" y="1001" type="move" name="top"/>
    </contour>
    <contour>
      <point x="563" y="-425" type="curve" smooth="yes"/>
      <point x="849" y="-425"/>
      <point x="1043" y="-290"/>
      <point x="1043" y="8" type="curve" smooth="yes"/>
      <point x="1043" y="907" type="line" smooth="yes"/>
      <point x="1043" y="965"/>
      <point x="999" y="995"/>
      <point x="954" y="995" type="curve" smooth="yes"/>
      <point x="913" y="995"/>
      <point x="872" y="969"/>
      <point x="867" y="919" type="curve"/>
      <point x="867" y="825" type="line"/>
      <point x="807" y="937"/>
      <point x="714" y="1013"/>
      <point x="538" y="1013" type="curve" smooth="yes"/>
      <point x="247" y="1013"/>
      <point x="84" y="782"/>
      <point x="84" y="492" type="curve" smooth="yes"/>
      <point x="84" y="214"/>
      <point x="249" y="0"/>
      <point x="542" y="0" type="curve" smooth="yes"/>
      <point x="697" y="0"/>
      <point x="808" y="77"/>
      <point x="861" y="192" type="curve"/>
      <point x="861" y="0" type="line" smooth="yes"/>
      <point x="861" y="-189"/>
      <point x="755" y="-295"/>
      <point x="550" y="-295" type="curve" smooth="yes"/>
      <point x="421" y="-295"/>
      <point x="333" y="-256"/>
      <point x="267" y="-232" type="curve" smooth="yes"/>
      <point x="194" y="-204"/>
      <point x="142" y="-309"/>
      <point x="219" y="-352" type="curve" smooth="yes"/>
      <point x="282" y="-387"/>
      <point x="404" y="-425"/>
    </contour>
    <contour>
      <point x="564" y="125" type="curve"/>
      <point x="410" y="131"/>
      <point x="272" y="241"/>
      <point x="272" y="498" type="curve" smooth="yes"/>
      <point x="272" y="708"/>
      <point x="362" y="885"/>
      <point x="572" y="885" type="curve" smooth="yes"/>
      <point x="793" y="885"/>
      <point x="861" y="695"/>
      <point x="860" y="495" type="curve" smooth="yes"/>
      <point x="858" y="245"/>
      <point x="727" y="120"/>
    </contour>
  </outline>
</glyph>
<glyph name="h" format="1">
  <advance width="1162"/>
  <unicode hex="0068"/>
  <outline>
    <contour>
      <point x="243" y="0" type="curve" smooth="yes"/>
      <point x="291" y="0"/>
      <point x="338" y="30"/>
      <point x="338" y="90" type="curve" smooth="yes"/>
      <point x="338" y="569" type="line" smooth="yes"/>
      <point x="338" y="771"/>
      <point x="473" y="876"/>
      <point x="625" y="876" type="curve" smooth="yes"/>
      <point x="751" y="876"/>
      <point x="837" y="803"/>
      <point x="837" y="640" type="curve" smooth="yes"/>
      <point x="837" y="90" type="line" smooth="yes"/>
      <point x="837" y="30"/>
      <point x="883" y="0"/>
      <point x="930" y="0" type="curve" smooth="yes"/>
      <point x="978" y="0"/>
      <point x="1025" y="30"/>
      <point x="1025" y="90" type="curve" smooth="yes"/>
      <point x="1025" y="632" type="line" smooth="yes"/>
      <point x="1025" y="904"/>
      <point x="857" y="1013"/>
      <point x="668" y="1013" type="curve" smooth="yes"/>
      <point x="523" y="1013"/>
      <point x="394" y="950"/>
      <point x="338" y="842" type="curve"/>
      <point x="338" y="1343" type="line" smooth="yes"/>
      <point x="338" y="1401"/>
      <point x="292" y="1430"/>
      <point x="245" y="1430" type="curve" smooth="yes"/>
      <point x="197" y="1430"/>
      <point x="150" y="1400"/>
      <point x="150" y="1343" type="curve" smooth="yes"/>
      <point x="150" y="90" type="line" smooth="yes"/>
      <point x="150" y="30"/>
      <point x="196" y="0"/>
    </contour>
  </outline>
</glyph>
<glyph name="i" format="1">
  <advance width="482"/>
  <unicode hex="0069"/>
  <outline>
    <contour>
      <point x="242" y="0" type="curve" smooth="yes"/>
      <point x="289" y="0"/>
      <point x="338" y="33"/>
      <point x="338" y="94" type="curve" smooth="yes"/>
      <point x="338" y="901" type="line" smooth="yes"/>
      <point x="338" y="963"/>
      <point x="291" y="995"/>
      <point x="245" y="995" type="curve" smooth="yes"/>
      <point x="197" y="995"/>
      <point x="150" y="963"/>
      <point x="150" y="901" type="curve" smooth="yes"/>
      <point x="150" y="94" type="line" smooth="yes"/>
      <point x="150" y="30"/>
      <point x="195" y="0"/>
    </contour>
    <contour>
      <point x="243" y="1221" type="curve" smooth="yes"/>
      <point x="315" y="1221"/>
      <point x="364" y="1267"/>
      <point x="364" y="1335" type="curve" smooth="yes"/>
      <point x="364" y="1403"/>
      <point x="316" y="1448"/>
      <point x="244" y="1448" type="curve" smooth="yes"/>
      <point x="172" y="1448"/>
      <point x="123" y="1403"/>
      <point x="123" y="1335" type="curve" smooth="yes"/>
      <point x="123" y="1267"/>
      <point x="171" y="1221"/>
    </contour>
  </outline>
</glyph>
<glyph name="j" format="1">
  <advance width="492"/>
  <unicode hex="006A"/>
  <outline>
    <contour>
      <point x="7" y="-378" type="curve" smooth="yes"/>
      <point x="317" y="-378"/>
      <point x="343" y="-278"/>
      <point x="343" y="-25" type="curve" smooth="yes"/>
      <point x="343" y="901" type="line" smooth="yes"/>
      <point x="343" y="963"/>
      <point x="296" y="995"/>
      <point x="250" y="995" type="curve" smooth="yes"/>
      <point x="202" y="995"/>
      <point x="154" y="963"/>
      <point x="154" y="901" type="curve" smooth="yes"/>
      <point x="154" y="-60" type="line" smooth="yes"/>
      <point x="154" y="-220"/>
      <point x="137" y="-236"/>
      <point x="4" y="-236" type="curve" smooth="yes"/>
      <point x="-81" y="-236"/>
      <point x="-83" y="-378"/>
    </contour>
    <contour>
      <point x="243" y="1221" type="curve" smooth="yes"/>
      <point x="315" y="1221"/>
      <point x="364" y="1267"/>
      <point x="364" y="1335" type="curve" smooth="yes"/>
      <point x="364" y="1403"/>
      <point x="316" y="1448"/>
      <point x="244" y="1448" type="curve" smooth="yes"/>
      <point x="172" y="1448"/>
      <point x="123" y="1403"/>
      <point x="123" y="1335" type="curve" smooth="yes"/>
      <point x="123" y="1267"/>
      <point x="171" y="1221"/>
    </contour>
  </outline>
</glyph>
<glyph name="k" format="1">
  <advance width="1008"/>
  <unicode hex="006B"/>
  <outline>
    <contour>
      <point x="538" y="0" type="move" name="bot"/>
    </contour>
    <contour>
      <point x="809" y="27" type="line"/>
      <point x="887" y="-56"/>
      <point x="1011" y="58"/>
      <point x="936" y="137" type="curve" smooth="yes"/>
      <point x="544" y="549" type="line"/>
      <point x="901" y="872" type="line" smooth="yes"/>
      <point x="974" y="940"/>
      <point x="865" y="1057"/>
      <point x="792" y="989" type="curve" smooth="yes"/>
      <point x="342" y="572" type="line"/>
      <point x="342" y="523" type="line"/>
    </contour>
    <contour>
      <point x="246" y="0" type="curve" smooth="yes"/>
      <point x="293" y="0"/>
      <point x="342" y="33"/>
      <point x="342" y="95" type="curve" smooth="yes"/>
      <point x="342" y="1336" type="line" smooth="yes"/>
      <point x="342" y="1398"/>
      <point x="295" y="1430"/>
      <point x="249" y="1430" type="curve" smooth="yes"/>
      <point x="201" y="1430"/>
      <point x="153" y="1398"/>
      <point x="153" y="1336" type="curve" smooth="yes"/>
      <point x="153" y="95" type="line" smooth="yes"/>
      <point x="153" y="31"/>
      <point x="199" y="0"/>
    </contour>
  </outline>
</glyph>
<glyph name="l" format="1">
  <advance width="488"/>
  <unicode hex="006C"/>
  <outline>
    <contour>
      <point x="261" y="1431" type="move" name="top"/>
    </contour>
    <contour>
      <point x="241" y="0" type="move" name="bot"/>
    </contour>
    <contour>
      <point x="242" y="0" type="curve" smooth="yes"/>
      <point x="289" y="0"/>
      <point x="338" y="33"/>
      <point x="338" y="94" type="curve" smooth="yes"/>
      <point x="338" y="1336" type="line" smooth="yes"/>
      <point x="338" y="1398"/>
      <point x="291" y="1430"/>
      <point x="245" y="1430" type="curve" smooth="yes"/>
      <point x="197" y="1430"/>
      <point x="150" y="1398"/>
      <point x="150" y="1336" type="curve" smooth="yes"/>
      <point x="150" y="94" type="line" smooth="yes"/>
      <point x="150" y="30"/>
      <point x="195" y="0"/>
    </contour>
  </outline>
</glyph>
<glyph name="m" format="1">
  <advance width="1848"/>
  <unicode hex="006D"/>
  <outline>
    <contour>
      <point x="975" y="1005" type="move" name="top"/>
    </contour>
    <contour>
      <point x="243" y="0" type="curve" smooth="yes"/>
      <point x="291" y="0"/>
      <point x="339" y="29"/>
      <point x="339" y="89" type="curve" smooth="yes"/>
      <point x="339" y="571" type="line" smooth="yes"/>
      <point x="339" y="771"/>
      <point x="452" y="885"/>
      <point x="621" y="885" type="curve" smooth="yes"/>
      <point x="754" y="885"/>
      <point x="835" y="804"/>
      <point x="835" y="616" type="curve" smooth="yes"/>
      <point x="835" y="90" type="line" smooth="yes"/>
      <point x="835" y="30"/>
      <point x="881" y="0"/>
      <point x="928" y="0" type="curve" smooth="yes"/>
      <point x="976" y="0"/>
      <point x="1023" y="30"/>
      <point x="1023" y="90" type="curve" smooth="yes"/>
      <point x="1023" y="563" type="line" smooth="yes"/>
      <point x="1023" y="782"/>
      <point x="1151" y="885"/>
      <point x="1305" y="885" type="curve" smooth="yes"/>
      <point x="1441" y="885"/>
      <point x="1521" y="804"/>
      <point x="1521" y="639" type="curve" smooth="yes"/>
      <point x="1521" y="89" type="line" smooth="yes"/>
      <point x="1521" y="29"/>
      <point x="1567" y="0"/>
      <point x="1614" y="0" type="curve" smooth="yes"/>
      <point x="1661" y="0"/>
      <point x="1709" y="29"/>
      <point x="1709" y="89" type="curve" smooth="yes"/>
      <point x="1709" y="632" type="line" smooth="yes"/>
      <point x="1709" y="903"/>
      <point x="1544" y="1013"/>
      <point x="1346" y="1013" type="curve" smooth="yes"/>
      <point x="1176" y="1013"/>
      <point x="1048" y="939"/>
      <point x="989" y="781" type="curve"/>
      <point x="948" y="928"/>
      <point x="826" y="1013"/>
      <point x="661" y="1013" type="curve" smooth="yes"/>
      <point x="519" y="1013"/>
      <point x="399" y="950"/>
      <point x="339" y="824" type="curve"/>
      <point x="339" y="912" type="line" smooth="yes"/>
      <point x="339" y="968"/>
      <point x="290" y="995"/>
      <point x="245" y="995" type="curve" smooth="yes"/>
      <point x="197" y="995"/>
      <point x="150" y="965"/>
      <point x="150" y="908" type="curve" smooth="yes"/>
      <point x="150" y="89" type="line" smooth="yes"/>
      <point x="150" y="29"/>
      <point x="196" y="0"/>
    </contour>
  </outline>
</glyph>
<glyph name="n" format="1">
  <advance width="1165"/>
  <unicode hex="006E"/>
  <outline>
    <contour>
      <point x="618" y="991" type="move" name="top"/>
    </contour>
    <contour>
      <point x="589" y="0" type="move" name="bot"/>
    </contour>
    <contour>
      <point x="243" y="0" type="curve" smooth="yes"/>
      <point x="291" y="0"/>
      <point x="338" y="31"/>
      <point x="338" y="89" type="curve" smooth="yes"/>
      <point x="338" y="580" type="line" smooth="yes"/>
      <point x="346" y="774"/>
      <point x="468" y="885"/>
      <point x="615" y="885" type="curve" smooth="yes"/>
      <point x="753" y="885"/>
      <point x="837" y="798"/>
      <point x="837" y="629" type="curve" smooth="yes"/>
      <point x="837" y="89" type="line" smooth="yes"/>
      <point x="837" y="29"/>
      <point x="884" y="0"/>
      <point x="931" y="0" type="curve" smooth="yes"/>
      <point x="979" y="0"/>
      <point x="1025" y="29"/>
      <point x="1025" y="89" type="curve" smooth="yes"/>
      <point x="1025" y="627" type="line" smooth="yes"/>
      <point x="1025" y="898"/>
      <point x="869" y="1013"/>
      <point x="664" y="1013" type="curve" smooth="yes"/>
      <point x="514" y="1013"/>
      <point x="390" y="949"/>
      <point x="338" y="828" type="curve"/>
      <point x="338" y="909" type="line" smooth="yes"/>
      <point x="338" y="966"/>
      <point x="291" y="994"/>
      <point x="245" y="994" type="curve" smooth="yes"/>
      <point x="197" y="994"/>
      <point x="150" y="965"/>
      <point x="150" y="906" type="curve" smooth="yes"/>
      <point x="150" y="89" type="line" smooth="yes"/>
      <point x="150" y="29"/>
      <point x="196" y="0"/>
    </contour>
  </outline>
</glyph>
<glyph name="o" format="1">
  <advance width="1163"/>
  <unicode hex="006F"/>
  <outline>
    <contour>
      <point x="581" y="997" type="move" name="top"/>
    </contour>
    <contour>
      <point x="586" y="111" type="curve" smooth="yes"/>
      <point x="388" y="111"/>
      <point x="271" y="261"/>
      <point x="271" y="497" type="curve" smooth="yes"/>
      <point x="271" y="736"/>
      <point x="388" y="885"/>
      <point x="586" y="885" type="curve" smooth="yes"/>
      <point x="786" y="885"/>
      <point x="903" y="734"/>
      <point x="903" y="497" type="curve" smooth="yes"/>
      <point x="903" y="261"/>
      <point x="789" y="112"/>
    </contour>
    <contour>
      <point x="586" y="-17" type="curve" smooth="yes"/>
      <point x="908" y="-17"/>
      <point x="1090" y="211"/>
      <point x="1090" y="497" type="curve" smooth="yes"/>
      <point x="1090" y="790"/>
      <point x="904" y="1013"/>
      <point x="586" y="1013" type="curve" smooth="yes"/>
      <point x="267" y="1013"/>
      <point x="84" y="787"/>
      <point x="84" y="497" type="curve" smooth="yes"/>
      <point x="84" y="210"/>
      <point x="266" y="-17"/>
    </contour>
  </outline>
</glyph>
<glyph name="p" format="1">
  <advance width="1193"/>
  <unicode hex="0070"/>
  <outline>
    <contour>
      <point x="244" y="-380" type="curve" smooth="yes"/>
      <point x="291" y="-380"/>
      <point x="338" y="-351"/>
      <point x="338" y="-292" type="curve" smooth="yes"/>
      <point x="338" y="166" type="line"/>
      <point x="400" y="46"/>
      <point x="517" y="-17"/>
      <point x="664" y="-17" type="curve" smooth="yes"/>
      <point x="947" y="-17"/>
      <point x="1109" y="206"/>
      <point x="1109" y="492" type="curve" smooth="yes"/>
      <point x="1109" y="768"/>
      <point x="966" y="1013"/>
      <point x="679" y="1013" type="curve" smooth="yes"/>
      <point x="530" y="1013"/>
      <point x="405" y="953"/>
      <point x="338" y="823" type="curve"/>
      <point x="338" y="906" type="line" smooth="yes"/>
      <point x="338" y="961"/>
      <point x="306" y="994"/>
      <point x="244" y="994" type="curve" smooth="yes"/>
      <point x="197" y="994"/>
      <point x="150" y="964"/>
      <point x="150" y="906" type="curve" smooth="yes"/>
      <point x="150" y="-292" type="line" smooth="yes"/>
      <point x="150" y="-351"/>
      <point x="196" y="-380"/>
    </contour>
    <contour>
      <point x="635" y="111" type="curve" smooth="yes"/>
      <point x="421" y="111"/>
      <point x="339" y="303"/>
      <point x="339" y="494" type="curve" smooth="yes"/>
      <point x="339" y="717"/>
      <point x="411" y="885"/>
      <point x="644" y="885" type="curve" smooth="yes"/>
      <point x="859" y="883"/>
      <point x="921" y="665"/>
      <point x="921" y="495" type="curve" smooth="yes"/>
      <point x="921" y="317"/>
      <point x="851" y="111"/>
    </contour>
  </outline>
</glyph>
<glyph name="q" format="1">
  <advance width="1193"/>
  <unicode hex="0071"/>
  <outline>
    <contour>
      <point x="949" y="-380" type="curve" smooth="yes"/>
      <point x="997" y="-380"/>
      <point x="1044" y="-351"/>
      <point x="1044" y="-292" type="curve" smooth="yes"/>
      <point x="1044" y="906" type="line" smooth="yes"/>
      <point x="1044" y="964"/>
      <point x="996" y="994"/>
      <point x="949" y="994" type="curve" smooth="yes"/>
      <point x="887" y="994"/>
      <point x="855" y="961"/>
      <point x="855" y="906" type="curve" smooth="yes"/>
      <point x="855" y="823" type="line"/>
      <point x="788" y="953"/>
      <point x="663" y="1013"/>
      <point x="514" y="1013" type="curve" smooth="yes"/>
      <point x="227" y="1013"/>
      <point x="84" y="768"/>
      <point x="84" y="492" type="curve" smooth="yes"/>
      <point x="84" y="206"/>
      <point x="246" y="-17"/>
      <point x="529" y="-17" type="curve" smooth="yes"/>
      <point x="676" y="-17"/>
      <point x="794" y="46"/>
      <point x="855" y="166" type="curve"/>
      <point x="855" y="-292" type="line" smooth="yes"/>
      <point x="855" y="-351"/>
      <point x="902" y="-380"/>
    </contour>
    <contour>
      <point x="558" y="111" type="curve" smooth="yes"/>
      <point x="342" y="111"/>
      <point x="272" y="317"/>
      <point x="272" y="495" type="curve" smooth="yes"/>
      <point x="272" y="665"/>
      <point x="334" y="883"/>
      <point x="549" y="885" type="curve" smooth="yes"/>
      <point x="783" y="885"/>
      <point x="854" y="717"/>
      <point x="854" y="494" type="curve" smooth="yes"/>
      <point x="854" y="303"/>
      <point x="772" y="111"/>
    </contour>
  </outline>
</glyph>
<glyph name="r" format="1">
  <advance width="733"/>
  <unicode hex="0072"/>
  <outline>
    <contour>
      <point x="370" y="1001" type="move" name="top"/>
    </contour>
    <contour>
      <point x="244" y="0" type="move" name="bot"/>
    </contour>
    <contour>
      <point x="244" y="0" type="curve" smooth="yes"/>
      <point x="292" y="0"/>
      <point x="340" y="30"/>
      <point x="340" y="88" type="curve" smooth="yes"/>
      <point x="340" y="594" type="line" smooth="yes"/>
      <point x="340" y="754"/>
      <point x="446" y="849"/>
      <point x="624" y="849" type="curve" smooth="yes"/>
      <point x="718" y="849"/>
      <point x="711" y="1007"/>
      <point x="620" y="1007" type="curve" smooth="yes"/>
      <point x="475" y="1007"/>
      <point x="371" y="907"/>
      <point x="339" y="789" type="curve"/>
      <point x="340" y="910" type="line" smooth="yes"/>
      <point x="342" y="1021"/>
      <point x="152" y="1023"/>
      <point x="152" y="907" type="curve" smooth="yes"/>
      <point x="152" y="88" type="line" smooth="yes"/>
      <point x="152" y="28"/>
      <point x="197" y="0"/>
    </contour>
  </outline>
</glyph>
<glyph name="s" format="1">
  <advance width="1005"/>
  <unicode hex="0073"/>
  <outline>
    <contour>
      <point x="492" y="1002" type="move" name="top"/>
    </contour>
    <contour>
      <point x="509" y="0" type="move" name="bot"/>
    </contour>
    <contour>
      <point x="510" y="-18" type="curve" smooth="yes"/>
      <point x="742" y="-20"/>
      <point x="921" y="81"/>
      <point x="912" y="305" type="curve" smooth="yes"/>
      <point x="907" y="430"/>
      <point x="831" y="523"/>
      <point x="628" y="573" type="curve" smooth="yes"/>
      <point x="457" y="616" type="line" smooth="yes"/>
      <point x="319" y="649"/>
      <point x="286" y="669"/>
      <point x="286" y="749" type="curve" smooth="yes"/>
      <point x="286" y="851"/>
      <point x="390" y="890"/>
      <point x="523" y="888" type="curve" smooth="yes"/>
      <point x="640" y="886"/>
      <point x="732" y="844"/>
      <point x="778" y="827" type="curve" smooth="yes"/>
      <point x="868" y="795"/>
      <point x="903" y="902"/>
      <point x="828" y="940" type="curve" smooth="yes"/>
      <point x="772" y="969"/>
      <point x="657" y="1014"/>
      <point x="516" y="1015" type="curve" smooth="yes"/>
      <point x="301" y="1018"/>
      <point x="109" y="940"/>
      <point x="111" y="739" type="curve" smooth="yes"/>
      <point x="113" y="558"/>
      <point x="228" y="517"/>
      <point x="416" y="469" type="curve" smooth="yes"/>
      <point x="591" y="426" type="line" smooth="yes"/>
      <point x="703" y="398"/>
      <point x="748" y="353"/>
      <point x="752" y="284" type="curve" smooth="yes"/>
      <point x="757" y="163"/>
      <point x="649" y="107"/>
      <point x="509" y="108" type="curve" smooth="yes"/>
      <point x="388" y="110"/>
      <point x="292" y="151"/>
      <point x="222" y="193" type="curve" smooth="yes"/>
      <point x="135" y="245"/>
      <point x="74" y="142"/>
      <point x="143" y="91" type="curve" smooth="yes"/>
      <point x="216" y="38"/>
      <point x="355" y="-17"/>
    </contour>
  </outline>
</glyph>
<glyph name="t" format="1">
  <advance width="730"/>
  <unicode hex="0074"/>
  <outline>
    <contour>
      <point x="453" y="7" type="move" name="bot"/>
    </contour>
    <contour>
      <point x="478" y="-14" type="curve" smooth="yes"/>
      <point x="538" y="-14"/>
      <point x="600" y="-12"/>
      <point x="631" y="-6" type="curve" smooth="yes"/>
      <point x="719" y="10"/>
      <point x="706" y="143"/>
      <point x="609" y="137" type="curve" smooth="yes"/>
      <point x="541" y="133" type="line" smooth="yes"/>
      <point x="449" y="129"/>
      <point x="411" y="186"/>
      <point x="411" y="325" type="curve" smooth="yes"/>
      <point x="411" y="862" type="line"/>
      <point x="593" y="862" type="line" smooth="yes"/>
      <point x="641" y="862"/>
      <point x="661" y="888"/>
      <point x="661" y="922" type="curve" smooth="yes"/>
      <point x="661" y="956"/>
      <point x="641" y="985"/>
      <point x="593" y="985" type="curve" smooth="yes"/>
      <point x="411" y="985" type="line"/>
      <point x="411" y="1274" type="line" smooth="yes"/>
      <point x="411" y="1326"/>
      <point x="378" y="1348"/>
      <point x="339" y="1348" type="curve" smooth="yes"/>
      <point x="294" y="1348"/>
      <point x="252" y="1312"/>
      <point x="248" y="1266" type="curve" smooth="yes"/>
      <point x="223" y="985" type="line"/>
      <point x="102" y="985" type="line" smooth="yes"/>
      <point x="54" y="985"/>
      <point x="32" y="958"/>
      <point x="32" y="924" type="curve" smooth="yes"/>
      <point x="32" y="889"/>
      <point x="55" y="862"/>
      <point x="103" y="862" type="curve" smooth="yes"/>
      <point x="223" y="862" type="line"/>
      <point x="223" y="291" type="line" smooth="yes"/>
      <point x="223" y="79"/>
      <point x="329" y="-14"/>
    </contour>
  </outline>
</glyph>
<glyph name="v" format="1">
  <advance width="1043"/>
  <unicode hex="0076"/>
  <outline>
    <contour>
      <point x="526" y="-1" type="curve"/>
      <point x="526" y="190" type="line"/>
      <point x="225" y="936" type="line" smooth="yes"/>
      <point x="178" y="1056"/>
      <point x="20" y="971"/>
      <point x="59" y="877" type="curve" smooth="yes"/>
      <point x="366" y="139" type="line" smooth="yes"/>
      <point x="406" y="42"/>
      <point x="443" y="-1"/>
    </contour>
    <contour>
      <point x="526" y="-1" type="line"/>
      <point x="608" y="-1"/>
      <point x="645" y="42"/>
      <point x="686" y="139" type="curve" smooth="yes"/>
      <point x="992" y="877" type="line" smooth="yes"/>
      <point x="1031" y="971"/>
      <point x="874" y="1056"/>
      <point x="827" y="936" type="curve" smooth="yes"/>
      <point x="526" y="190" type="line"/>
    </contour>
  </outline>
</glyph>
<glyph name="w" format="1">
  <advance width="1700"/>
  <unicode hex="0077"/>
  <outline>
    <contour>
      <point x="859" y="1006" type="move" name="top"/>
    </contour>
    <contour>
      <point x="475" y="0" type="curve" smooth="yes"/>
      <point x="531" y="0"/>
      <point x="580" y="30"/>
      <point x="609" y="115" type="curve" smooth="yes"/>
      <point x="858" y="816" type="line"/>
      <point x="858" y="995" type="line"/>
      <point x="801" y="995"/>
      <point x="758" y="961"/>
      <point x="734" y="892" type="curve" smooth="yes"/>
      <point x="490" y="198" type="line"/>
      <point x="248" y="933" type="line" smooth="yes"/>
      <point x="214" y="1040"/>
      <point x="46" y="993"/>
      <point x="85" y="879" type="curve" smooth="yes"/>
      <point x="353" y="104" type="line" smooth="yes"/>
      <point x="378" y="29"/>
      <point x="424" y="0"/>
    </contour>
    <contour>
      <point x="1241" y="0" type="curve" smooth="yes"/>
      <point x="1293" y="0"/>
      <point x="1338" y="29"/>
      <point x="1363" y="104" type="curve" smooth="yes"/>
      <point x="1631" y="879" type="line" smooth="yes"/>
      <point x="1670" y="993"/>
      <point x="1503" y="1040"/>
      <point x="1468" y="933" type="curve" smooth="yes"/>
      <point x="1226" y="198" type="line"/>
      <point x="982" y="892" type="line" smooth="yes"/>
      <point x="959" y="961"/>
      <point x="915" y="995"/>
      <point x="858" y="995" type="curve"/>
      <point x="858" y="816" type="line"/>
      <point x="1107" y="115" type="line" smooth="yes"/>
      <point x="1137" y="30"/>
      <point x="1186" y="0"/>
    </contour>
  </outline>
</glyph>
<glyph name="x" format="1">
  <advance width="1047"/>
  <unicode hex="0078"/>
  <outline>
    <contour>
      <point x="172" y="0" type="curve" smooth="yes"/>
      <point x="197" y="0"/>
      <point x="218" y="12"/>
      <point x="236" y="35" type="curve"/>
      <point x="526" y="399" type="line"/>
      <point x="622" y="494" type="line"/>
      <point x="923" y="869" type="line" smooth="yes"/>
      <point x="936" y="884"/>
      <point x="941" y="900"/>
      <point x="941" y="916" type="curve" smooth="yes"/>
      <point x="941" y="958"/>
      <point x="901" y="995"/>
      <point x="857" y="995" type="curve" smooth="yes"/>
      <point x="833" y="995"/>
      <point x="811" y="984"/>
      <point x="792" y="959" type="curve"/>
      <point x="514" y="614" type="line"/>
      <point x="421" y="519" type="line"/>
      <point x="101" y="127" type="line" smooth="yes"/>
      <point x="90" y="113"/>
      <point x="85" y="98"/>
      <point x="85" y="83" type="curve" smooth="yes"/>
      <point x="85" y="40"/>
      <point x="126" y="0"/>
    </contour>
    <contour>
      <point x="869" y="0" type="curve" smooth="yes"/>
      <point x="919" y="0"/>
      <point x="962" y="42"/>
      <point x="962" y="88" type="curve" smooth="yes"/>
      <point x="962" y="105"/>
      <point x="957" y="122"/>
      <point x="944" y="138" type="curve" smooth="yes"/>
      <point x="281" y="956" type="line" smooth="yes"/>
      <point x="259" y="983"/>
      <point x="233" y="995"/>
      <point x="208" y="995" type="curve" smooth="yes"/>
      <point x="158" y="995"/>
      <point x="115" y="954"/>
      <point x="115" y="905" type="curve" smooth="yes"/>
      <point x="115" y="888"/>
      <point x="120" y="871"/>
      <point x="133" y="855" type="curve" smooth="yes"/>
      <point x="795" y="39" type="line" smooth="yes"/>
      <point x="817" y="12"/>
      <point x="843" y="0"/>
    </contour>
  </outline>
</glyph>
<glyph name="z" format="1">
  <advance width="944"/>
  <unicode hex="007A"/>
  <outline>
    <contour>
      <point x="486" y="1001" type="move" name="top"/>
    </contour>
    <contour>
      <point x="175" y="0" type="curve" smooth="yes"/>
      <point x="780" y="0" type="line" smooth="yes"/>
      <point x="831" y="0"/>
      <point x="856" y="37"/>
      <point x="856" y="73" type="curve" smooth="yes"/>
      <point x="856" y="109"/>
      <point x="831" y="146"/>
      <point x="780" y="146" type="curve" smooth="yes"/>
      <point x="304" y="146" type="line"/>
      <point x="835" y="845" type="line" smooth="yes"/>
      <point x="853" y="868"/>
      <point x="862" y="893"/>
      <point x="862" y="914" type="curve" smooth="yes"/>
      <point x="862" y="960"/>
      <point x="827" y="995"/>
      <point x="761" y="995" type="curve" smooth="yes"/>
      <point x="169" y="995" type="line" smooth="yes"/>
      <point x="120" y="995"/>
      <point x="95" y="958"/>
      <point x="95" y="922" type="curve" smooth="yes"/>
      <point x="95" y="885"/>
      <point x="119" y="850"/>
      <point x="169" y="850" type="curve" smooth="yes"/>
      <point x="636" y="850" type="line"/>
      <point x="105" y="151" type="line" smooth="yes"/>
      <point x="88" y="129"/>
      <point x="80" y="105"/>
      <point x="80" y="84" type="curve" smooth="yes"/>
      <point x="80" y="37"/>
      <point x="115" y="0"/>
    </contour>
  </outline>
</glyph>
<glyph name="braceleft" format="1">
  <advance width="645"/>
  <unicode hex="007B"/>
  <outline>
    <contour>
      <point x="434" y="-215" type="curve" smooth="yes"/>
      <point x="558" y="-215" type="line" smooth="yes"/>
      <point x="604" y="-215"/>
      <point x="625" y="-182"/>
      <point x="626" y="-145" type="curve" smooth="yes"/>
      <point x="626" y="-104"/>
      <point x="604" y="-70"/>
      <point x="559" y="-70" type="curve" smooth="yes"/>
      <point x="503" y="-70" type="line" smooth="yes"/>
      <point x="438" y="-70"/>
      <point x="418" y="-11"/>
      <point x="418" y="91" type="curve" smooth="yes"/>
      <point x="418" y="359" type="line" smooth="yes"/>
      <point x="418" y="544"/>
      <point x="298" y="617"/>
      <point x="267" y="630" type="curve"/>
      <point x="301" y="645"/>
      <point x="418" y="689"/>
      <point x="418" y="908" type="curve" smooth="yes"/>
      <point x="418" y="1172" type="line" smooth="yes"/>
      <point x="418" y="1276"/>
      <point x="439" y="1334"/>
      <point x="502" y="1334" type="curve" smooth="yes"/>
      <point x="556" y="1334" type="line" smooth="yes"/>
      <point x="602" y="1334"/>
      <point x="626" y="1367"/>
      <point x="626" y="1406" type="curve" smooth="yes"/>
      <point x="626" y="1450"/>
      <point x="599" y="1479"/>
      <point x="556" y="1479" type="curve" smooth="yes"/>
      <point x="434" y="1479" type="line" smooth="yes"/>
      <point x="325" y="1479"/>
      <point x="230" y="1379"/>
      <point x="230" y="1247" type="curve" smooth="yes"/>
      <point x="230" y="945" type="line" smooth="yes"/>
      <point x="230" y="801"/>
      <point x="207" y="719"/>
      <point x="89" y="707" type="curve"/>
      <point x="38" y="705"/>
      <point x="13" y="670"/>
      <point x="13" y="629" type="curve" smooth="yes"/>
      <point x="13" y="587"/>
      <point x="42" y="554"/>
      <point x="89" y="553" type="curve"/>
      <point x="209" y="541"/>
      <point x="230" y="457"/>
      <point x="230" y="317" type="curve" smooth="yes"/>
      <point x="230" y="16" type="line" smooth="yes"/>
      <point x="230" y="-124"/>
      <point x="334" y="-215"/>
    </contour>
  </outline>
</glyph>
<glyph name="bar" format="1">
  <advance width="455"/>
  <unicode hex="007C"/>
  <outline>
    <contour>
      <point x="227" y="-412" type="curve" smooth="yes"/>
      <point x="265" y="-412"/>
      <point x="303" y="-387"/>
      <point x="303" y="-337" type="curve" smooth="yes"/>
      <point x="303" y="1406" type="line" smooth="yes"/>
      <point x="303" y="1456"/>
      <point x="266" y="1481"/>
      <point x="228" y="1481" type="curve" smooth="yes"/>
      <point x="190" y="1481"/>
      <point x="152" y="1456"/>
      <point x="152" y="1406" type="curve" smooth="yes"/>
      <point x="152" y="-337" type="line" smooth="yes"/>
      <point x="152" y="-387"/>
      <point x="189" y="-412"/>
    </contour>
  </outline>
</glyph>
<glyph name="braceright" format="1">
  <advance width="645"/>
  <unicode hex="007D"/>
  <outline>
    <contour>
      <point x="84" y="-215" type="curve" smooth="yes"/>
      <point x="209" y="-215" type="line" smooth="yes"/>
      <point x="315" y="-215"/>
      <point x="413" y="-118"/>
      <point x="413" y="18" type="curve" smooth="yes"/>
      <point x="413" y="317" type="line" smooth="yes"/>
      <point x="413" y="460"/>
      <point x="435" y="542"/>
      <point x="556" y="553" type="curve"/>
      <point x="604" y="553"/>
      <point x="630" y="591"/>
      <point x="630" y="629" type="curve" smooth="yes"/>
      <point x="630" y="674"/>
      <point x="600" y="706"/>
      <point x="553" y="707" type="curve"/>
      <point x="434" y="719"/>
      <point x="413" y="802"/>
      <point x="413" y="945" type="curve" smooth="yes"/>
      <point x="413" y="1249" type="line" smooth="yes"/>
      <point x="413" y="1388"/>
      <point x="309" y="1479"/>
      <point x="209" y="1479" type="curve" smooth="yes"/>
      <point x="84" y="1479" type="line" smooth="yes"/>
      <point x="38" y="1479"/>
      <point x="17" y="1444"/>
      <point x="17" y="1407" type="curve" smooth="yes"/>
      <point x="17" y="1365"/>
      <point x="42" y="1334"/>
      <point x="86" y="1334" type="curve" smooth="yes"/>
      <point x="141" y="1334" type="line" smooth="yes"/>
      <point x="204" y="1334"/>
      <point x="225" y="1274"/>
      <point x="225" y="1174" type="curve" smooth="yes"/>
      <point x="225" y="903" type="line" smooth="yes"/>
      <point x="225" y="717"/>
      <point x="351" y="655"/>
      <point x="375" y="630" type="curve"/>
      <point x="342" y="615"/>
      <point x="225" y="543"/>
      <point x="225" y="359" type="curve" smooth="yes"/>
      <point x="225" y="87" type="line" smooth="yes"/>
      <point x="225" y="-14"/>
      <point x="203" y="-70"/>
      <point x="141" y="-70" type="curve" smooth="yes"/>
      <point x="84" y="-70" type="line" smooth="yes"/>
      <point x="38" y="-70"/>
      <point x="17" y="-106"/>
      <point x="17" y="-142" type="curve" smooth="yes"/>
      <point x="17" y="-183"/>
      <point x="41" y="-215"/>
    </contour>
  </outline>
</glyph>
<glyph name="asciitilde" format="1">
  <advance width="1331"/>
  <unicode hex="007E"/>
  <outline>
    <contour>
      <point x="771" y="1172" type="curve" smooth="yes"/>
      <point x="865" y="1172"/>
      <point x="917" y="1221"/>
      <point x="943" y="1303" type="curve" smooth="yes"/>
      <point x="959" y="1359"/>
      <point x="884" y="1403"/>
      <point x="844" y="1339" type="curve" smooth="yes"/>
      <point x="829" y="1314"/>
      <point x="806" y="1300"/>
      <point x="780" y="1300" type="curve" smooth="yes"/>
      <point x="715" y="1300"/>
      <point x="624" y="1373"/>
      <point x="525" y="1373" type="curve" smooth="yes"/>
      <point x="438" y="1373"/>
      <point x="384" y="1329"/>
      <point x="352" y="1246" type="curve" smooth="yes"/>
      <point x="327" y="1183"/>
      <point x="416" y="1153"/>
      <point x="448" y="1203" type="curve" smooth="yes"/>
      <point x="467" y="1235"/>
      <point x="494" y="1247"/>
      <point x="524" y="1247" type="curve" smooth="yes"/>
      <point x="593" y="1247"/>
      <point x="686" y="1172"/>
    </contour>
  </outline>
</glyph>
<glyph name="cent" format="1">
  <advance width="1037"/>
  <unicode hex="00A2"/>
  <outline>
    <contour>
      <point x="558" y="-267" type="curve" smooth="yes"/>
      <point x="586" y="-267"/>
      <point x="613" y="-249"/>
      <point x="613" y="-211" type="curve" smooth="yes"/>
      <point x="613" y="48" type="line"/>
      <point x="502" y="48" type="line"/>
      <point x="502" y="-211" type="line" smooth="yes"/>
      <point x="502" y="-248"/>
      <point x="530" y="-267"/>
    </contour>
    <contour>
      <point x="502" y="955" type="line"/>
      <point x="613" y="955" type="line"/>
      <point x="613" y="1214" type="line" smooth="yes"/>
      <point x="613" y="1252"/>
      <point x="586" y="1271"/>
      <point x="558" y="1271" type="curve" smooth="yes"/>
      <point x="530" y="1271"/>
      <point x="502" y="1251"/>
      <point x="502" y="1214" type="curve" smooth="yes"/>
    </contour>
    <component base="c"/>
  </outline>
</glyph>
<glyph name="sterling" format="1">
  <advance width="1368"/>
  <unicode hex="00A3"/>
  <outline>
    <contour>
      <point x="228" y="-1" type="curve" smooth="yes"/>
      <point x="1084" y="-1" type="line" smooth="yes"/>
      <point x="1143" y="-1"/>
      <point x="1143" y="159"/>
      <point x="1084" y="159" type="curve" smooth="yes"/>
      <point x="515" y="159" type="line"/>
      <point x="515" y="743" type="line"/>
      <point x="872" y="743" type="line" smooth="yes"/>
      <point x="931" y="743"/>
      <point x="924" y="883"/>
      <point x="873" y="883" type="curve" smooth="yes"/>
      <point x="515" y="883" type="line"/>
      <point x="515" y="997" type="line" smooth="yes"/>
      <point x="515" y="1218"/>
      <point x="540" y="1297"/>
      <point x="742" y="1297" type="curve" smooth="yes"/>
      <point x="828" y="1297"/>
      <point x="904" y="1281"/>
      <point x="981" y="1268" type="curve" smooth="yes"/>
      <point x="1031" y="1258"/>
      <point x="1051" y="1392"/>
      <point x="1021" y="1401" type="curve" smooth="yes"/>
      <point x="938" y="1426"/>
      <point x="821" y="1447"/>
      <point x="720" y="1447" type="curve" smooth="yes"/>
      <point x="480" y="1447"/>
      <point x="322" y="1341"/>
      <point x="322" y="1080" type="curve" smooth="yes"/>
      <point x="322" y="883" type="line"/>
      <point x="193" y="883" type="line" smooth="yes"/>
      <point x="139" y="883"/>
      <point x="144" y="743"/>
      <point x="193" y="743" type="curve" smooth="yes"/>
      <point x="322" y="743" type="line"/>
      <point x="322" y="157" type="line"/>
      <point x="226" y="157" type="line" smooth="yes"/>
      <point x="170" y="157"/>
      <point x="171" y="-1"/>
    </contour>
  </outline>
</glyph>
<glyph name="currency" format="1">
  <advance width="1179"/>
  <unicode hex="00A4"/>
  <outline>
    <contour>
      <point x="209" y="159" type="curve" smooth="yes"/>
      <point x="222" y="159"/>
      <point x="235" y="164"/>
      <point x="247" y="175" type="curve" smooth="yes"/>
      <point x="333" y="262" type="line"/>
      <point x="401" y="214"/>
      <point x="488" y="186"/>
      <point x="595" y="186" type="curve" smooth="yes"/>
      <point x="702" y="186"/>
      <point x="788" y="214"/>
      <point x="856" y="263" type="curve"/>
      <point x="945" y="175" type="line" smooth="yes"/>
      <point x="955" y="164"/>
      <point x="968" y="159"/>
      <point x="980" y="159" type="curve" smooth="yes"/>
      <point x="1010" y="159"/>
      <point x="1036" y="184"/>
      <point x="1036" y="214" type="curve" smooth="yes"/>
      <point x="1036" y="227"/>
      <point x="1032" y="240"/>
      <point x="1020" y="252" type="curve" smooth="yes"/>
      <point x="934" y="336" type="line"/>
      <point x="994" y="412"/>
      <point x="1025" y="507"/>
      <point x="1025" y="603" type="curve" smooth="yes"/>
      <point x="1025" y="697"/>
      <point x="996" y="790"/>
      <point x="937" y="866" type="curve"/>
      <point x="1020" y="949" type="line" smooth="yes"/>
      <point x="1032" y="960"/>
      <point x="1036" y="974"/>
      <point x="1036" y="986" type="curve" smooth="yes"/>
      <point x="1036" y="1016"/>
      <point x="1011" y="1041"/>
      <point x="982" y="1041" type="curve" smooth="yes"/>
      <point x="968" y="1041"/>
      <point x="955" y="1036"/>
      <point x="944" y="1024" type="curve" smooth="yes"/>
      <point x="861" y="941" type="line"/>
      <point x="793" y="991"/>
      <point x="705" y="1022"/>
      <point x="595" y="1022" type="curve" smooth="yes"/>
      <point x="484" y="1022"/>
      <point x="397" y="991"/>
      <point x="329" y="941" type="curve"/>
      <point x="247" y="1024" type="line" smooth="yes"/>
      <point x="235" y="1036"/>
      <point x="222" y="1041"/>
      <point x="209" y="1041" type="curve" smooth="yes"/>
      <point x="180" y="1041"/>
      <point x="154" y="1016"/>
      <point x="154" y="987" type="curve" smooth="yes"/>
      <point x="154" y="973"/>
      <point x="160" y="960"/>
      <point x="171" y="949" type="curve" smooth="yes"/>
      <point x="253" y="866" type="line"/>
      <point x="194" y="791"/>
      <point x="165" y="698"/>
      <point x="165" y="603" type="curve" smooth="yes"/>
      <point x="165" y="507"/>
      <point x="195" y="412"/>
      <point x="255" y="336" type="curve"/>
      <point x="171" y="252" type="line" smooth="yes"/>
      <point x="159" y="240"/>
      <point x="154" y="227"/>
      <point x="154" y="214" type="curve" smooth="yes"/>
      <point x="154" y="184"/>
      <point x="180" y="159"/>
    </contour>
    <contour>
      <point x="595" y="291" type="curve" smooth="yes"/>
      <point x="394" y="291"/>
      <point x="294" y="448"/>
      <point x="294" y="603" type="curve" smooth="yes"/>
      <point x="294" y="758"/>
      <point x="394" y="916"/>
      <point x="595" y="916" type="curve" smooth="yes"/>
      <point x="795" y="916"/>
      <point x="896" y="758"/>
      <point x="896" y="603" type="curve" smooth="yes"/>
      <point x="896" y="448"/>
      <point x="795" y="291"/>
    </contour>
  </outline>
</glyph>
<glyph name="yen" format="1">
  <advance width="1208"/>
  <unicode hex="00A5"/>
  <outline>
    <contour>
      <point x="202" y="297" type="curve" smooth="yes"/>
      <point x="1069" y="297" type="line" smooth="yes"/>
      <point x="1111" y="297"/>
      <point x="1131" y="329"/>
      <point x="1131" y="360" type="curve" smooth="yes"/>
      <point x="1131" y="392"/>
      <point x="1111" y="424"/>
      <point x="1069" y="424" type="curve" smooth="yes"/>
      <point x="202" y="424" type="line" smooth="yes"/>
      <point x="160" y="424"/>
      <point x="141" y="392"/>
      <point x="141" y="362" type="curve" smooth="yes"/>
      <point x="141" y="330"/>
      <point x="161" y="297"/>
    </contour>
    <contour>
      <point x="202" y="542" type="curve" smooth="yes"/>
      <point x="1069" y="542" type="line" smooth="yes"/>
      <point x="1111" y="542"/>
      <point x="1131" y="573"/>
      <point x="1131" y="605" type="curve" smooth="yes"/>
      <point x="1131" y="636"/>
      <point x="1111" y="669"/>
      <point x="1069" y="669" type="curve" smooth="yes"/>
      <point x="202" y="669" type="line" smooth="yes"/>
      <point x="160" y="669"/>
      <point x="141" y="636"/>
      <point x="141" y="607" type="curve" smooth="yes"/>
      <point x="141" y="575"/>
      <point x="161" y="542"/>
    </contour>
    <component base="Y"/>
  </outline>
</glyph>
<glyph name="brokenbar" format="1">
  <advance width="455"/>
  <unicode hex="00A6"/>
  <outline>
    <contour>
      <point x="220" y="-93" type="curve" smooth="yes"/>
      <point x="269" y="-93"/>
      <point x="295" y="-56"/>
      <point x="295" y="-8" type="curve" smooth="yes"/>
      <point x="295" y="536" type="line" smooth="yes"/>
      <point x="295" y="590"/>
      <point x="266" y="622"/>
      <point x="221" y="622" type="curve" smooth="yes"/>
      <point x="180" y="622"/>
      <point x="147" y="594"/>
      <point x="147" y="548" type="curve" smooth="yes"/>
      <point x="147" y="-8" type="line" smooth="yes"/>
      <point x="147" y="-62"/>
      <point x="175" y="-93"/>
    </contour>
    <contour>
      <point x="221" y="814" type="curve" smooth="yes"/>
      <point x="270" y="814"/>
      <point x="295" y="852"/>
      <point x="295" y="900" type="curve" smooth="yes"/>
      <point x="295" y="1445" type="line" smooth="yes"/>
      <point x="295" y="1497"/>
      <point x="267" y="1530"/>
      <point x="222" y="1530" type="curve" smooth="yes"/>
      <point x="181" y="1530"/>
      <point x="147" y="1504"/>
      <point x="147" y="1456" type="curve" smooth="yes"/>
      <point x="147" y="900" type="line" smooth="yes"/>
      <point x="147" y="846"/>
      <point x="176" y="814"/>
    </contour>
  </outline>
</glyph>
<glyph name="section" format="1">
  <advance width="1192"/>
  <unicode hex="00A7"/>
  <outline>
    <contour>
      <point x="551" y="-32" type="curve" smooth="yes"/>
      <point x="771" y="-32"/>
      <point x="958" y="68"/>
      <point x="958" y="280" type="curve" smooth="yes"/>
      <point x="958" y="415"/>
      <point x="864" y="487"/>
      <point x="745" y="534" type="curve"/>
      <point x="858" y="581"/>
      <point x="964" y="671"/>
      <point x="964" y="793" type="curve" smooth="yes"/>
      <point x="964" y="1068"/>
      <point x="460" y="1038"/>
      <point x="460" y="1232" type="curve" smooth="yes"/>
      <point x="460" y="1343"/>
      <point x="579" y="1371"/>
      <point x="672" y="1371" type="curve" smooth="yes"/>
      <point x="733" y="1371"/>
      <point x="818" y="1344"/>
      <point x="854" y="1339" type="curve"/>
      <point x="890" y="1333"/>
      <point x="931" y="1369"/>
      <point x="931" y="1410" type="curve" smooth="yes"/>
      <point x="931" y="1436"/>
      <point x="916" y="1462"/>
      <point x="880" y="1472" type="curve" smooth="yes"/>
      <point x="803" y="1493"/>
      <point x="721" y="1511"/>
      <point x="637" y="1511" type="curve" smooth="yes"/>
      <point x="424" y="1511"/>
      <point x="249" y="1431"/>
      <point x="249" y="1227" type="curve" smooth="yes"/>
      <point x="249" y="1104"/>
      <point x="332" y="1051"/>
      <point x="439" y="983" type="curve"/>
      <point x="327" y="941"/>
      <point x="216" y="848"/>
      <point x="216" y="730" type="curve" smooth="yes"/>
      <point x="216" y="414"/>
      <point x="750" y="488"/>
      <point x="750" y="285" type="curve" smooth="yes"/>
      <point x="750" y="156"/>
      <point x="625" y="108"/>
      <point x="513" y="108" type="curve" smooth="yes"/>
      <point x="420" y="108"/>
      <point x="352" y="120"/>
      <point x="294" y="141" type="curve" smooth="yes"/>
      <point x="237" y="159"/>
      <point x="202" y="117"/>
      <point x="202" y="75" type="curve" smooth="yes"/>
      <point x="202" y="49"/>
      <point x="216" y="24"/>
      <point x="252" y="13" type="curve" smooth="yes"/>
      <point x="346" y="-18"/>
      <point x="450" y="-32"/>
    </contour>
    <contour>
      <point x="604" y="586" type="curve"/>
      <point x="524" y="620"/>
      <point x="399" y="662"/>
      <point x="399" y="753" type="curve" smooth="yes"/>
      <point x="399" y="845"/>
      <point x="478" y="883"/>
      <point x="558" y="933" type="curve"/>
      <point x="647" y="890"/>
      <point x="784" y="864"/>
      <point x="784" y="766" type="curve" smooth="yes"/>
      <point x="784" y="675"/>
      <point x="684" y="631"/>
    </contour>
  </outline>
</glyph>
<glyph name="dieresis" format="1">
  <advance width="569"/>
  <unicode hex="00A8"/>
  <outline>
    <contour>
      <point x="287" y="1040" type="move" name="_top"/>
    </contour>
    <contour>
      <point x="88" y="1201" type="curve" smooth="yes"/>
      <point x="157" y="1201"/>
      <point x="201" y="1251"/>
      <point x="201" y="1305" type="curve" smooth="yes"/>
      <point x="201" y="1359"/>
      <point x="157" y="1408"/>
      <point x="88" y="1408" type="curve" smooth="yes"/>
      <point x="19" y="1408"/>
      <point x="-24" y="1358"/>
      <point x="-24" y="1305" type="curve" smooth="yes"/>
      <point x="-24" y="1250"/>
      <point x="20" y="1201"/>
    </contour>
    <contour>
      <point x="482" y="1201" type="curve" smooth="yes"/>
      <point x="550" y="1201"/>
      <point x="593" y="1251"/>
      <point x="593" y="1305" type="curve" smooth="yes"/>
      <point x="593" y="1359"/>
      <point x="550" y="1408"/>
      <point x="482" y="1408" type="curve" smooth="yes"/>
      <point x="411" y="1408"/>
      <point x="369" y="1358"/>
      <point x="369" y="1305" type="curve" smooth="yes"/>
      <point x="369" y="1250"/>
      <point x="413" y="1201"/>
    </contour>
  </outline>
</glyph>
<glyph name="copyright" format="1">
  <advance width="1670"/>
  <unicode hex="00A9"/>
  <outline>
    <contour>
      <point x="854" y="394" type="curve" smooth="yes"/>
      <point x="935" y="394"/>
      <point x="1112" y="430"/>
      <point x="1112" y="505" type="curve" smooth="yes"/>
      <point x="1112" y="530"/>
      <point x="1093" y="552"/>
      <point x="1069" y="552" type="curve" smooth="yes"/>
      <point x="1062" y="552"/>
      <point x="1056" y="550"/>
      <point x="1049" y="547" type="curve"/>
      <point x="990" y="516"/>
      <point x="933" y="498"/>
      <point x="874" y="498" type="curve" smooth="yes"/>
      <point x="726" y="498"/>
      <point x="596" y="600"/>
      <point x="596" y="793" type="curve" smooth="yes"/>
      <point x="596" y="991"/>
      <point x="719" y="1076"/>
      <point x="864" y="1076" type="curve" smooth="yes"/>
      <point x="927" y="1076"/>
      <point x="995" y="1060"/>
      <point x="1055" y="1028" type="curve"/>
      <point x="1063" y="1025"/>
      <point x="1070" y="1023"/>
      <point x="1075" y="1023" type="curve" smooth="yes"/>
      <point x="1103" y="1023"/>
      <point x="1122" y="1051"/>
      <point x="1122" y="1077" type="curve" smooth="yes"/>
      <point x="1122" y="1147"/>
      <point x="927" y="1181"/>
      <point x="851" y="1181" type="curve" smooth="yes"/>
      <point x="647" y="1181"/>
      <point x="466" y="1051"/>
      <point x="466" y="791" type="curve" smooth="yes"/>
      <point x="466" y="531"/>
      <point x="653" y="394"/>
    </contour>
    <contour>
      <point x="843" y="233" type="curve" smooth="yes"/>
      <point x="513" y="233"/>
      <point x="270" y="467"/>
      <point x="270" y="786" type="curve" smooth="yes"/>
      <point x="270" y="1103"/>
      <point x="513" y="1337"/>
      <point x="843" y="1337" type="curve" smooth="yes"/>
      <point x="1172" y="1337"/>
      <point x="1412" y="1103"/>
      <point x="1412" y="786" type="curve" smooth="yes"/>
      <point x="1412" y="467"/>
      <point x="1172" y="233"/>
    </contour>
    <contour>
      <point x="843" y="116" type="curve" smooth="yes"/>
      <point x="1228" y="116"/>
      <point x="1540" y="416"/>
      <point x="1540" y="786" type="curve" smooth="yes"/>
      <point x="1540" y="1155"/>
      <point x="1228" y="1456"/>
      <point x="843" y="1456" type="curve" smooth="yes"/>
      <point x="457" y="1456"/>
      <point x="143" y="1155"/>
      <point x="143" y="786" type="curve" smooth="yes"/>
      <point x="143" y="416"/>
      <point x="457" y="116"/>
    </contour>
  </outline>
</glyph>
<glyph name="ordfeminine" format="1">
  <advance width="1057"/>
  <unicode hex="00AA"/>
  <outline>
    <contour>
      <point x="398" y="707" type="curve" smooth="yes"/>
      <point x="503" y="707"/>
      <point x="608" y="760"/>
      <point x="650" y="854" type="curve"/>
      <point x="650" y="788" type="line" smooth="yes"/>
      <point x="651" y="748"/>
      <point x="683" y="729"/>
      <point x="714" y="729" type="curve" smooth="yes"/>
      <point x="747" y="729"/>
      <point x="780" y="749"/>
      <point x="780" y="790" type="curve" smooth="yes"/>
      <point x="781" y="1245" type="line" smooth="yes"/>
      <point x="781" y="1433"/>
      <point x="664" y="1511"/>
      <point x="485" y="1511" type="curve" smooth="yes"/>
      <point x="357" y="1511"/>
      <point x="257" y="1476"/>
      <point x="199" y="1410" type="curve"/>
      <point x="190" y="1400"/>
      <point x="185" y="1390"/>
      <point x="185" y="1379" type="curve" smooth="yes"/>
      <point x="185" y="1354"/>
      <point x="204" y="1332"/>
      <point x="232" y="1332" type="curve" smooth="yes"/>
      <point x="240" y="1332"/>
      <point x="249" y="1334"/>
      <point x="258" y="1339" type="curve" smooth="yes"/>
      <point x="319" y="1374"/>
      <point x="376" y="1403"/>
      <point x="481" y="1403" type="curve" smooth="yes"/>
      <point x="581" y="1403"/>
      <point x="648" y="1365"/>
      <point x="648" y="1255" type="curve" smooth="yes"/>
      <point x="648" y="1194" type="line"/>
      <point x="621" y="1196"/>
      <point x="589" y="1197"/>
      <point x="564" y="1197" type="curve" smooth="yes"/>
      <point x="308" y="1197"/>
      <point x="137" y="1127"/>
      <point x="137" y="939" type="curve" smooth="yes"/>
      <point x="137" y="793"/>
      <point x="250" y="707"/>
    </contour>
    <contour>
      <point x="433" y="805" type="curve"/>
      <point x="345" y="808"/>
      <point x="275" y="850"/>
      <point x="275" y="945" type="curve" smooth="yes"/>
      <point x="275" y="1092"/>
      <point x="459" y="1101"/>
      <point x="648" y="1101" type="curve"/>
      <point x="648" y="1033" type="line"/>
      <point x="641" y="883"/>
      <point x="550" y="808"/>
    </contour>
  </outline>
</glyph>
<glyph name="guillemotleft" format="1">
  <advance width="1173"/>
  <unicode hex="00AB"/>
  <outline>
    <contour>
      <point x="474" y="94" type="curve" smooth="yes"/>
      <point x="513" y="94"/>
      <point x="542" y="120"/>
      <point x="542" y="158" type="curve" smooth="yes"/>
      <point x="541" y="169"/>
      <point x="539" y="179"/>
      <point x="535" y="188" type="curve" smooth="yes"/>
      <point x="370" y="541" type="line"/>
      <point x="533" y="890" type="line" smooth="yes"/>
      <point x="539" y="901"/>
      <point x="542" y="914"/>
      <point x="542" y="923" type="curve" smooth="yes"/>
      <point x="542" y="960"/>
      <point x="512" y="987"/>
      <point x="475" y="987" type="curve" smooth="yes"/>
      <point x="447" y="987"/>
      <point x="418" y="971"/>
      <point x="396" y="934" type="curve" smooth="yes"/>
      <point x="175" y="541" type="line"/>
      <point x="393" y="153" type="line" smooth="yes"/>
      <point x="416" y="111"/>
      <point x="444" y="94"/>
    </contour>
    <contour>
      <point x="882" y="94" type="curve" smooth="yes"/>
      <point x="921" y="94"/>
      <point x="951" y="121"/>
      <point x="951" y="159" type="curve" smooth="yes"/>
      <point x="950" y="169"/>
      <point x="948" y="179"/>
      <point x="944" y="188" type="curve" smooth="yes"/>
      <point x="779" y="541" type="line"/>
      <point x="942" y="890" type="line" smooth="yes"/>
      <point x="947" y="901"/>
      <point x="951" y="912"/>
      <point x="951" y="923" type="curve" smooth="yes"/>
      <point x="951" y="960"/>
      <point x="920" y="987"/>
      <point x="883" y="987" type="curve" smooth="yes"/>
      <point x="856" y="987"/>
      <point x="826" y="972"/>
      <point x="804" y="934" type="curve" smooth="yes"/>
      <point x="583" y="541" type="line"/>
      <point x="801" y="153" type="line" smooth="yes"/>
      <point x="824" y="111"/>
      <point x="853" y="94"/>
    </contour>
  </outline>
</glyph>
<glyph name="logicalnot" format="1">
  <advance width="1331"/>
  <unicode hex="00AC"/>
  <outline>
    <contour>
      <point x="1103" y="231" type="curve" smooth="yes"/>
      <point x="1141" y="231"/>
      <point x="1179" y="255"/>
      <point x="1179" y="304" type="curve" smooth="yes"/>
      <point x="1179" y="721" type="line" smooth="yes"/>
      <point x="1179" y="759"/>
      <point x="1141" y="797"/>
      <point x="1102" y="797" type="curve" smooth="yes"/>
      <point x="222" y="797" type="line" smooth="yes"/>
      <point x="175" y="797"/>
      <point x="154" y="760"/>
      <point x="154" y="722" type="curve" smooth="yes"/>
      <point x="154" y="684"/>
      <point x="175" y="647"/>
      <point x="222" y="647" type="curve" smooth="yes"/>
      <point x="1028" y="647" type="line"/>
      <point x="1028" y="304" type="line" smooth="yes"/>
      <point x="1028" y="255"/>
      <point x="1065" y="231"/>
    </contour>
  </outline>
</glyph>
<glyph name="registered" format="1">
  <advance width="1672"/>
  <unicode hex="00AE"/>
  <outline>
    <contour>
      <point x="641" y="387" type="curve" smooth="yes"/>
      <point x="672" y="387"/>
      <point x="703" y="406"/>
      <point x="703" y="444" type="curve" smooth="yes"/>
      <point x="703" y="726" type="line"/>
      <point x="844" y="726" type="line"/>
      <point x="1043" y="413" type="line" smooth="yes"/>
      <point x="1082" y="351"/>
      <point x="1178" y="413"/>
      <point x="1141" y="471" type="curve" smooth="yes"/>
      <point x="963" y="728" type="line"/>
      <point x="1093" y="742"/>
      <point x="1189" y="787"/>
      <point x="1189" y="933" type="curve" smooth="yes"/>
      <point x="1189" y="1072"/>
      <point x="1116" y="1141"/>
      <point x="909" y="1141" type="curve" smooth="yes"/>
      <point x="659" y="1141" type="line" smooth="yes"/>
      <point x="605" y="1141"/>
      <point x="582" y="1101"/>
      <point x="582" y="1060" type="curve" smooth="yes"/>
      <point x="582" y="444" type="line" smooth="yes"/>
      <point x="582" y="405"/>
      <point x="611" y="387"/>
    </contour>
    <contour>
      <point x="703" y="826" type="curve"/>
      <point x="703" y="1039" type="line"/>
      <point x="893" y="1039" type="line" smooth="yes"/>
      <point x="985" y="1039"/>
      <point x="1062" y="1024"/>
      <point x="1062" y="938" type="curve" smooth="yes"/>
      <point x="1062" y="832"/>
      <point x="981" y="825"/>
      <point x="892" y="825" type="curve" smooth="yes"/>
      <point x="870" y="825"/>
      <point x="725" y="827"/>
    </contour>
    <contour>
      <point x="841" y="201" type="curve" smooth="yes"/>
      <point x="507" y="201"/>
      <point x="262" y="438"/>
      <point x="262" y="760" type="curve" smooth="yes"/>
      <point x="262" y="1081"/>
      <point x="507" y="1318"/>
      <point x="841" y="1318" type="curve" smooth="yes"/>
      <point x="1173" y="1318"/>
      <point x="1417" y="1081"/>
      <point x="1417" y="760" type="curve" smooth="yes"/>
      <point x="1417" y="438"/>
      <point x="1173" y="201"/>
    </contour>
    <contour>
      <point x="841" y="85" type="curve" smooth="yes"/>
      <point x="1230" y="85"/>
      <point x="1548" y="391"/>
      <point x="1548" y="760" type="curve" smooth="yes"/>
      <point x="1548" y="1134"/>
      <point x="1230" y="1440"/>
      <point x="841" y="1440" type="curve" smooth="yes"/>
      <point x="450" y="1440"/>
      <point x="130" y="1134"/>
      <point x="130" y="760" type="curve" smooth="yes"/>
      <point x="130" y="391"/>
      <point x="450" y="85"/>
    </contour>
  </outline>
</glyph>
<glyph name="macron" format="1">
  <advance width="569"/>
  <unicode hex="00AF"/>
  <outline>
    <contour>
      <point x="290" y="1040" type="move" name="_top"/>
    </contour>
    <contour>
      <point x="291" y="1330" type="move" name="_mid"/>
    </contour>
    <contour>
      <point x="33" y="1267" type="curve" smooth="yes"/>
      <point x="542" y="1267" type="line" smooth="yes"/>
      <point x="588" y="1267"/>
      <point x="610" y="1297"/>
      <point x="610" y="1334" type="curve" smooth="yes"/>
      <point x="610" y="1369"/>
      <point x="588" y="1400"/>
      <point x="542" y="1400" type="curve" smooth="yes"/>
      <point x="33" y="1400" type="line" smooth="yes"/>
      <point x="-15" y="1400"/>
      <point x="-38" y="1369"/>
      <point x="-38" y="1334" type="curve" smooth="yes"/>
      <point x="-38" y="1297"/>
      <point x="-15" y="1267"/>
    </contour>
  </outline>
</glyph>
<glyph name="degree" format="1">
  <advance width="819"/>
  <unicode hex="00B0"/>
  <outline>
    <contour>
      <point x="410" y="928" type="curve" smooth="yes"/>
      <point x="296" y="928"/>
      <point x="213" y="1007"/>
      <point x="213" y="1118" type="curve" smooth="yes"/>
      <point x="213" y="1225"/>
      <point x="295" y="1309"/>
      <point x="408" y="1309" type="curve" smooth="yes"/>
      <point x="521" y="1309"/>
      <point x="607" y="1225"/>
      <point x="607" y="1118" type="curve" smooth="yes"/>
      <point x="607" y="1007"/>
      <point x="521" y="928"/>
    </contour>
    <contour>
      <point x="410" y="824" type="curve" smooth="yes"/>
      <point x="576" y="824"/>
      <point x="715" y="955"/>
      <point x="715" y="1118" type="curve" smooth="yes"/>
      <point x="715" y="1280"/>
      <point x="576" y="1413"/>
      <point x="410" y="1413" type="curve" smooth="yes"/>
      <point x="240" y="1413"/>
      <point x="105" y="1280"/>
      <point x="105" y="1118" type="curve" smooth="yes"/>
      <point x="105" y="955"/>
      <point x="241" y="824"/>
    </contour>
  </outline>
</glyph>
<glyph name="plusminus" format="1">
  <advance width="1331"/>
  <unicode hex="00B1"/>
  <outline>
    <contour>
      <point x="663" y="222" type="curve" smooth="yes"/>
      <point x="701" y="222"/>
      <point x="740" y="246"/>
      <point x="740" y="293" type="curve" smooth="yes"/>
      <point x="740" y="533" type="line"/>
      <point x="1103" y="533" type="line" smooth="yes"/>
      <point x="1152" y="533"/>
      <point x="1177" y="570"/>
      <point x="1177" y="606" type="curve" smooth="yes"/>
      <point x="1177" y="644"/>
      <point x="1152" y="679"/>
      <point x="1103" y="679" type="curve" smooth="yes"/>
      <point x="740" y="679" type="line"/>
      <point x="740" y="922" type="line" smooth="yes"/>
      <point x="740" y="970"/>
      <point x="703" y="993"/>
      <point x="665" y="993" type="curve" smooth="yes"/>
      <point x="627" y="993"/>
      <point x="589" y="969"/>
      <point x="589" y="922" type="curve" smooth="yes"/>
      <point x="589" y="679" type="line"/>
      <point x="228" y="679" type="line" smooth="yes"/>
      <point x="179" y="679"/>
      <point x="155" y="644"/>
      <point x="155" y="607" type="curve" smooth="yes"/>
      <point x="155" y="570"/>
      <point x="179" y="533"/>
      <point x="228" y="533" type="curve" smooth="yes"/>
      <point x="589" y="533" type="line"/>
      <point x="589" y="293" type="line" smooth="yes"/>
      <point x="589" y="245"/>
      <point x="625" y="222"/>
    </contour>
    <contour>
      <point x="228" y="0" type="curve" smooth="yes"/>
      <point x="1103" y="0" type="line" smooth="yes"/>
      <point x="1152" y="0"/>
      <point x="1177" y="37"/>
      <point x="1177" y="73" type="curve" smooth="yes"/>
      <point x="1177" y="111"/>
      <point x="1153" y="146"/>
      <point x="1103" y="146" type="curve" smooth="yes"/>
      <point x="228" y="146" type="line" smooth="yes"/>
      <point x="179" y="146"/>
      <point x="154" y="111"/>
      <point x="154" y="73" type="curve" smooth="yes"/>
      <point x="154" y="37"/>
      <point x="179" y="0"/>
    </contour>
  </outline>
</glyph>
<glyph name="twosuperior" format="1">
  <advance width="748"/>
  <unicode hex="00B2"/>
  <outline>
    <contour>
      <point x="163" y="577" type="curve" smooth="yes"/>
      <point x="597" y="577" type="line" smooth="yes"/>
      <point x="629" y="577"/>
      <point x="644" y="601"/>
      <point x="644" y="625" type="curve" smooth="yes"/>
      <point x="644" y="648"/>
      <point x="628" y="673"/>
      <point x="597" y="673" type="curve" smooth="yes"/>
      <point x="229" y="673" type="line"/>
      <point x="386" y="805"/>
      <point x="636" y="1031"/>
      <point x="636" y="1210" type="curve" smooth="yes"/>
      <point x="636" y="1344"/>
      <point x="518" y="1414"/>
      <point x="379" y="1414" type="curve" smooth="yes"/>
      <point x="283" y="1414"/>
      <point x="132" y="1359"/>
      <point x="132" y="1302" type="curve" smooth="yes"/>
      <point x="132" y="1280"/>
      <point x="150" y="1261"/>
      <point x="176" y="1261" type="curve" smooth="yes"/>
      <point x="187" y="1261"/>
      <point x="198" y="1263"/>
      <point x="208" y="1269" type="curve" smooth="yes"/>
      <point x="248" y="1292"/>
      <point x="308" y="1317"/>
      <point x="367" y="1317" type="curve" smooth="yes"/>
      <point x="442" y="1317"/>
      <point x="513" y="1277"/>
      <point x="513" y="1200" type="curve" smooth="yes"/>
      <point x="513" y="1083"/>
      <point x="310" y="879"/>
      <point x="192" y="772" type="curve"/>
      <point x="134" y="713"/>
      <point x="87" y="678"/>
      <point x="87" y="636" type="curve" smooth="yes"/>
      <point x="87" y="602"/>
      <point x="110" y="577"/>
    </contour>
  </outline>
</glyph>
<glyph name="threesuperior" format="1">
  <advance width="800"/>
  <unicode hex="00B3"/>
  <outline>
    <contour>
      <point x="398" y="545" type="curve" smooth="yes"/>
      <point x="550" y="545"/>
      <point x="677" y="620"/>
      <point x="677" y="774" type="curve" smooth="yes"/>
      <point x="677" y="885"/>
      <point x="610" y="966"/>
      <point x="507" y="990" type="curve"/>
      <point x="542" y="1061"/>
      <point x="661" y="1077"/>
      <point x="661" y="1179" type="curve" smooth="yes"/>
      <point x="661" y="1334"/>
      <point x="537" y="1410"/>
      <point x="394" y="1410" type="curve" smooth="yes"/>
      <point x="305" y="1410"/>
      <point x="156" y="1379"/>
      <point x="156" y="1322" type="curve" smooth="yes"/>
      <point x="156" y="1299"/>
      <point x="175" y="1276"/>
      <point x="203" y="1276" type="curve" smooth="yes"/>
      <point x="222" y="1276"/>
      <point x="306" y="1316"/>
      <point x="394" y="1316" type="curve" smooth="yes"/>
      <point x="479" y="1316"/>
      <point x="552" y="1266"/>
      <point x="552" y="1178" type="curve" smooth="yes"/>
      <point x="552" y="1080"/>
      <point x="468" y="1033"/>
      <point x="373" y="1031" type="curve" smooth="yes"/>
      <point x="334" y="1031" type="line" smooth="yes"/>
      <point x="304" y="1030"/>
      <point x="290" y="1007"/>
      <point x="290" y="984" type="curve" smooth="yes"/>
      <point x="290" y="962"/>
      <point x="305" y="939"/>
      <point x="335" y="939" type="curve" smooth="yes"/>
      <point x="380" y="939" type="line" smooth="yes"/>
      <point x="480" y="939"/>
      <point x="566" y="879"/>
      <point x="566" y="777" type="curve" smooth="yes"/>
      <point x="566" y="686"/>
      <point x="500" y="639"/>
      <point x="400" y="639" type="curve" smooth="yes"/>
      <point x="322" y="639"/>
      <point x="256" y="668"/>
      <point x="222" y="680" type="curve" smooth="yes"/>
      <point x="200" y="683"/>
      <point x="165" y="662"/>
      <point x="165" y="636" type="curve" smooth="yes"/>
      <point x="165" y="579"/>
      <point x="319" y="545"/>
    </contour>
  </outline>
</glyph>
<glyph name="acute" format="1">
  <advance width="569"/>
  <unicode hex="00B4"/>
  <outline>
    <contour>
      <point x="116" y="1040" type="move" name="_top"/>
    </contour>
    <contour>
      <point x="97" y="1202" type="curve" smooth="yes"/>
      <point x="112" y="1202"/>
      <point x="126" y="1208"/>
      <point x="141" y="1220" type="curve" smooth="yes"/>
      <point x="457" y="1468" type="line" smooth="yes"/>
      <point x="476" y="1482"/>
      <point x="484" y="1501"/>
      <point x="484" y="1520" type="curve" smooth="yes"/>
      <point x="484" y="1569"/>
      <point x="433" y="1615"/>
      <point x="385" y="1615" type="curve" smooth="yes"/>
      <point x="361" y="1615"/>
      <point x="341" y="1602"/>
      <point x="324" y="1580" type="curve" smooth="yes"/>
      <point x="68" y="1282" type="line" smooth="yes"/>
      <point x="57" y="1269"/>
      <point x="54" y="1257"/>
      <point x="54" y="1246" type="curve" smooth="yes"/>
      <point x="54" y="1221"/>
      <point x="72" y="1202"/>
    </contour>
  </outline>
</glyph>
<glyph name="mu" format="1">
  <advance width="1172"/>
  <unicode hex="00B5"/>
  <outline>
    <contour>
      <point x="240" y="-264" type="curve" smooth="yes"/>
      <point x="288" y="-264"/>
      <point x="337" y="-232"/>
      <point x="337" y="-171" type="curve" smooth="yes"/>
      <point x="337" y="41" type="line"/>
      <point x="388" y="6"/>
      <point x="450" y="-9"/>
      <point x="517" y="-9" type="curve" smooth="yes"/>
      <point x="647" y="-9"/>
      <point x="781" y="54"/>
      <point x="836" y="170" type="curve"/>
      <point x="836" y="87" type="line" smooth="yes"/>
      <point x="836" y="30"/>
      <point x="882" y="0"/>
      <point x="929" y="0" type="curve" smooth="yes"/>
      <point x="976" y="0"/>
      <point x="1024" y="30"/>
      <point x="1024" y="89" type="curve" smooth="yes"/>
      <point x="1024" y="905" type="line" smooth="yes"/>
      <point x="1024" y="965"/>
      <point x="978" y="994"/>
      <point x="930" y="994" type="curve" smooth="yes"/>
      <point x="883" y="994"/>
      <point x="836" y="964"/>
      <point x="836" y="905" type="curve" smooth="yes"/>
      <point x="836" y="384" type="line"/>
      <point x="824" y="198"/>
      <point x="701" y="106"/>
      <point x="554" y="106" type="curve" smooth="yes"/>
      <point x="440" y="106"/>
      <point x="337" y="183"/>
      <point x="337" y="349" type="curve" smooth="yes"/>
      <point x="337" y="904" type="line" smooth="yes"/>
      <point x="337" y="964"/>
      <point x="290" y="993"/>
      <point x="242" y="993" type="curve" smooth="yes"/>
      <point x="195" y="993"/>
      <point x="148" y="964"/>
      <point x="148" y="904" type="curve" smooth="yes"/>
      <point x="148" y="-171" type="line" smooth="yes"/>
      <point x="148" y="-235"/>
      <point x="193" y="-264"/>
    </contour>
  </outline>
</glyph>
<glyph name="paragraph" format="1">
  <advance width="1320"/>
  <unicode hex="00B6"/>
  <outline>
    <contour>
      <point x="602" y="-247" type="curve" smooth="yes"/>
      <point x="642" y="-247"/>
      <point x="681" y="-221"/>
      <point x="681" y="-171" type="curve" smooth="yes"/>
      <point x="681" y="1297" type="line"/>
      <point x="903" y="1297" type="line"/>
      <point x="903" y="-171" type="line" smooth="yes"/>
      <point x="903" y="-221"/>
      <point x="943" y="-247"/>
      <point x="983" y="-247" type="curve" smooth="yes"/>
      <point x="1022" y="-247"/>
      <point x="1062" y="-221"/>
      <point x="1062" y="-171" type="curve" smooth="yes"/>
      <point x="1062" y="1305" type="line" smooth="yes"/>
      <point x="1062" y="1368"/>
      <point x="1055" y="1431"/>
      <point x="942" y="1431" type="curve" smooth="yes"/>
      <point x="572" y="1431" type="line" smooth="yes"/>
      <point x="287" y="1431"/>
      <point x="122" y="1287"/>
      <point x="122" y="1053" type="curve" smooth="yes"/>
      <point x="122" y="853"/>
      <point x="299" y="684"/>
      <point x="522" y="684" type="curve"/>
      <point x="522" y="-171" type="line" smooth="yes"/>
      <point x="522" y="-221"/>
      <point x="562" y="-247"/>
    </contour>
  </outline>
</glyph>
<glyph name="periodcentered" format="1">
  <advance width="596"/>
  <unicode hex="00B7"/>
  <outline>
    <contour>
      <point x="285" y="408" type="curve" smooth="yes"/>
      <point x="360" y="408"/>
      <point x="405" y="461"/>
      <point x="405" y="520" type="curve" smooth="yes"/>
      <point x="405" y="576"/>
      <point x="360" y="630"/>
      <point x="285" y="630" type="curve" smooth="yes"/>
      <point x="210" y="630"/>
      <point x="165" y="576"/>
      <point x="165" y="520" type="curve" smooth="yes"/>
      <point x="165" y="461"/>
      <point x="210" y="408"/>
    </contour>
  </outline>
</glyph>
<glyph name="cedilla" format="1">
  <advance width="569"/>
  <unicode hex="00B8"/>
  <outline>
    <contour>
      <point x="281" y="0" type="move" name="_bot"/>
    </contour>
    <contour>
      <point x="294" y="-403" type="curve" smooth="yes"/>
      <point x="392" y="-403"/>
      <point x="494" y="-354"/>
      <point x="495" y="-250" type="curve" smooth="yes"/>
      <point x="495" y="-136"/>
      <point x="407" y="-104"/>
      <point x="312" y="-104" type="curve" smooth="yes"/>
      <point x="301" y="-104"/>
      <point x="291" y="-105"/>
      <point x="279" y="-105" type="curve"/>
      <point x="315" y="7" type="line"/>
      <point x="246" y="7" type="line"/>
      <point x="199" y="-124" type="line" smooth="yes"/>
      <point x="197" y="-131"/>
      <point x="195" y="-138"/>
      <point x="195" y="-144" type="curve" smooth="yes"/>
      <point x="195" y="-163"/>
      <point x="208" y="-176"/>
      <point x="235" y="-176" type="curve" smooth="yes"/>
      <point x="240" y="-176"/>
      <point x="246" y="-174"/>
      <point x="251" y="-174" type="curve" smooth="yes"/>
      <point x="305" y="-174"/>
      <point x="359" y="-194"/>
      <point x="359" y="-246" type="curve" smooth="yes"/>
      <point x="359" y="-298"/>
      <point x="336" y="-328"/>
      <point x="263" y="-328" type="curve" smooth="yes"/>
      <point x="205" y="-328"/>
      <point x="153" y="-311"/>
      <point x="103" y="-294" type="curve" smooth="yes"/>
      <point x="98" y="-292"/>
      <point x="94" y="-291"/>
      <point x="91" y="-291" type="curve" smooth="yes"/>
      <point x="72" y="-291"/>
      <point x="61" y="-309"/>
      <point x="61" y="-327" type="curve" smooth="yes"/>
      <point x="61" y="-374"/>
      <point x="183" y="-403"/>
    </contour>
  </outline>
</glyph>
<glyph name="onesuperior" format="1">
  <advance width="693"/>
  <unicode hex="00B9"/>
  <outline>
    <contour>
      <point x="426" y="577" type="curve" smooth="yes"/>
      <point x="453" y="577"/>
      <point x="481" y="596"/>
      <point x="481" y="631" type="curve" smooth="yes"/>
      <point x="481" y="1333" type="line" smooth="yes"/>
      <point x="481" y="1373"/>
      <point x="457" y="1391"/>
      <point x="430" y="1391" type="curve" smooth="yes"/>
      <point x="419" y="1391"/>
      <point x="408" y="1388"/>
      <point x="399" y="1383" type="curve" smooth="yes"/>
      <point x="197" y="1257" type="line" smooth="yes"/>
      <point x="183" y="1248"/>
      <point x="177" y="1235"/>
      <point x="177" y="1222" type="curve" smooth="yes"/>
      <point x="177" y="1200"/>
      <point x="195" y="1177"/>
      <point x="220" y="1177" type="curve" smooth="yes"/>
      <point x="229" y="1177"/>
      <point x="236" y="1180"/>
      <point x="244" y="1185" type="curve" smooth="yes"/>
      <point x="370" y="1265" type="line"/>
      <point x="370" y="631" type="line" smooth="yes"/>
      <point x="370" y="596"/>
      <point x="397" y="577"/>
    </contour>
  </outline>
</glyph>
<glyph name="ordmasculine" format="1">
  <advance width="1102"/>
  <unicode hex="00BA"/>
  <outline>
    <contour>
      <point x="535" y="824" type="curve" smooth="yes"/>
      <point x="367" y="824"/>
      <point x="298" y="979"/>
      <point x="298" y="1114" type="curve" smooth="yes"/>
      <point x="298" y="1251"/>
      <point x="367" y="1406"/>
      <point x="535" y="1406" type="curve" smooth="yes"/>
      <point x="703" y="1406"/>
      <point x="771" y="1251"/>
      <point x="771" y="1116" type="curve" smooth="yes"/>
      <point x="771" y="979"/>
      <point x="703" y="824"/>
    </contour>
    <contour>
      <point x="534" y="720" type="curve" smooth="yes"/>
      <point x="803" y="720"/>
      <point x="926" y="913"/>
      <point x="926" y="1115" type="curve" smooth="yes"/>
      <point x="926" y="1316"/>
      <point x="803" y="1511"/>
      <point x="534" y="1511" type="curve" smooth="yes"/>
      <point x="266" y="1511"/>
      <point x="145" y="1316"/>
      <point x="145" y="1115" type="curve" smooth="yes"/>
      <point x="145" y="913"/>
      <point x="266" y="720"/>
    </contour>
  </outline>
</glyph>
<glyph name="guillemotright" format="1">
  <advance width="1173"/>
  <unicode hex="00BB"/>
  <outline>
    <contour>
      <point x="286" y="94" type="curve" smooth="yes"/>
      <point x="315" y="94"/>
      <point x="344" y="111"/>
      <point x="367" y="153" type="curve" smooth="yes"/>
      <point x="585" y="541" type="line"/>
      <point x="367" y="928" type="line" smooth="yes"/>
      <point x="344" y="969"/>
      <point x="314" y="987"/>
      <point x="286" y="987" type="curve" smooth="yes"/>
      <point x="249" y="987"/>
      <point x="218" y="960"/>
      <point x="218" y="924" type="curve" smooth="yes"/>
      <point x="218" y="912"/>
      <point x="221" y="902"/>
      <point x="227" y="891" type="curve" smooth="yes"/>
      <point x="390" y="541" type="line"/>
      <point x="227" y="191" type="line" smooth="yes"/>
      <point x="221" y="179"/>
      <point x="218" y="167"/>
      <point x="218" y="157" type="curve" smooth="yes"/>
      <point x="218" y="119"/>
      <point x="250" y="94"/>
    </contour>
    <contour>
      <point x="695" y="94" type="curve" smooth="yes"/>
      <point x="724" y="94"/>
      <point x="752" y="111"/>
      <point x="776" y="153" type="curve" smooth="yes"/>
      <point x="994" y="541" type="line"/>
      <point x="776" y="928" type="line" smooth="yes"/>
      <point x="752" y="969"/>
      <point x="723" y="987"/>
      <point x="694" y="987" type="curve" smooth="yes"/>
      <point x="658" y="987"/>
      <point x="626" y="960"/>
      <point x="626" y="924" type="curve" smooth="yes"/>
      <point x="626" y="913"/>
      <point x="630" y="902"/>
      <point x="636" y="890" type="curve" smooth="yes"/>
      <point x="799" y="541" type="line"/>
      <point x="636" y="191" type="line" smooth="yes"/>
      <point x="630" y="179"/>
      <point x="627" y="167"/>
      <point x="627" y="157" type="curve" smooth="yes"/>
      <point x="627" y="119"/>
      <point x="658" y="94"/>
    </contour>
  </outline>
</glyph>
<glyph name="onequarter" format="1">
  <advance width="1578"/>
  <unicode hex="00BC"/>
  <outline>
    <contour>
      <point x="1312" y="1" type="curve" smooth="yes"/>
      <point x="1338" y="1"/>
      <point x="1365" y="19"/>
      <point x="1365" y="56" type="curve" smooth="yes"/>
      <point x="1365" y="187" type="line"/>
      <point x="1451" y="187" type="line" smooth="yes"/>
      <point x="1481" y="187"/>
      <point x="1494" y="207"/>
      <point x="1494" y="227" type="curve" smooth="yes"/>
      <point x="1494" y="248"/>
      <point x="1480" y="267"/>
      <point x="1451" y="267" type="curve" smooth="yes"/>
      <point x="1365" y="267" type="line"/>
      <point x="1365" y="752" type="line" smooth="yes"/>
      <point x="1365" y="811"/>
      <point x="1332" y="839"/>
      <point x="1287" y="839" type="curve" smooth="yes"/>
      <point x="1250" y="839"/>
      <point x="1216" y="824"/>
      <point x="1190" y="778" type="curve"/>
      <point x="868" y="282" type="line" smooth="yes"/>
      <point x="859" y="269"/>
      <point x="855" y="256"/>
      <point x="855" y="243" type="curve" smooth="yes"/>
      <point x="855" y="212"/>
      <point x="879" y="187"/>
      <point x="918" y="187" type="curve" smooth="yes"/>
      <point x="1258" y="187" type="line"/>
      <point x="1258" y="56" type="line" smooth="yes"/>
      <point x="1258" y="19"/>
      <point x="1285" y="1"/>
    </contour>
    <contour>
      <point x="397" y="577" type="curve" smooth="yes"/>
      <point x="425" y="577"/>
      <point x="453" y="596"/>
      <point x="453" y="631" type="curve" smooth="yes"/>
      <point x="453" y="1333" type="line" smooth="yes"/>
      <point x="453" y="1373"/>
      <point x="428" y="1391"/>
      <point x="401" y="1391" type="curve" smooth="yes"/>
      <point x="390" y="1391"/>
      <point x="380" y="1388"/>
      <point x="370" y="1383" type="curve" smooth="yes"/>
      <point x="168" y="1257" type="line" smooth="yes"/>
      <point x="154" y="1248"/>
      <point x="148" y="1235"/>
      <point x="148" y="1222" type="curve" smooth="yes"/>
      <point x="148" y="1200"/>
      <point x="166" y="1177"/>
      <point x="192" y="1177" type="curve" smooth="yes"/>
      <point x="200" y="1177"/>
      <point x="208" y="1180"/>
      <point x="215" y="1185" type="curve" smooth="yes"/>
      <point x="342" y="1265" type="line"/>
      <point x="342" y="631" type="line" smooth="yes"/>
      <point x="342" y="596"/>
      <point x="369" y="577"/>
    </contour>
    <contour>
      <point x="526" y="-83" type="curve" smooth="yes"/>
      <point x="551" y="-83"/>
      <point x="575" y="-70"/>
      <point x="585" y="-39" type="curve" smooth="yes"/>
      <point x="1059" y="1356" type="line"/>
      <point x="1062" y="1365"/>
      <point x="1064" y="1373"/>
      <point x="1064" y="1380" type="curve" smooth="yes"/>
      <point x="1064" y="1418"/>
      <point x="1032" y="1440"/>
      <point x="1000" y="1440" type="curve" smooth="yes"/>
      <point x="974" y="1440"/>
      <point x="949" y="1426"/>
      <point x="938" y="1395" type="curve" smooth="yes"/>
      <point x="467" y="0" type="line"/>
      <point x="464" y="-8"/>
      <point x="463" y="-17"/>
      <point x="463" y="-24" type="curve" smooth="yes"/>
      <point x="463" y="-61"/>
      <point x="494" y="-83"/>
    </contour>
    <contour>
      <point x="959" y="266" type="line"/>
      <point x="1258" y="735" type="line"/>
      <point x="1258" y="266" type="line"/>
    </contour>
  </outline>
</glyph>
<glyph name="onehalf" format="1">
  <advance width="1596"/>
  <unicode hex="00BD"/>
  <outline>
    <contour>
      <point x="1000" y="0" type="curve" smooth="yes"/>
      <point x="1435" y="0" type="line" smooth="yes"/>
      <point x="1466" y="0"/>
      <point x="1482" y="23"/>
      <point x="1482" y="47" type="curve" smooth="yes"/>
      <point x="1482" y="71"/>
      <point x="1465" y="95"/>
      <point x="1435" y="95" type="curve" smooth="yes"/>
      <point x="1067" y="95" type="line"/>
      <point x="1223" y="228"/>
      <point x="1474" y="454"/>
      <point x="1474" y="634" type="curve" smooth="yes"/>
      <point x="1474" y="767"/>
      <point x="1356" y="837"/>
      <point x="1217" y="837" type="curve" smooth="yes"/>
      <point x="1121" y="837"/>
      <point x="970" y="781"/>
      <point x="970" y="724" type="curve" smooth="yes"/>
      <point x="970" y="702"/>
      <point x="988" y="683"/>
      <point x="1014" y="683" type="curve" smooth="yes"/>
      <point x="1025" y="683"/>
      <point x="1035" y="686"/>
      <point x="1046" y="692" type="curve" smooth="yes"/>
      <point x="1086" y="714"/>
      <point x="1146" y="740"/>
      <point x="1206" y="740" type="curve" smooth="yes"/>
      <point x="1280" y="740"/>
      <point x="1351" y="700"/>
      <point x="1351" y="623" type="curve" smooth="yes"/>
      <point x="1351" y="505"/>
      <point x="1146" y="304"/>
      <point x="1030" y="194" type="curve"/>
      <point x="973" y="135"/>
      <point x="925" y="99"/>
      <point x="925" y="57" type="curve" smooth="yes"/>
      <point x="925" y="25"/>
      <point x="948" y="0"/>
    </contour>
    <contour>
      <point x="397" y="577" type="curve" smooth="yes"/>
      <point x="425" y="577"/>
      <point x="453" y="596"/>
      <point x="453" y="631" type="curve" smooth="yes"/>
      <point x="453" y="1333" type="line" smooth="yes"/>
      <point x="453" y="1373"/>
      <point x="428" y="1391"/>
      <point x="401" y="1391" type="curve" smooth="yes"/>
      <point x="390" y="1391"/>
      <point x="380" y="1388"/>
      <point x="370" y="1383" type="curve" smooth="yes"/>
      <point x="168" y="1257" type="line" smooth="yes"/>
      <point x="154" y="1248"/>
      <point x="148" y="1235"/>
      <point x="148" y="1222" type="curve" smooth="yes"/>
      <point x="148" y="1200"/>
      <point x="166" y="1177"/>
      <point x="192" y="1177" type="curve" smooth="yes"/>
      <point x="200" y="1177"/>
      <point x="208" y="1180"/>
      <point x="215" y="1185" type="curve" smooth="yes"/>
      <point x="342" y="1265" type="line"/>
      <point x="342" y="631" type="line" smooth="yes"/>
      <point x="342" y="596"/>
      <point x="369" y="577"/>
    </contour>
    <contour>
      <point x="522" y="-83" type="curve" smooth="yes"/>
      <point x="547" y="-83"/>
      <point x="571" y="-70"/>
      <point x="581" y="-39" type="curve" smooth="yes"/>
      <point x="1056" y="1356" type="line"/>
      <point x="1059" y="1365"/>
      <point x="1060" y="1373"/>
      <point x="1060" y="1380" type="curve" smooth="yes"/>
      <point x="1060" y="1418"/>
      <point x="1029" y="1440"/>
      <point x="996" y="1440" type="curve" smooth="yes"/>
      <point x="971" y="1440"/>
      <point x="945" y="1426"/>
      <point x="935" y="1395" type="curve" smooth="yes"/>
      <point x="463" y="0" type="line"/>
      <point x="460" y="-8"/>
      <point x="459" y="-17"/>
      <point x="459" y="-24" type="curve" smooth="yes"/>
      <point x="459" y="-61"/>
      <point x="490" y="-83"/>
    </contour>
  </outline>
</glyph>
<glyph name="threequarters" format="1">
  <advance width="1648"/>
  <unicode hex="00BE"/>
  <outline>
    <contour>
      <point x="305" y="551" type="curve" smooth="yes"/>
      <point x="455" y="551"/>
      <point x="584" y="627"/>
      <point x="584" y="781" type="curve" smooth="yes"/>
      <point x="584" y="892"/>
      <point x="513" y="972"/>
      <point x="409" y="996" type="curve"/>
      <point x="465" y="1046"/>
      <point x="568" y="1085"/>
      <point x="568" y="1187" type="curve" smooth="yes"/>
      <point x="568" y="1341"/>
      <point x="439" y="1416"/>
      <point x="296" y="1416" type="curve" smooth="yes"/>
      <point x="207" y="1416"/>
      <point x="63" y="1385"/>
      <point x="63" y="1329" type="curve" smooth="yes"/>
      <point x="63" y="1304"/>
      <point x="80" y="1282"/>
      <point x="109" y="1282" type="curve" smooth="yes"/>
      <point x="128" y="1282"/>
      <point x="217" y="1320"/>
      <point x="299" y="1320" type="curve" smooth="yes"/>
      <point x="384" y="1320"/>
      <point x="458" y="1272"/>
      <point x="458" y="1185" type="curve" smooth="yes"/>
      <point x="458" y="1086"/>
      <point x="374" y="1041"/>
      <point x="279" y="1038" type="curve" smooth="yes"/>
      <point x="241" y="1037" type="line" smooth="yes"/>
      <point x="211" y="1036"/>
      <point x="197" y="1015"/>
      <point x="197" y="992" type="curve" smooth="yes"/>
      <point x="197" y="969"/>
      <point x="211" y="948"/>
      <point x="241" y="948" type="curve" smooth="yes"/>
      <point x="286" y="948" type="line" smooth="yes"/>
      <point x="387" y="948"/>
      <point x="472" y="885"/>
      <point x="472" y="783" type="curve" smooth="yes"/>
      <point x="472" y="693"/>
      <point x="407" y="647"/>
      <point x="306" y="647" type="curve" smooth="yes"/>
      <point x="233" y="647"/>
      <point x="162" y="673"/>
      <point x="128" y="685" type="curve" smooth="yes"/>
      <point x="93" y="693"/>
      <point x="71" y="668"/>
      <point x="71" y="642" type="curve" smooth="yes"/>
      <point x="71" y="586"/>
      <point x="225" y="551"/>
    </contour>
    <contour>
      <point x="1340" y="1" type="curve" smooth="yes"/>
      <point x="1366" y="1"/>
      <point x="1393" y="19"/>
      <point x="1393" y="56" type="curve" smooth="yes"/>
      <point x="1393" y="187" type="line"/>
      <point x="1479" y="187" type="line" smooth="yes"/>
      <point x="1509" y="187"/>
      <point x="1522" y="207"/>
      <point x="1522" y="227" type="curve" smooth="yes"/>
      <point x="1522" y="248"/>
      <point x="1507" y="267"/>
      <point x="1479" y="267" type="curve" smooth="yes"/>
      <point x="1393" y="267" type="line"/>
      <point x="1393" y="752" type="line" smooth="yes"/>
      <point x="1393" y="811"/>
      <point x="1360" y="839"/>
      <point x="1315" y="839" type="curve" smooth="yes"/>
      <point x="1277" y="839"/>
      <point x="1244" y="824"/>
      <point x="1218" y="778" type="curve"/>
      <point x="895" y="282" type="line" smooth="yes"/>
      <point x="887" y="270"/>
      <point x="883" y="257"/>
      <point x="883" y="243" type="curve" smooth="yes"/>
      <point x="883" y="212"/>
      <point x="907" y="187"/>
      <point x="946" y="187" type="curve" smooth="yes"/>
      <point x="1285" y="187" type="line"/>
      <point x="1285" y="56" type="line" smooth="yes"/>
      <point x="1285" y="19"/>
      <point x="1312" y="1"/>
    </contour>
    <contour>
      <point x="568" y="-83" type="curve" smooth="yes"/>
      <point x="593" y="-83"/>
      <point x="617" y="-70"/>
      <point x="627" y="-39" type="curve" smooth="yes"/>
      <point x="1101" y="1356" type="line"/>
      <point x="1104" y="1364"/>
      <point x="1105" y="1373"/>
      <point x="1105" y="1380" type="curve" smooth="yes"/>
      <point x="1105" y="1418"/>
      <point x="1074" y="1440"/>
      <point x="1042" y="1440" type="curve" smooth="yes"/>
      <point x="1016" y="1440"/>
      <point x="990" y="1426"/>
      <point x="980" y="1395" type="curve" smooth="yes"/>
      <point x="509" y="0" type="line"/>
      <point x="506" y="-8"/>
      <point x="505" y="-17"/>
      <point x="505" y="-24" type="curve" smooth="yes"/>
      <point x="505" y="-61"/>
      <point x="536" y="-83"/>
    </contour>
    <contour>
      <point x="986" y="266" type="line"/>
      <point x="1285" y="735" type="line"/>
      <point x="1285" y="266" type="line"/>
    </contour>
  </outline>
</glyph>
<glyph name="AE" format="1">
  <advance width="1968"/>
  <unicode hex="00C6"/>
  <outline>
    <contour>
      <point x="1256" y="0" type="curve" smooth="yes"/>
      <point x="1850" y="0" type="line"/>
      <point x="1902" y="1"/>
      <point x="1925" y="36"/>
      <point x="1925" y="74" type="curve" smooth="yes"/>
      <point x="1925" y="118"/>
      <point x="1892" y="165"/>
      <point x="1833" y="165" type="curve" smooth="yes"/>
      <point x="1341" y="165" type="line"/>
      <point x="1261" y="653" type="line"/>
      <point x="1799" y="653" type="line" smooth="yes"/>
      <point x="1851" y="653"/>
      <point x="1875" y="688"/>
      <point x="1875" y="727" type="curve" smooth="yes"/>
      <point x="1875" y="771"/>
      <point x="1843" y="817"/>
      <point x="1783" y="817" type="curve" smooth="yes"/>
      <point x="1239" y="817" type="line"/>
      <point x="1168" y="1265" type="line"/>
      <point x="1832" y="1265" type="line" smooth="yes"/>
      <point x="1884" y="1265"/>
      <point x="1908" y="1301"/>
      <point x="1908" y="1339" type="curve" smooth="yes"/>
      <point x="1908" y="1383"/>
      <point x="1875" y="1431"/>
      <point x="1816" y="1431" type="curve" smooth="yes"/>
      <point x="995" y="1430" type="line" smooth="yes"/>
      <point x="915" y="1430"/>
      <point x="852" y="1408"/>
      <point x="772" y="1260" type="curve"/>
      <point x="69" y="127" type="line"/>
      <point x="58" y="108"/>
      <point x="53" y="90"/>
      <point x="54" y="75" type="curve" smooth="yes"/>
      <point x="54" y="29"/>
      <point x="95" y="-1"/>
      <point x="141" y="-1" type="curve" smooth="yes"/>
      <point x="179" y="-1"/>
      <point x="219" y="19"/>
      <point x="242" y="66" type="curve"/>
      <point x="432" y="365" type="line"/>
      <point x="1100" y="365" type="line"/>
      <point x="1151" y="66" type="line"/>
      <point x="1159" y="14"/>
      <point x="1208" y="0"/>
    </contour>
    <contour>
      <point x="514" y="513" type="line"/>
      <point x="962" y="1286" type="line"/>
      <point x="965" y="1286" type="line"/>
      <point x="1082" y="513" type="line"/>
    </contour>
  </outline>
</glyph>
<glyph name="multiply" format="1">
  <advance width="1331"/>
  <unicode hex="00D7"/>
  <outline>
    <contour>
      <point x="358" y="115" type="curve" smooth="yes"/>
      <point x="376" y="115"/>
      <point x="393" y="122"/>
      <point x="408" y="137" type="curve" smooth="yes"/>
      <point x="664" y="394" type="line"/>
      <point x="911" y="147" type="line" smooth="yes"/>
      <point x="925" y="133"/>
      <point x="941" y="125"/>
      <point x="959" y="125" type="curve"/>
      <point x="1001" y="125"/>
      <point x="1038" y="164"/>
      <point x="1038" y="205" type="curve" smooth="yes"/>
      <point x="1038" y="221"/>
      <point x="1032" y="239"/>
      <point x="1018" y="254" type="curve" smooth="yes"/>
      <point x="771" y="500" type="line"/>
      <point x="1027" y="757" type="line" smooth="yes"/>
      <point x="1043" y="773"/>
      <point x="1049" y="791"/>
      <point x="1049" y="808" type="curve" smooth="yes"/>
      <point x="1049" y="847"/>
      <point x="1014" y="882"/>
      <point x="974" y="882" type="curve" smooth="yes"/>
      <point x="956" y="882"/>
      <point x="938" y="874"/>
      <point x="923" y="859" type="curve" smooth="yes"/>
      <point x="667" y="603" type="line"/>
      <point x="420" y="851" type="line" smooth="yes"/>
      <point x="405" y="866"/>
      <point x="388" y="873"/>
      <point x="370" y="873" type="curve" smooth="yes"/>
      <point x="329" y="873"/>
      <point x="291" y="834"/>
      <point x="291" y="794" type="curve" smooth="yes"/>
      <point x="291" y="776"/>
      <point x="298" y="759"/>
      <point x="313" y="745" type="curve" smooth="yes"/>
      <point x="561" y="497" type="line"/>
      <point x="305" y="241" type="line" smooth="yes"/>
      <point x="289" y="225"/>
      <point x="282" y="207"/>
      <point x="282" y="190" type="curve" smooth="yes"/>
      <point x="282" y="151"/>
      <point x="319" y="115"/>
    </contour>
  </outline>
</glyph>
<glyph name="Oslash" format="1">
  <advance width="1600"/>
  <unicode hex="00D8"/>
  <outline>
    <contour>
      <point x="283" y="-140" type="curve" smooth="yes"/>
      <point x="307" y="-140"/>
      <point x="327" y="-127"/>
      <point x="348" y="-96" type="curve"/>
      <point x="1393" y="1440" type="line" smooth="yes"/>
      <point x="1407" y="1462"/>
      <point x="1415" y="1483"/>
      <point x="1415" y="1502" type="curve" smooth="yes"/>
      <point x="1415" y="1539"/>
      <point x="1385" y="1564"/>
      <point x="1352" y="1564" type="curve" smooth="yes"/>
      <point x="1330" y="1564"/>
      <point x="1306" y="1555"/>
      <point x="1288" y="1527" type="curve" smooth="yes"/>
      <point x="236" y="-33" type="line" smooth="yes"/>
      <point x="225" y="-48"/>
      <point x="220" y="-65"/>
      <point x="220" y="-80" type="curve" smooth="yes"/>
      <point x="220" y="-114"/>
      <point x="249" y="-140"/>
    </contour>
    <component base="O"/>
  </outline>
</glyph>
<glyph name="Thorn" format="1">
  <advance width="1298"/>
  <unicode hex="00DE"/>
  <outline>
    <contour>
      <point x="294" y="-1" type="curve" smooth="yes"/>
      <point x="347" y="-1"/>
      <point x="400" y="32"/>
      <point x="400" y="100" type="curve" smooth="yes"/>
      <point x="400" y="391" type="line"/>
      <point x="657" y="391" type="line" smooth="yes"/>
      <point x="956" y="391"/>
      <point x="1235" y="488"/>
      <point x="1235" y="810" type="curve" smooth="yes"/>
      <point x="1235" y="1125"/>
      <point x="960" y="1226"/>
      <point x="671" y="1226" type="curve" smooth="yes"/>
      <point x="400" y="1226" type="line"/>
      <point x="400" y="1339" type="line" smooth="yes"/>
      <point x="400" y="1406"/>
      <point x="347" y="1440"/>
      <point x="293" y="1440" type="curve" smooth="yes"/>
      <point x="240" y="1440"/>
      <point x="187" y="1406"/>
      <point x="187" y="1339" type="curve" smooth="yes"/>
      <point x="187" y="100" type="line" smooth="yes"/>
      <point x="187" y="33"/>
      <point x="240" y="-1"/>
    </contour>
    <contour>
      <point x="400" y="548" type="line"/>
      <point x="400" y="1069" type="line"/>
      <point x="678" y="1069" type="line" smooth="yes"/>
      <point x="863" y="1069"/>
      <point x="1017" y="1011"/>
      <point x="1017" y="810" type="curve" smooth="yes"/>
      <point x="1017" y="607"/>
      <point x="862" y="548"/>
      <point x="672" y="548" type="curve" smooth="yes"/>
    </contour>
  </outline>
</glyph>
